<?xml version="1.0" encoding="UTF-8"?>
<svg id="_レイヤー_2" data-name="レイヤー 2" xmlns="http://www.w3.org/2000/svg" viewBox="0 0 602.82 342.85">
  <defs>
    <style>
      .cls-1 {
        fill: #f3f2e6;
      }

      .cls-1, .cls-2, .cls-3, .cls-4, .cls-5, .cls-6, .cls-7, .cls-8, .cls-9, .cls-10, .cls-11, .cls-12, .cls-13, .cls-14, .cls-15, .cls-16, .cls-17, .cls-18, .cls-19, .cls-20, .cls-21, .cls-22, .cls-23, .cls-24, .cls-25, .cls-26, .cls-27, .cls-28, .cls-29, .cls-30, .cls-31, .cls-32, .cls-33, .cls-34, .cls-35, .cls-36, .cls-37, .cls-38, .cls-39, .cls-40, .cls-41, .cls-42, .cls-43, .cls-44, .cls-45, .cls-46, .cls-47, .cls-48, .cls-49, .cls-50, .cls-51, .cls-52, .cls-53, .cls-54, .cls-55, .cls-56, .cls-57, .cls-58, .cls-59, .cls-60, .cls-61, .cls-62, .cls-63, .cls-64, .cls-65, .cls-66, .cls-67, .cls-68, .cls-69, .cls-70, .cls-71, .cls-72, .cls-73, .cls-74, .cls-75, .cls-76, .cls-77, .cls-78, .cls-79, .cls-80, .cls-81, .cls-82, .cls-83, .cls-84, .cls-85, .cls-86, .cls-87, .cls-88, .cls-89, .cls-90, .cls-91, .cls-92, .cls-93, .cls-94, .cls-95, .cls-96, .cls-97, .cls-98, .cls-99, .cls-100, .cls-101, .cls-102, .cls-103, .cls-104, .cls-105, .cls-106, .cls-107, .cls-108, .cls-109, .cls-110, .cls-111, .cls-112, .cls-113, .cls-114, .cls-115, .cls-116, .cls-117, .cls-118, .cls-119, .cls-120, .cls-121, .cls-122, .cls-123, .cls-124, .cls-125, .cls-126, .cls-127, .cls-128, .cls-129, .cls-130, .cls-131, .cls-132, .cls-133, .cls-134, .cls-135, .cls-136, .cls-137, .cls-138, .cls-139, .cls-140, .cls-141, .cls-142, .cls-143, .cls-144, .cls-145, .cls-146, .cls-147, .cls-148, .cls-149, .cls-150, .cls-151, .cls-152, .cls-153, .cls-154, .cls-155, .cls-156, .cls-157, .cls-158, .cls-159, .cls-160, .cls-161, .cls-162, .cls-163, .cls-164, .cls-165, .cls-166, .cls-167, .cls-168, .cls-169, .cls-170, .cls-171, .cls-172, .cls-173, .cls-174, .cls-175, .cls-176, .cls-177, .cls-178, .cls-179, .cls-180, .cls-181, .cls-182, .cls-183, .cls-184, .cls-185, .cls-186, .cls-187, .cls-188, .cls-189, .cls-190, .cls-191, .cls-192, .cls-193, .cls-194, .cls-195, .cls-196, .cls-197, .cls-198, .cls-199, .cls-200, .cls-201, .cls-202, .cls-203, .cls-204, .cls-205, .cls-206, .cls-207, .cls-208, .cls-209, .cls-210, .cls-211, .cls-212, .cls-213, .cls-214, .cls-215, .cls-216, .cls-217, .cls-218, .cls-219, .cls-220, .cls-221, .cls-222, .cls-223, .cls-224, .cls-225, .cls-226, .cls-227, .cls-228, .cls-229, .cls-230, .cls-231, .cls-232, .cls-233 {
        stroke-width: 0px;
      }

      .cls-2 {
        fill: #f3fa6c;
      }

      .cls-3 {
        fill: #f3fa8a;
      }

      .cls-4 {
        fill: #f3fa79;
      }

      .cls-5 {
        fill: #f3fa74;
      }

      .cls-6 {
        fill: #f3fb58;
      }

      .cls-7 {
        fill: #f3f880;
      }

      .cls-8 {
        fill: #f3f3f3;
      }

      .cls-9 {
        fill: #f3fa5f;
      }

      .cls-10 {
        fill: #f3fa62;
      }

      .cls-11 {
        fill: #f3fa65;
      }

      .cls-12 {
        fill: #f3fa60;
      }

      .cls-13 {
        fill: #f3fa66;
      }

      .cls-14 {
        fill: #f3fa69;
      }

      .cls-15 {
        fill: #f3fa61;
      }

      .cls-16 {
        fill: #f3fa5e;
      }

      .cls-17 {
        fill: #f3fa68;
      }

      .cls-18 {
        fill: #f3fa67;
      }

      .cls-19 {
        fill: #f3f981;
      }

      .cls-20 {
        fill: #f3f892;
      }

      .cls-21 {
        fill: #f3f97d;
      }

      .cls-22 {
        fill: #f3fa57;
      }

      .cls-23 {
        fill: #f3fa55;
      }

      .cls-24 {
        fill: #f7faa5;
      }

      .cls-25 {
        fill: #f7fab7;
      }

      .cls-26 {
        fill: #f7faaf;
      }

      .cls-27 {
        fill: #f7fab1;
      }

      .cls-28 {
        fill: #f7f7eb;
      }

      .cls-29 {
        fill: #f9fbb2;
      }

      .cls-30 {
        fill: #f2f893;
      }

      .cls-31 {
        fill: #f2fa59;
      }

      .cls-32 {
        fill: #f2fa47;
      }

      .cls-33 {
        fill: #f2f976;
      }

      .cls-34 {
        fill: #f2f971;
      }

      .cls-35 {
        fill: #f2fa68;
      }

      .cls-36 {
        fill: #f2f952;
      }

      .cls-37 {
        fill: #f2faa2;
      }

      .cls-38 {
        fill: #f2fa56;
      }

      .cls-39 {
        fill: #f2fa4f;
      }

      .cls-40 {
        fill: #f2fa57;
      }

      .cls-41 {
        fill: #f2fa54;
      }

      .cls-42 {
        fill: #f2fa67;
      }

      .cls-43 {
        fill: #f2fa5a;
      }

      .cls-44 {
        fill: #f2f2f2;
      }

      .cls-45 {
        fill: #f7fb92;
      }

      .cls-46 {
        fill: #f7fba7;
      }

      .cls-47 {
        fill: #f6fba3;
      }

      .cls-48 {
        fill: #f6fba6;
      }

      .cls-49 {
        fill: #f6f9b4;
      }

      .cls-50 {
        fill: #f6fb8e;
      }

      .cls-51 {
        fill: #f6fb8d;
      }

      .cls-52 {
        fill: #f6fb85;
      }

      .cls-53 {
        fill: #f8fba4;
      }

      .cls-54 {
        fill: #f8fcc6;
      }

      .cls-55 {
        fill: #f9fcbb;
      }

      .cls-56 {
        fill: #f9fcb8;
      }

      .cls-57 {
        fill: #f8f8ed;
      }

      .cls-58 {
        fill: #5f5f5f;
      }

      .cls-59 {
        fill: #767c0c;
      }

      .cls-60 {
        fill: #7a8116;
      }

      .cls-61 {
        fill: #7a8009;
      }

      .cls-62 {
        fill: #838906;
      }

      .cls-63 {
        fill: #51550d;
      }

      .cls-64 {
        fill: #7b8109;
      }

      .cls-65 {
        fill: #626262;
      }

      .cls-66 {
        fill: #64680c;
      }

      .cls-67 {
        fill: #889019;
      }

      .cls-68 {
        fill: #888e0c;
      }

      .cls-69 {
        fill: #868b0a;
      }

      .cls-70 {
        fill: #868c0b;
      }

      .cls-71 {
        fill: #959c05;
      }

      .cls-72 {
        fill: #71770d;
      }

      .cls-73 {
        fill: #a3aa07;
      }

      .cls-74 {
        fill: #585d11;
      }

      .cls-75 {
        fill: #0a0a09;
      }

      .cls-76 {
        fill: #10100e;
      }

      .cls-77 {
        fill: #0d0d0d;
      }

      .cls-78 {
        fill: #15140b;
      }

      .cls-79 {
        fill: #13110e;
      }

      .cls-80 {
        fill: #c3cb12;
      }

      .cls-81 {
        fill: #c3cc03;
      }

      .cls-82 {
        fill: #d1d1d1;
      }

      .cls-83 {
        fill: #d1dc06;
      }

      .cls-84 {
        fill: #dce703;
      }

      .cls-85 {
        fill: #dde903;
      }

      .cls-86 {
        fill: #cfda02;
      }

      .cls-87 {
        fill: #e1e1e1;
      }

      .cls-88 {
        fill: #e0ec02;
      }

      .cls-89 {
        fill: #c0cb04;
      }

      .cls-90 {
        fill: #aeaeae;
      }

      .cls-91 {
        fill: #abb309;
      }

      .cls-92 {
        fill: #858d28;
      }

      .cls-93 {
        fill: #9da408;
      }

      .cls-94 {
        fill: #8b9208;
      }

      .cls-95 {
        fill: #909805;
      }

      .cls-96 {
        fill: #737904;
      }

      .cls-97 {
        fill: #b9c206;
      }

      .cls-98 {
        fill: #7f8605;
      }

      .cls-99 {
        fill: #929907;
      }

      .cls-100 {
        fill: #9fa511;
      }

      .cls-101 {
        fill: #939906;
      }

      .cls-102 {
        fill: #fdfdf9;
      }

      .cls-103 {
        fill: #fdfdf3;
      }

      .cls-104 {
        fill: #818809;
      }

      .cls-105 {
        fill: #ecf804;
      }

      .cls-106 {
        fill: #ecf80f;
      }

      .cls-107 {
        fill: #ecf814;
      }

      .cls-108 {
        fill: #f1f85b;
      }

      .cls-109 {
        fill: #f1f95b;
      }

      .cls-110 {
        fill: #f1f4ac;
      }

      .cls-111 {
        fill: #f1fa50;
      }

      .cls-112 {
        fill: #f1fa4a;
      }

      .cls-113 {
        fill: #f1fa58;
      }

      .cls-114 {
        fill: #f1fa45;
      }

      .cls-115 {
        fill: #f1f972;
      }

      .cls-116 {
        fill: #f1f949;
      }

      .cls-117 {
        fill: #f1f959;
      }

      .cls-118 {
        fill: #f1f94a;
      }

      .cls-119 {
        fill: #f0f3ac;
      }

      .cls-120 {
        fill: #edf813;
      }

      .cls-121 {
        fill: #edf80c;
      }

      .cls-122 {
        fill: #ededed;
      }

      .cls-123 {
        fill: #edf901;
      }

      .cls-124 {
        fill: #edf909;
      }

      .cls-125 {
        fill: #edf904;
      }

      .cls-126 {
        fill: #edf915;
      }

      .cls-127 {
        fill: #ffffec;
      }

      .cls-128 {
        fill: #f4f987;
      }

      .cls-129 {
        fill: #eff93d;
      }

      .cls-130 {
        fill: #eff931;
      }

      .cls-131 {
        fill: #eff93c;
      }

      .cls-132 {
        fill: #eff937;
      }

      .cls-133 {
        fill: #eff93e;
      }

      .cls-134 {
        fill: #eff938;
      }

      .cls-135 {
        fill: #eff936;
      }

      .cls-136 {
        fill: #eff92f;
      }

      .cls-137 {
        fill: #eff941;
      }

      .cls-138 {
        fill: #eff93a;
      }

      .cls-139 {
        fill: #eff927;
      }

      .cls-140 {
        fill: #eff92e;
      }

      .cls-141 {
        fill: #eff926;
      }

      .cls-142 {
        fill: #eff934;
      }

      .cls-143 {
        fill: #eff933;
      }

      .cls-144 {
        fill: #eff924;
      }

      .cls-145 {
        fill: #fcfda5;
      }

      .cls-146 {
        fill: #ecf718;
      }

      .cls-147 {
        fill: #ecf19a;
      }

      .cls-148 {
        fill: #e5f207;
      }

      .cls-149 {
        fill: #e5e6b9;
      }

      .cls-150 {
        fill: #e5e5e5;
      }

      .cls-151 {
        fill: #fbfbf6;
      }

      .cls-152 {
        fill: #fbfbf7;
      }

      .cls-153 {
        fill: #fbfcc9;
      }

      .cls-154 {
        fill: #fbfdd1;
      }

      .cls-155 {
        fill: #fefee6;
      }

      .cls-156 {
        fill: #fefefc;
      }

      .cls-157 {
        fill: #eef28c;
      }

      .cls-158 {
        fill: #eef81c;
      }

      .cls-159 {
        fill: #eef928;
      }

      .cls-160 {
        fill: #eef925;
      }

      .cls-161 {
        fill: #eef91e;
      }

      .cls-162 {
        fill: #eef922;
      }

      .cls-163 {
        fill: #f0f944;
      }

      .cls-164 {
        fill: #f0f945;
      }

      .cls-165 {
        fill: #f0f942;
      }

      .cls-166 {
        fill: #f0f949;
      }

      .cls-167 {
        fill: #f0f943;
      }

      .cls-168 {
        fill: #f0f940;
      }

      .cls-169 {
        fill: #f0f93b;
      }

      .cls-170 {
        fill: #f0f93f;
      }

      .cls-171 {
        fill: #f0f957;
      }

      .cls-172 {
        fill: #f0fa45;
      }

      .cls-173 {
        fill: #f0f93d;
      }

      .cls-174 {
        fill: #f0f948;
      }

      .cls-175 {
        fill: #f0f94b;
      }

      .cls-176 {
        fill: #f0f843;
      }

      .cls-177 {
        fill: #f0fa47;
      }

      .cls-178 {
        fill: #f0f931;
      }

      .cls-179 {
        fill: #f0fa44;
      }

      .cls-180 {
        fill: #f0f94a;
      }

      .cls-181 {
        fill: #f0f941;
      }

      .cls-182 {
        fill: #f0fa46;
      }

      .cls-183 {
        fill: #f0f938;
      }

      .cls-184 {
        fill: #fafdb5;
      }

      .cls-185 {
        fill: #fafdc1;
      }

      .cls-186 {
        fill: #fafdc4;
      }

      .cls-187 {
        fill: #fafeb7;
      }

      .cls-188 {
        fill: #fcfcf8;
      }

      .cls-189 {
        fill: #fcfcf7;
      }

      .cls-190 {
        fill: #fcfdda;
      }

      .cls-191 {
        fill: #fcfdcd;
      }

      .cls-192 {
        fill: #fcfcf5;
      }

      .cls-193 {
        fill: #f5f5f4;
      }

      .cls-194 {
        fill: #f5fb86;
      }

      .cls-195 {
        fill: #f5fb81;
      }

      .cls-196 {
        fill: #f5fb8b;
      }

      .cls-197 {
        fill: #f5fb8a;
      }

      .cls-198 {
        fill: #f5fb78;
      }

      .cls-199 {
        fill: #f5fb73;
      }

      .cls-200 {
        fill: #f5fb8c;
      }

      .cls-201 {
        fill: #e7f202;
      }

      .cls-202 {
        fill: #f4fa6e;
      }

      .cls-203 {
        fill: #f4fb70;
      }

      .cls-204 {
        fill: #f4fb6f;
      }

      .cls-205 {
        fill: #f4fb6c;
      }

      .cls-206 {
        fill: #f4fb71;
      }

      .cls-207 {
        fill: #f4fb8e;
      }

      .cls-208 {
        fill: #f4fa59;
      }

      .cls-209 {
        fill: #f4fb94;
      }

      .cls-210 {
        fill: #f4fa7a;
      }

      .cls-211 {
        fill: #f4fa73;
      }

      .cls-212 {
        fill: #f4fb7c;
      }

      .cls-213 {
        fill: #f4fa8c;
      }

      .cls-214 {
        fill: #f4fa7c;
      }

      .cls-215 {
        fill: #f4fa80;
      }

      .cls-216 {
        fill: #f4fa7d;
      }

      .cls-217 {
        fill: #f4fa83;
      }

      .cls-218 {
        fill: #f4fa94;
      }

      .cls-219 {
        fill: #f4fb7a;
      }

      .cls-220 {
        fill: #f4fa67;
      }

      .cls-221 {
        fill: #f4fb73;
      }

      .cls-222 {
        fill: #f4fb74;
      }

      .cls-223 {
        fill: #f4fb87;
      }

      .cls-224 {
        fill: #f4fa6a;
      }

      .cls-225 {
        fill: #f4fa63;
      }

      .cls-226 {
        fill: #f4fa71;
      }

      .cls-227 {
        fill: #f4fa79;
      }

      .cls-228 {
        fill: #f4fa88;
      }

      .cls-229 {
        fill: #f4fa87;
      }

      .cls-230 {
        fill: #f5fa93;
      }

      .cls-231 {
        fill: #f5f5de;
      }

      .cls-232 {
        fill: #060606;
      }

      .cls-233 {
        fill: #676767;
      }
    </style>
  </defs>
  <g id="_レイヤー_1-2" data-name="レイヤー 1">
    <g>
      <path class="cls-232" d="m306.82.88c31.2.09,65.46-3.83,93.65,12.5,31.46,11.97,53.4,38.38,76.59,61.42,12.74,15.2,22.77,39.98,46.26,38.67,30.67,2.25,59.64,17.48,78.42,41.7,5.71,20.98-12.59,45.75-34.25,47.39-16.46,2.87-31.89,11.05-49.1,8.92-13.81-3.44-14.26,14.15-20.14,21.88-24.18,36.97-53.75,74.66-96.46,90.53-10.99,5.23-23.98,2.35-34.54,8.52-31.17,14.42-66.5,9.62-99.69,8.94-37.22-.87-75.41-9.16-104.32-33.77-12.96,8.52-26.69,17.22-42.6,20.15-25.8,15.79-57.01,8.46-84.2.68-15.08-3.93-28.07-14.37-35.23-28.21-7.86-48.29,23.2-99.66,70.07-113.87-9.46-11.56,6.46-23.83,12.5-33.47,24.49-47.13,60.31-88.93,107.56-114.31C223.21,10.82,266.33,5.45,306.82.88m18.61,12.32c25.45,11.61,54.19,13.35,78.92,27.49-9.45,4.29-23.77-2.7-34.93-1.12-1.24-.4-2.48-1.08-3.8-.85-58.62-19.86-124.61-3.6-176.56,26.93-4.09,3.67-9.63,5.24-13.64,8.94-35.05,18.95-59.34,51.28-88.95,77.1,6.27,2.7,17.33-.2,24.98.87-12.25,18.22-7.29,47.77-33.24,54.75-25.42,4.55-48.06,30.5-39.78,57.45-.21,2.77.45,7.64,2.83,8.6,4.48,16.09,21.42,27.86,37.92,28.36,22.92,1.46,47.89,5.17,69.3-4.17-1.46-10.93,12.43-11.93,18.75-17.58,5.69-1.17,11.37-2.03,17.16-.58.35,4.76-3.18,7.99-6.15,11.22,5.72,11.01,19.03,12.3,29.84,14.15,4.59,4.36-3,7.79-6.72,8.76,23.5,14.94,53.32,7.03,79.44,9.62,27.29.09,54.55-3.35,81.87-4.14,28.14-7.64,52.19-24.87,77.53-38.66,16.91-12.15,26.16-31.4,33.98-50.04,12.55-11.93,24.07-34.26,44.46-29.12,13.42,1.16,27.91-1.45,38.98-9.44,6.42-10.01,8.22-22.88,6.17-34.3-9.55-8.63-19.11-19.77-32.93-20.46-18.18-1.9-33.42-13-47.3-23.78-5.26-12.28-15.13-21.96-27.08-27.8-14.22-9.62-26.98-22.12-44.05-26.75,1.15-4.18-.36-10.01,2.96-13.4,7.23,4.29,15.08,7.45,22.98,10.28-30.2-27.81-71.5-50.2-112.93-42.33m-45.43,5.77c-11.51,2.62-24.87,4.6-34.49,10.71,20.48-3.27,40.6-9.43,61.55-9.25-6.33-2.48-18.9-2-27.06-1.46m299.56,135.95c1.08,12.89-3.02,24.98-8.02,36.55,14.98-2.66,25.52-31.39,8.02-36.55m-500.72,38.9c-3.39,1.19-7.23,2.9-9.16,6.02,2.02,2.69,16.03-6.82,9.16-6.02M12.95,267.75c.22,10.29-1.57,20.66-.1,30.89,16.11,24,50.26,28.95,75.39,28-21.78-.43-43.82-9.06-57.52-26.52-8.84-9.1-6.83-25.91-17.77-32.37m53.36,42.54c14.81,8.76,36.26,6.51,53.31,6.68,1.54-.28,14.31-2.43,7.53-4.44-20.31-.03-40.65.29-60.84-2.24h0Z"/>
      <path class="cls-193" d="m325.43,13.2c41.43-7.87,82.73,14.52,112.93,42.33-7.9-2.83-15.75-5.99-22.98-10.28-3.55-1.81-7.32-3.13-11.03-4.56-24.73-14.14-53.47-15.88-78.92-27.49Z"/>
      <path class="cls-87" d="m280,18.97c8.16-.54,20.73-1.02,27.06,1.46-20.95-.18-41.07,5.98-61.55,9.25,9.62-6.11,22.98-8.09,34.49-10.71Z"/>
      <path class="cls-28" d="m189.05,65.65c51.96-30.53,117.95-46.79,176.56-26.93-5.9.21-15.55,2.88-18.09-3.65-35.43-6.46-69.6,9.43-104.23,12.25-18.88,3.64-36.24,12.67-54.25,18.33Z"/>
      <path class="cls-215" d="m243.3,47.32c34.63-2.82,68.8-18.71,104.23-12.25,2.54,6.53,12.19,3.86,18.09,3.65,1.32-.23,2.56.45,3.8.85,14.69,5.48,29.16,11.7,43,19.08-.1,4.62-1.77,9.44-.61,14.05,17.22,10.56,34.38,22.59,45.95,39.47,2.37,3.51-4.86,4.16-3.32,7.82,13.27,10.61,26.55,23.64,44.46,24.87,13.18,4.77,29.69-.54,40.32,10.74,9.43,9.04,4.18,26.03-7.48,30.33-18.12,6.88-37.05-1.88-55.02-4.33-4.78,3.33-10.45,2.3-15.91,2.68-5.37-2.75-.91-11.16-6.55-13.78-16.48-10.05-29.33-24.96-45.43-35.35-23.35.15-48.19,2.78-69.78,11.19,12.95,8.52,29.93-.34,43.24,6.58-2.81,14.09,14.04,14.34,23.27,10.69-3.22,2.24-6.77,6.85.68,7.02-10.27,9.77-29.08,7.06-39.83,18.15-7.08-7.65-28.45,2.2-19.06,11.89-22.35,3.45-41.87,16.99-65.42,15.23,1.87,7.53,9.84,16.97,3.03,25.84-8.17,9.86,13.88,5.27,17.11,11.02-.15,8.52-2.93,16.89-2.39,25.46,15.07-.6,30.58-2.93,44.67-8.6,5.54-1.47,10.38-4.56,15.06-7.77,35.62-13.35,68.58-34.58,103.69-48.15,4.93,4.26-2.86,16.45,7.31,10.81-5.26,11.88-11.73,23.93-24.16,29.85-41.59,32.49-90.64,63.93-145.82,61.17-40.45-1.28-79.12-14.51-118.08-23.98,2.42-3.9,14.44-15.51,2.03-12.16-5.79-1.45-11.47-.59-17.16.58-28.64.12-56.71,8.75-85.22,9.06-16.08-.18-24.02-25.75-40.75-15.67-2.38-.96-3.04-5.83-2.83-8.6,9.21-10.19,18.84-19.99,27.83-30.39-4.98,9.93-12.27,18.43-17.72,28.06,3.14,2.27,3.75,8.98,8.53,7.59,13.34-3.81,27.22-2.2,40.72-.27,5.53,2.58,1.53,13.35,6.58,15.82,4.45.44,9.03-2.63,9.82-7.11,20.5-8.17,44.3-4.7,65.23-2.82,3.72-6.47,10,.02,15.24-.16-4.96,5.62,1.67,5.32,6.32,5.08,14.44,6,30.24,10.88,45.85,12.45,39.21,9.82,85.58,15.91,120.92-8.16,17.68-11.11,36.36-19.9,55.08-28.85,4.83-5.51,20.37-6.79,14.72-16.97-8.32-1.49-19.23-2.77-25.93,4.73-8.7,13.44-27.5,13.81-38.78,23.33-16.27,5.67-32.54,11.87-49.72,14-15.64,6.94-32.03-4.02-47.84,1.07-2.9-1.97.8-6.17,4.2-4.81,4.94-.2,11.15-.43,13.36-5.67,9.21-7.59-5.62-9.23-9.76-14-8.61,2.36-17.57,1.35-26.11-1.04,1.98-3.26,25.13-3.41,21.67-10.24-9.34-2.93,7.14-11.19,1.62-17.5-.72-7.28-14.24-11.34-1.05-13.49-6.12-7.81-22.31-3.53-31.63-5.07-4.64-2.47-10.56-4.3-15.18-.85-3.75-1.82-17.43-1.9-6.51-4.76,14.12,1.1,25.95-8.21,40.02-8.13,5.27,12.11,30.43,13.61,33.84-1.04,19.76.56,37.67-7.22,55.97-13.04,3.38-.56,14.61.26,10.65-5.96-5.21-5.01,4.44-9.09,6.15-13.14-6.91-2.83-11.03-11.08-19.19-9.57-2.98.31-11.35-3.44-9.66,2.54-7.47-2.33-20.4.45-24.33-6.69,8.34-6.19,19.91-4.77,28.44-10.8,4.2-3.82,9.71.38,14.32-1.59,22.79-11.13,51.42-11.36,69.37,7.94-1.2,7.06,4.52.35,6.6,3.56,7.77,13.51,19.86,23.3,34.37,28.64,12.4.95,25.15,2.13,36.6,6.64,15.26,4.82,16.83-14.92,15.94-25.05-3.37-2.45-10.12-7.36-11.93-.81-19.35-7.75-42.69-4.33-59.31-18.12-4.09-8.17-15.93-10.63-17.21-20.46,4.22-5.15,11.71,1.33,16.83.98-1.18-4.55-6.23-5.94-8.91-9.38-1.6-1.69-3.35-3.21-5.1-4.71-1.38-3.76,2.65-7.73,1.19-11.16-8.84-6-19.75-8.31-29.16-13.19.26-20.24-25.44-18.2-39.57-23.31,6.14-22.48-24.13-10.27-33.11-20.85-82.43-7.73-160.88,40.95-208.29,105.54-1.37,8.7-4.08,16.91-7.94,24.87-.69,1.06-1.39,2.11-2.08,3.18-4.24,3.55-4.25,9.64-5.08,14.64.21-4.89-6.43-.43-8.96-2.33,10.14-7.85,15.32-19.74,20.93-30.8-1.72-4.28-10.29-.46-14.96-.72,19.62-27.01,38.14-55.34,63.11-77.82,4.01-3.7,9.55-5.27,13.64-8.94,18.01-5.66,35.37-14.69,54.25-18.33h0Z"/>
      <path class="cls-132" d="m130.39,143.57c47.42-64.59,125.87-113.27,208.29-105.54,8.98,10.58,39.25-1.63,33.11,20.85,14.13,5.11,39.83,3.07,39.57,23.31,9.41,4.88,20.32,7.19,29.16,13.19,1.46,3.43-2.57,7.4-1.19,11.16-.59,6.32-.93,6.7,5.1,4.71-.64,10.5-22.09-.91-29.47,8.38-9.41,5.36-12.2-4.49-4.47-8.17-20.63-10.84-51.02-22.57-69.88-4.57-4.38,5.83,7.14,15.64-1.3,19.5-25.96,10.25-50.15,24.41-73.76,39.18-1.34,1.36-4.95,2.37-3.78,4.75,32.4,7.31,65.5-6.05,97.96-3.33,1.74,3.59,1.95,8.53,6.62,9.57,3.96,6.22-7.27,5.4-10.65,5.96-34.94,6.57-69.3-7.08-104.06-7.21-2.68-10.88-5.39-21.94-5.11-33.18-2.35-4.19-6.22.18-6.14,3.46-1.37,15.74-17.08,24.21-22.97,37.88,1.07,4.22,11.52,2.46,6.3,8.34-9.72,5.26-26.01,2.95-29.16,16.5,12.22-.86,24.42.9,36.4,3.11-.16,3.46,1.01,6.75,2.07,10-13.9.69-27.03,5.13-39.53,10.9-4.57-4.25-5.18-11.4-9.75-15.54-9.87-.38-15.67,9.08-21.81,15.48-6.03-.8,1.4-10.53-.96-14.38-5.8-12.17,18.95-1.6,13.45-12.39-4.06-10.3-10.08,3.09-16.76-1.82-11.35,12.33-7.8,27.27-5.56,42.34-4.1,7.21-16.84,4.31-21.42,11.85-4.23,7.81-9.77,14.82-16.52,20.6-3.5,2.04-7.34,3.77-9.82,7.11-5.05-2.47-1.05-13.24-6.58-15.82-13.5-1.93-27.38-3.54-40.72.27-4.78,1.39-5.39-5.32-8.53-7.59,5.45-9.63,12.74-18.13,17.72-28.06,7.4-10.85,19.38-16.55,31.56-20.39,6.03-8.96,11.97-18.34,17.48-27.72.83-5,.84-11.09,5.08-14.64,1.75,15.28-9.32,24.98-16.01,36.97-3.78,7.22,7.38,11.08,5.56,18.38-4.92,3.17-10.36-3.15-15.73-.7-18.03,4.71-27.96,23.11-41.01,34.97,8.04,7.12,24.56-7.99,30.72,2.9,3.33,2.03,15.74-5.14,4.47-3.61-13.6,1.71,10.88-10.67,7.66-1.11,4.64,3.77,12.81,11.43,17.39,1.98,13.04-1.7,25.25-11.86,20.26-26.16,13.36-9.67,13.75-29.25,25.95-40.37,5.29-.36,9.84,6.71,14.75.9,13.41-14.41,28.4-27.23,43.83-39.45,11.64-8.18,24.72-16.41,29.3-30.63,15.47-10.75,35.24-11.43,52.76-17.12-7.92,16.05,26.88,15.99,21.48.79-9.3-3.86,3.66-1.75,7.15-3.45,4.68,6.86,12.62,1.84,8.91-6.03,19.7-12.44,44.66-4.64,67-7.02,8.58-3.02,4.66-14.59-2.91-15.99-19.38-6.18-33.76-18.47-53.07-21.81-6.65-1.08-1.07-11.62-8.37-12.77-25.58.64-51.94,1.88-76.46,9.99-2.94.16-5.83.1-8.61,1.03-30.4,8.17-54.72,29.59-80.13,47.01-15.72,15.75-33.93,30.49-44.7,50.03,11.24,4.05-2.16,14.68-8.11,18.09,3.86-7.96,6.57-16.17,7.94-24.87h0Z"/>
      <path class="cls-68" d="m369.36,39.57c11.16-1.58,25.48,5.41,34.93,1.12,3.71,1.43,7.48,2.75,11.03,4.56-3.32,3.39-1.81,9.22-2.96,13.4-13.84-7.38-28.31-13.6-43-19.08h0Z"/>
      <path class="cls-146" d="m264,52.28c24.52-8.11,50.88-9.35,76.46-9.99,7.3,1.15,1.72,11.69,8.37,12.77,19.31,3.34,33.69,15.63,53.07,21.81,7.57,1.4,11.49,12.97,2.91,15.99-22.34,2.38-47.3-5.42-67,7.02,3.71,7.87-4.23,12.89-8.91,6.03-3.49,1.7-16.45-.41-7.15,3.45,5.4,15.2-29.4,15.26-21.48-.79-17.52,5.69-37.29,6.37-52.76,17.12-4.58,14.22-17.66,22.45-29.3,30.63-15.43,12.22-30.42,25.04-43.83,39.45-4.91,5.81-9.46-1.26-14.75-.9-12.2,11.12-12.59,30.7-25.95,40.37,4.99,14.3-7.22,24.46-20.26,26.16-4.58,9.45-12.75,1.79-17.39-1.98,3.22-9.56-21.26,2.82-7.66,1.11,11.27-1.53-1.14,5.64-4.47,3.61-6.16-10.89-22.68,4.22-30.72-2.9,13.05-11.86,22.98-30.26,41.01-34.97,5.37-2.45,10.81,3.87,15.73.7,1.82-7.3-9.34-11.16-5.56-18.38,6.69-11.99,17.76-21.69,16.01-36.97.69-1.07,1.39-2.12,2.08-3.18,5.95-3.41,19.35-14.04,8.11-18.09,10.77-19.54,28.98-34.28,44.7-50.03,25.41-17.42,49.73-38.84,80.13-47.01-3.7,3.04-.55,6.79,1,10.06-13.1-3.75-23.06,9.55-35.56,8.02,3.03,5.25-.46,4.94-4.87,4.55-17.68,12.14-36.72,23.86-47.49,42.61-6.6,9.92-17.38,16.32-23.34,26.78-2.71,13.04-14.82,21.02-19.64,32.99,6.29,3.84-.37,8.12,2.29,14.08-6.13,6.91,3.25,14.24,8.44,18.25-5.13-6.47,5.83-5.99,9.56-7.62,2.84-1.08,1.26-6.93,4.68-7.11,8.11,2.06,4.9-11.58,13.08-11.5,8.48.8,23.5-4.41,15.07-14.83,21.16-12.6,38.53-30.57,60.03-42.79,7.93-7.4,17.34-13.93,28.6-14.59,17-.41,29.57-20.29,47.63-13.88,13.48-10.5,35.33-.26,46.27-16.31-4.41-2.3-11.34-3.01-14.99-7.78-1.44-6.27-.3-14.34-5.94-18.79-25.87,3.61-50.39,4.19-76.21-3.17h0Z"/>
      <path class="cls-105" d="m255.39,53.31c2.78-.93,5.67-.87,8.61-1.03,25.82,7.36,50.34,6.78,76.21,3.17,5.64,4.45,4.5,12.52,5.94,18.79,3.65,4.77,10.58,5.48,14.99,7.78-10.94,16.05-32.79,5.81-46.27,16.31-18.06-6.41-30.63,13.47-47.63,13.88-11.26.66-20.67,7.19-28.6,14.59-21.5,12.22-38.87,30.19-60.03,42.79,8.43,10.42-6.59,15.63-15.07,14.83-8.18-.08-4.97,13.56-13.08,11.5-3.42.18-1.84,6.03-4.68,7.11-3.73,1.63-14.69,1.15-9.56,7.62-5.19-4.01-14.57-11.34-8.44-18.25-2.66-5.96,4-10.24-2.29-14.08,4.82-11.97,16.93-19.95,19.64-32.99,5.96-10.46,16.74-16.86,23.34-26.78,10.77-18.75,29.81-30.47,47.49-42.61,4.41.39,7.9.7,4.87-4.55,12.5,1.53,22.46-11.77,35.56-8.02-1.55-3.27-4.7-7.02-1-10.06Z"/>
      <path class="cls-102" d="m412.36,58.65c17.07,4.63,29.83,17.13,44.05,26.75,11.95,5.84,21.82,15.52,27.08,27.8,13.88,10.78,29.12,21.88,47.3,23.78,13.82.69,23.38,11.83,32.93,20.46,2.05,11.42.25,24.29-6.17,34.3-11.07,7.99-25.56,10.6-38.98,9.44-20.39-5.14-31.91,17.19-44.46,29.12-7.82,18.64-17.07,37.89-33.98,50.04-25.34,13.79-49.39,31.02-77.53,38.66-27.32.79-54.58,4.23-81.87,4.14-26.12-2.59-55.94,5.32-79.44-9.62,3.72-.97,11.31-4.4,6.72-8.76-10.81-1.85-24.12-3.14-29.84-14.15,2.97-3.23,6.5-6.46,6.15-11.22,12.41-3.35.39,8.26-2.03,12.16,38.96,9.47,77.63,22.7,118.08,23.98,55.18,2.76,104.23-28.68,145.82-61.17,12.43-5.92,18.9-17.97,24.16-29.85-10.17,5.64-2.38-6.55-7.31-10.81-35.11,13.57-68.07,34.8-103.69,48.15,5.56-3.6,7.29-16.42-2.94-12.58-6.43,8.69-17.99,5.44-25.89,10.45-4.23,7.84,8.14,9.93,13.77,9.9-14.09,5.67-29.6,8-44.67,8.6-.54-8.57,2.24-16.94,2.39-25.46-3.23-5.75-25.28-1.16-17.11-11.02,6.81-8.87-1.16-18.31-3.03-25.84,23.55,1.76,43.07-11.78,65.42-15.23,8.85,3.16,19.93-1.32,19.06-11.89,10.75-11.09,29.56-8.38,39.83-18.15-7.45-.17-3.9-4.78-.68-7.02,9.3-10.19-17.88-16.57-23.27-10.69-13.31-6.92-30.29,1.94-43.24-6.58,21.59-8.41,46.43-11.04,69.78-11.19,16.1,10.39,28.95,25.3,45.43,35.35,5.64,2.62,1.18,11.03,6.55,13.78,5.46-.38,11.13.65,15.91-2.68,17.97,2.45,36.9,11.21,55.02,4.33,11.66-4.3,16.91-21.29,7.48-30.33-10.63-11.28-27.14-5.97-40.32-10.74-17.91-1.23-31.19-14.26-44.46-24.87-1.54-3.66,5.69-4.31,3.32-7.82-11.57-16.88-28.73-28.91-45.95-39.47-1.16-4.61.51-9.43.61-14.05m4.7,147.06c-14.55,7.39,10.29,17.73,16.68,8.03,6.86-10.33-11.69-8.5-16.68-8.03Z"/>
      <path class="cls-61" d="m86.46,151.69c29.61-25.82,53.9-58.15,88.95-77.1-24.97,22.48-43.49,50.81-63.11,77.82l-.86.15c-7.65-1.07-18.71,1.83-24.98-.87h0Z"/>
      <path class="cls-18" d="m340.62,106.89c18.86-18,49.25-6.27,69.88,4.57-7.73,3.68-4.94,13.53,4.47,8.17,7.38-9.29,28.83,2.12,29.47-8.38,2.68,3.44,7.73,4.83,8.91,9.38-5.12.35-12.61-6.13-16.83-.98,1.28,9.83,13.12,12.29,17.21,20.46,16.62,13.79,39.96,10.37,59.31,18.12,1.81-6.55,8.56-1.64,11.93.81.89,10.13-.68,29.87-15.94,25.05-11.45-4.51-24.2-5.69-36.6-6.64-14.51-5.34-26.6-15.13-34.37-28.64-2.08-3.21-7.8,3.5-6.6-3.56-17.95-19.3-46.58-19.07-69.37-7.94-4.61,1.97-10.12-2.23-14.32,1.59-8.53,6.03-20.1,4.61-28.44,10.8,3.93,7.14,16.86,4.36,24.33,6.69-1.69-5.98,6.68-2.23,9.66-2.54,8.16-1.51,12.28,6.74,19.19,9.57-1.71,4.05-11.36,8.13-6.15,13.14-4.67-1.04-4.88-5.98-6.62-9.57-32.46-2.72-65.56,10.64-97.96,3.33-1.17-2.38,2.44-3.39,3.78-4.75,23.61-14.77,47.8-28.93,73.76-39.18,8.44-3.86-3.08-13.67,1.3-19.5h0Z"/>
      <path class="cls-113" d="m439.36,106.54c1.75,1.5,3.5,3.02,5.1,4.71-6.03,1.99-5.69,1.61-5.1-4.71Z"/>
      <path class="cls-10" d="m240.4,145.59c-.08-3.28,3.79-7.65,6.14-3.46-.28,11.24,2.43,22.3,5.11,33.18,34.76.13,69.12,13.78,104.06,7.21-18.3,5.82-36.21,13.6-55.97,13.04-9.74-3.35-26.42-10-33.84,1.04-14.07-.08-25.9,9.23-40.02,8.13-10.92,2.86,2.76,2.94,6.51,4.76-.35.48-1.07,1.45-1.42,1.93-11.98-2.21-24.18-3.97-36.4-3.11,3.15-13.55,19.44-11.24,29.16-16.5,5.22-5.88-5.23-4.12-6.3-8.34,5.89-13.67,21.6-22.14,22.97-37.88h0Z"/>
      <path class="cls-66" d="m382.26,152.92c5.39-5.88,32.57.5,23.27,10.69-9.23,3.65-26.08,3.4-23.27-10.69Z"/>
      <path class="cls-192" d="m112.3,152.41c4.67.26,13.24-3.56,14.96.72-5.61,11.06-10.79,22.95-20.93,30.8,2.53,1.9,9.17-2.56,8.96,2.33-5.51,9.38-11.45,18.76-17.48,27.72-12.18,3.84-24.16,9.54-31.56,20.39-8.99,10.4-18.62,20.2-27.83,30.39-8.28-26.95,14.36-52.9,39.78-57.45,25.95-6.98,20.99-36.53,33.24-54.75l.86-.15h0Z"/>
      <path class="cls-44" d="m579.56,154.92c17.5,5.16,6.96,33.89-8.02,36.55,5-11.57,9.1-23.66,8.02-36.55Z"/>
      <path class="cls-63" d="m347.35,200.67c-9.39-9.69,11.98-19.54,19.06-11.89.87,10.57-10.21,15.05-19.06,11.89Z"/>
      <path class="cls-62" d="m265.9,196.58c7.42-11.04,24.1-4.39,33.84-1.04-3.41,14.65-28.57,13.15-33.84,1.04Z"/>
      <path class="cls-82" d="m78.84,193.78c6.87-.8-7.14,8.71-9.16,6.02,1.93-3.12,5.77-4.83,9.16-6.02Z"/>
      <path class="cls-12" d="m157.68,203.67c6.68,4.91,12.7-8.48,16.76,1.82,5.5,10.79-19.25.22-13.45,12.39,2.36,3.85-5.07,13.58.96,14.38,6.14-6.4,11.94-15.86,21.81-15.48,4.57,4.14,5.18,11.29,9.75,15.54,12.5-5.77,25.63-10.21,39.53-10.9,4.65,9.18,25.31,8.46,22.82-4.02-2.83-2.31-6.71-3.56-8.29-7.06,9.32,1.54,25.51-2.74,31.63,5.07-13.19,2.15.33,6.21,1.05,13.49,5.52,6.31-10.96,14.57-1.62,17.5-30.26-6.47-68.2-.9-83.98,29.08-5.24.18-11.52-6.31-15.24.16-20.93-1.88-44.73-5.35-65.23,2.82,6.75-5.78,12.29-12.79,16.52-20.6,4.58-7.54,17.32-4.64,21.42-11.85-2.24-15.07-5.79-30.01,5.56-42.34m34.8,38.88c-7.85,11.76,18.75,16.17,15.79,3.16-5.12-1.66-10.52-2.34-15.79-3.16Z"/>
      <path class="cls-77" d="m417.16,205.67c4.99-.47,23.54-2.3,16.68,8.03-6.39,9.7-31.23-.64-16.68-8.03Z"/>
      <path class="cls-73" d="m232.39,209.47c4.62-3.45,10.54-1.62,15.18.85,1.58,3.5,5.46,4.75,8.29,7.06,2.49,12.48-18.17,13.2-22.82,4.02-1.06-3.25-2.23-6.54-2.07-10,.35-.48,1.07-1.45,1.42-1.93h0Z"/>
      <path class="cls-11" d="m411.56,243.77c6.7-7.5,17.61-6.22,25.93-4.73,5.65,10.18-9.89,11.46-14.72,16.97-18.72,8.95-37.4,17.74-55.08,28.85-35.34,24.07-81.71,17.98-120.92,8.16-15.61-1.57-31.41-6.45-45.85-12.45,15.99,4.94,37.11-7.24,30.86-25.6,14.73-2.87,34.85,2.18,46.8-8.56,3.46,6.83-19.69,6.98-21.67,10.24,8.54,2.39,17.5,3.4,26.11,1.04,4.14,4.77,18.97,6.41,9.76,14-3.7-7.47-16.94-12.5-23.4-6.93-4.87,7.65,4.28,11.33,10.04,12.6-3.4-1.36-7.1,2.84-4.2,4.81,15.81-5.09,32.2,5.87,47.84-1.07,17.18-2.13,33.45-8.33,49.72-14,11.28-9.52,30.08-9.89,38.78-23.33h0Z"/>
      <path class="cls-101" d="m192.48,242.57c5.27.82,10.67,1.5,15.79,3.16,2.96,13.01-23.64,8.6-15.79-3.16Z"/>
      <path class="cls-183" d="m194.65,275.47c15.78-29.98,53.72-35.55,83.98-29.08-11.95,10.74-32.07,5.69-46.8,8.56,6.25,18.36-14.87,30.54-30.86,25.6-4.65.24-11.28.54-6.32-5.08h0Z"/>
      <path class="cls-75" d="m356.46,249.27c10.23-3.84,8.5,8.98,2.94,12.58-4.68,3.21-9.52,6.3-15.06,7.77-5.63.03-18-2.06-13.77-9.9,7.9-5.01,19.46-1.76,25.89-10.45Z"/>
      <path class="cls-99" d="m269.43,264.77c6.46-5.57,19.7-.54,23.4,6.93-2.21,5.24-8.42,5.47-13.36,5.67-5.76-1.27-14.91-4.95-10.04-12.6h0Z"/>
      <path class="cls-8" d="m12.95,267.77c10.94,6.46,8.93,23.27,17.77,32.37,13.7,17.46,35.74,26.09,57.52,26.52-25.13.95-59.28-4-75.39-28-1.47-10.23.32-20.6.1-30.89Z"/>
      <path class="cls-152" d="m41.25,273.37c16.73-10.08,24.67,15.49,40.75,15.67,28.51-.31,56.58-8.94,85.22-9.06-6.32,5.65-20.21,6.65-18.75,17.58-21.41,9.34-46.38,5.63-69.3,4.17-16.5-.5-33.44-12.27-37.92-28.36Z"/>
      <path class="cls-9" d="m104.36,285.57c2.48-3.34,6.32-5.07,9.82-7.11-.79,4.48-5.37,7.55-9.82,7.11Z"/>
      <path class="cls-150" d="m66.31,310.27c20.19,2.53,40.53,2.21,60.84,2.24,6.78,2.01-5.99,4.16-7.53,4.44-17.05-.17-38.5,2.08-53.31-6.68h0Z"/>
      <path class="cls-232" d="m231.67,14.63C263.53,5.55,297,.5,330.12.74c6.04.5,12.15.94,18.26.77C395.54,0,436.38,30.72,466.61,64.23c17.46,13.73,24.32,38.57,45.29,47.82,34.46,1.73,69.65,15.04,90.16,43.85,4.91,21.96-14.5,46.39-37.07,47.15-18.23,5.11-36.47,9.95-55.56,9.38-28.15,52.58-71.12,111.41-135.8,117.21-13.92,6.48-28.72,11.72-44.26,11.85-14.03,0-28.04-.1-42.05-.03-40.51.02-85.52-2.56-117.8-30.18-9.69-10.41-17.55,7.45-27.2,9.16-22.52,5.05-42.68,22.04-66.94,16.08-26.49-3.78-58.91-7.98-72.94-34.27-11-48.24,21.51-101.75,68.89-115.87-8.84-10.19,3.84-21.65,9.88-30.06,17.76-29.8,36.14-60.36,62.14-83.85,27.99-21.52,56.29-42.72,88.31-57.84m93.75-1.44c25.47,11.65,54.23,13.35,78.97,27.52-9.61,4.56-23.09-3.16-34.09-.83h-.82c-2.15-1.27-4.6-2.13-7.12-1.99-3.61-2.2-7.85-2.89-11.91-3.71-3.81-1.99-9.14-2.17-13.65-2.84-4.79-.48-9.63-.84-14.41-.87-7.64-1.78-22.3-1.74-29.93.01-35.83,5.95-72.53,15.13-103.43,35.19-1.56.04-2.03,1.75-2.53,2.93-4.61,1.05-8.78,3.64-12.09,6.96-8.25,5.04-18.14,9.14-24.19,16.69-3.16,2.06-7.03,3.82-8.8,7.3-7.01,4.17-12.56,11.4-18.41,17.31-2.33.92-4.14,2.95-5.35,5.1-10.09,9.28-19.21,19.56-29.46,28.67-6.75,3.9,12.01,1.24,14.32,1.68,3.03-.12,6.15.16,9.26.2-8.11,12.06-9.65,26.61-14.42,39.86-10.19,18.45-35.15,14.09-46.8,30.31-11.65,9.12-15.49,24.55-12.69,38.75-.16,5.84-7.02,7.98-8.5,12.89,3.62-.5,7.36-.79,10.79-2.17.21.34.63,1.02.85,1.36,5.19,15.84,21.48,27.76,38.16,28.23,22.92,1.42,47.87,5.13,69.31-4.17-1.42-10.06,10.82-11.5,16.99-16.4,1.86.02,3.34-1.43,4.88-2.31,4.65.04,9.28-.16,13.94.51,1.07,6.69-10.46,10.89-2.26,16.18,6.88,7.52,17.88,6.85,26.72,9.67,3.02,4.94-3.94,7-7.44,8.31,17.76,10.95,40.04,10.2,60.11,8.85,33.77,2.52,67.46-2.17,101.2-3.39,24.74-6.72,46.64-20.88,68.6-33.66,21.88-10.19,34.37-32.88,42.39-54.62,13.03-11.82,24.27-34.68,45.01-29.55,13.13,1.04,27.46-1.1,38.24-9.16,7.63-9.44,8.69-23.12,6.9-34.52-10.61-10.63-22.83-22.12-39.11-21.01-19.4-6.82-39.82-17.06-48.96-36.29-19.4-14.99-38.62-31.59-61.54-41.22-.36-.13-1.09-.41-1.46-.55.11-4.48.24-9.2,2.63-13.17,7.29,4.2,15.09,7.54,23.06,10.26-30.32-27.77-71.42-50.16-112.96-42.31m-45.4,5.81c-11.55,2.58-24.78,4.49-34.53,10.7,20.45-3.35,40.56-9.34,61.48-9.31-6.04-2.52-18.86-1.86-26.95-1.39m299.68,135.98c.59,12.81-2.99,24.95-8.17,36.5,15.23-2.62,25.22-31.67,8.17-36.5m-500.84,38.85c-3.28,1.24-7.52,2.72-9.04,6.05,1.59,2.59,15.91-6.88,9.04-6.05M12.91,267.74c.24,10.28-1.46,20.62-.05,30.86,14.87,22.98,44.25,26.16,69.08,29.14,9.29,4.23,16.18-3.1,2.6-.98-20.42-1.77-40.91-10.06-53.81-26.64-8.86-9.1-6.8-25.99-17.82-32.38m53.57,43.38c19.72,7.06,42.95,8.87,63.18,3.13-.36-.21-1.09-.62-1.45-.82-6.51-3.32-20.47.25-29.09-.68-10.54-.15-23.99-2.46-32.64-1.63h0Z"/>
      <path class="cls-65" d="m330.12.74c5.1,1.06,14.94-2.71,18.26.77-6.11.17-12.22-.27-18.26-.77Z"/>
      <path class="cls-193" d="m325.42,13.19c41.54-7.85,82.64,14.54,112.96,42.31-7.97-2.72-15.77-6.06-23.06-10.26-3.51-1.83-7.24-3.14-10.93-4.53-24.74-14.17-53.5-15.87-78.97-27.52h0Z"/>
      <path class="cls-87" d="m280.02,19c8.09-.47,20.91-1.13,26.95,1.39-20.92-.03-41.03,5.96-61.48,9.31,9.75-6.21,22.98-8.12,34.53-10.7Z"/>
      <path class="cls-58" d="m292.46,30.48c7.63-1.75,22.29-1.79,29.93-.01-9.99.05-19.96,0-29.93.01Z"/>
      <path class="cls-57" d="m189.03,65.67c30.9-20.06,67.6-29.24,103.43-35.19,9.97-.01,19.94.04,29.93-.01,4.78.03,9.62.39,14.41.87-1.15.9-2.56,1.38-3.7,2.28-3.13.21-6.1.59-9.17.75-10.63.07-21.42.75-31.55,4.18-30.82,8.27-63.84,7.8-92.49,23.73-3.55,1.35-7.04,2.96-10.86,3.39Z"/>
      <path class="cls-149" d="m336.8,31.34c4.51.67,9.84.85,13.65,2.84-.89,1.07-1.62,2.24-2.36,3.42-1.84-6.1-10.49-2.41-14.99-3.98,1.14-.9,2.55-1.38,3.7-2.28h0Z"/>
      <path class="cls-33" d="m323.93,34.37c3.07-.16,6.04-.54,9.17-.75,4.5,1.57,13.15-2.12,14.99,3.98l.37.75c4.07,4.72,14.55-.01,21.02,1.54h.82c4.87,1.41,9.47,3.59,14.06,5.75-5.67.98-11.36,1.38-16.6-1.22-2.53-.04-5.04-.01-7.51.11h-.87c-5.36-.67-10.6-1.72-15.96-2.13-.06-1.98-.52-3.83-2.66-4.34-4.75-3.53-10.85-3.25-16.44-2.82l-.39-.87h0Z"/>
      <path class="cls-3" d="m292.38,38.55c10.13-3.43,20.92-4.11,31.55-4.18l.39.87c-2.94-.15-24.93.96-10.06,2.56-6.39.67-12.8.48-19.2.56-.67.05-2.01.14-2.68.19Z"/>
      <path class="cls-42" d="m324.32,35.24c5.59-.43,11.69-.71,16.44,2.82-.46.01-1.36.03-1.82.04-7.86-1.23-16.01-2.75-23.79-.32l-.89.02c-14.87-1.6,7.12-2.71,10.06-2.56Z"/>
      <path class="cls-1" d="m348.09,37.6c.74-1.18,1.47-2.35,2.36-3.42,4.06.82,8.3,1.51,11.91,3.71-4.67.13-9.26.56-13.9.46l-.37-.75h0Z"/>
      <path class="cls-111" d="m315.15,37.78c7.78-2.43,15.93-.91,23.79.32-7.94.48-15.91.76-23.79-.32Z"/>
      <path class="cls-129" d="m295.06,38.36c6.4-.08,12.81.11,19.2-.56l.89-.02c7.88,1.08,15.85.8,23.79.32.46-.01,1.36-.03,1.82-.04,2.14.51,2.6,2.36,2.66,4.34-27.55-2.47-56.79,1.9-83.3,9.81-1.16.08-2.3.2-3.43.35-29.81,5.32-53.33,27.32-77.96,43.28,9.28-12.34,24.05-18.7,35.51-28.52,5.63-3.09,11.41-5.88,17.2-8.68,8.56-3.98,17.15-7.98,26.16-10.88,12.4-3.47,25.22-5.39,37.46-9.4h0Z"/>
      <path class="cls-147" d="m362.36,37.89c2.52-.14,4.97.72,7.12,2-6.47-1.55-16.95,3.18-21.02-1.54,4.64.1,9.23-.33,13.9-.46Z"/>
      <path class="cls-21" d="m199.89,62.28c28.65-15.93,61.67-15.46,92.49-23.73.67-.05,2.01-.14,2.68-.19-12.24,4.01-25.06,5.93-37.46,9.4-10.06.09-19.45,4.02-29.14,5.87,4.91-1.04,5.56,2.41,2.98,5.01-5.79,2.8-11.57,5.59-17.2,8.68-5.09,1.55-9.65,4.3-14.02,7.27-13.1,7.65-31.55,10.34-39.79,23.63-1.94-.25-3.06-2.37-4.42-3.61,2.27-3.09,4.42-6.67,8.18-8.08,2.2,4.6,7.31-1.2,3.26-3.08,2.32-2.63,4.6-5.3,6.96-7.89,3.31-3.32,7.48-5.91,12.09-6.96,3.38-.8,6.65-1.98,9.96-2.99,3.41,6.47-16.53,7.22-9.8,11.71,6.34-2.04,21.88-6.92,13.23-15.04h0Z"/>
      <path class="cls-70" d="m370.26,39.88c11-2.33,24.48,5.39,34.09.83,3.69,1.39,7.42,2.7,10.93,4.53-2.39,3.97-2.52,8.69-2.63,13.17l-.85.24c-1.13-.82-2.28-1.58-3.45-2.27-7.61-4.39-15.76-7.79-24.03-10.74-4.59-2.16-9.19-4.34-14.06-5.76h0Z"/>
      <path class="cls-162" d="m260.12,52.21c26.51-7.91,55.75-12.28,83.3-9.81l.15.76c-1.25,15.22,15.61,13.24,25.82,16.25,8.55,10.97,27.01,12.39,38.76,21.06,2.26,4.02,3.45,10.26-2.16,12.1-22.46,4.05-48.26-5.48-67.89,7.38,3.35,15.71-12.54,4.47-20.8,7.21-1.31-.4-2.57-.95-3.91-1.15,8.76,1.81,9.83-11.08,19.01-6.18,18.81-11.17,43.58-9.72,65.64-9.67,3.2-.01,12.6-.3,9.83-6.02-11.29-12.35-30.49-11.32-42.53-22.61-6.54-1.33-13.38-1.71-19.58-4.34-5.41-2.69-.6-10.72-6.41-13.15-23.94.23-48.51,1.84-71.85,8.59-2.49-.19-4.95-.33-7.38-.42Z"/>
      <path class="cls-137" d="m343.42,42.4c5.36.41,10.6,1.46,15.96,2.14-5.33.48-10.9,1.18-15.81-1.38l-.15-.76Z"/>
      <path class="cls-126" d="m267.5,52.63c23.34-6.75,47.91-8.36,71.85-8.59,5.81,2.43,1,10.46,6.41,13.15,6.2,2.63,13.04,3.01,19.58,4.34,12.04,11.29,31.24,10.26,42.53,22.61,2.77,5.72-6.63,6.01-9.83,6.02-22.06-.05-46.83-1.5-65.64,9.67-9.18-4.9-10.25,7.99-19.01,6.18-4.74-.89-9.36-.02-12.91,3.29-2.04-.33-4.11-.28-6.13,0-12.01,1.04-23.49,5.47-35.71,5.16,21.19,3.48,34.7-22.07,55.45-15.01,9.97-10.5,26.1-3.34,37.41-9.76,12.77-4.79,26.27-.98,39.23-4.72-4.66-7.45-14.52-5.09-20.05-10.94-7.24-5.95-14.84-6.39-21.3-.7-2.7-10.89-8.34-25.85-22.76-20.15-18.31-4.95-36.29,2.54-54.85.38-1.43-.35-2.83-.78-4.27-.93h0Z"/>
      <path class="cls-140" d="m343.57,43.16c4.91,2.56,10.48,1.86,15.81,1.38h.87c8.33.27,6.79,9.17,9.14,14.87-10.21-3.01-27.07-1.03-25.82-16.25Z"/>
      <path class="cls-170" d="m360.26,44.53c2.47-.12,4.98-.15,7.51-.11,4.39,3.52,2.04,9.75,2.42,14.68l-.79.31c-2.35-5.7-.81-14.6-9.14-14.88Z"/>
      <path class="cls-108" d="m367.76,44.42c5.24,2.6,10.93,2.2,16.6,1.22,8.27,2.95,16.42,6.35,24.03,10.74-8.75,5.7-13.27-6.71-21.35-1.25-5.15.24-17.11-7.32-15.52,2.94,11.65,3.63,26.54,3.76,35.53,12.53l-.78-.16-.77-.16c-10.36-5.19-21.58-8.45-33.04-9.97-.57-.31-1.71-.91-2.28-1.21-.38-4.93,1.97-11.16-2.42-14.68h0Z"/>
      <path class="cls-205" d="m228.46,53.63c9.69-1.85,19.08-5.78,29.14-5.87-9.01,2.9-17.6,6.9-26.16,10.88,2.58-2.6,1.93-6.05-2.98-5.01h0Z"/>
      <path class="cls-106" d="m271.77,53.56c18.56,2.16,36.54-5.33,54.85-.38,14.42-5.7,20.06,9.26,22.76,20.15,6.46-5.69,14.06-5.25,21.3.7,5.53,5.85,15.39,3.49,20.05,10.94-12.96,3.74-26.46-.07-39.23,4.72,6.21-2.93,3.82-9.63-2.42-10.19-9.63-2.74-.09-19.76-9.77-22.74-18.94,6.61-42.06,1.26-57.65,15.22-5.69,3.78-14.18,1.38-16.14-5.5,6.65,1.96,26.27,1.46,21.21-8.06-4.92-1.87-9.95-3.31-14.96-4.86h0Z"/>
      <path class="cls-160" d="m178.73,95.84c24.63-15.96,48.15-37.96,77.96-43.28-1.26.98-2.46,2.03-3.66,3.07-26.07,8.03-48.23,24.52-69.6,40.9-18.36,14.78-36.52,30.64-49.24,50.72-2.47,3.96,5.46,2.44,5.17,6.02-8.78,10.48-17.17,21.7-20.22,34.99-3.44,4.12-5.68,9.16-4.02,14.67-6.13-2.03-5.26,3.97.07,4.15-3.53,6.04-3.98,14.02-5.54,2.28-7.85,5.65,2.91,12.31,3.95,18.86.74,6.65,13.44,5.08,11.14,12.09-14.98-2.93-26.84,8.6-41.26,6.82-6.54,1.1-10.68,7.33-14.97,11.91,7.58,1.24,15.31-.75,21.83-4.72,10.04-7.47,6.56,16.04,19.37,9.92,3.95-7.13,12.83-9.19,20.44-7.77l-.02.77c-4.99,2.02-9.69,5.45-15.33,4.82-3.15,7.48-13.65,8.43-15.89-.5-14.97,3.19-30.5,2.27-45.94,1.36.24-11.04,15.21-16.45,20.48-25.35,7.62-10.47,22.39-16.48,34.95-13.22-1.3-6.03-7.89-10.26-5.2-16.99,3.6-4.94,6.55-10.31,9.28-15.76.81-1.26,1.68-2.47,2.36-3.8.68-1.72,1.16-3.51,1.54-5.3.9-3.23,1.59-6.51,2.12-9.82.96-.96,1.94-1.91,2.9-2.88,2.39-2.65,17.28-14.93,7.96-15.32-.1-10.89,9.86-18.08,15.86-25.99.24-.26.71-.79.95-1.06,9.11-7.37,16.04-16.88,24.34-25.07,2.95-1.89,5.64-4.15,8.22-6.52h0Z"/>
      <path class="cls-85" d="m256.69,52.56c1.13-.15,2.27-.27,3.43-.35,2.43.09,4.89.23,7.38.42,1.44.15,2.84.58,4.27.93,5.01,1.55,10.04,2.99,14.96,4.86-2.63,13.44-22.73,6.06-31.28,2.1-.85-1.62-1.63-3.26-2.42-4.89,1.2-1.04,2.4-2.09,3.66-3.07h0Z"/>
      <path class="cls-11" d="m371.56,58.07c-1.59-10.26,10.37-2.7,15.52-2.94,8.08-5.46,12.6,6.95,21.35,1.25,1.17.69,2.32,1.45,3.45,2.27-.86,4.74-1.08,9.57-1.15,14.39-1.22-.84-2.43-1.65-3.64-2.44-8.99-8.77-23.88-8.9-35.53-12.53h0Z"/>
      <path class="cls-120" d="m183.43,96.53c21.37-16.38,43.53-32.87,69.6-40.9.79,1.63,1.57,3.27,2.42,4.89.26.51.79,1.52,1.05,2.03-13.06-1.93-23.06,9.75-35.56,8.89,4.38,8.32-7.66,1.63-10.54,8.09-27.9,15.03-42.51,42.31-64.19,63.89-3.34,13.67-15.1,22.51-20.8,34.93,6.16,4.68.86,13.88.23,20.58,3.15,4.1,5.9,9.05,10.49,11.77-5.63-8.66,10.94-3.89,11.57-10.88.18-6.36,7.98-1.38,8.52-7.49,1.31-7.64,9.48-9.33,16.11-8.78-3.58,4.76-9.38,6.38-13.71,10.08-4.46,5.17-9.66,10.64-10.42,17.75-6.41,9.12-9.37,20.4-19.77,26.07-6.02-5.16-14.23-9.17-16.18-17.61,11.17-7.4,7.4-20.62,6.89-31.58,3.05-13.29,11.44-24.51,20.22-34.99.29-3.58-7.64-2.06-5.17-6.02,12.72-20.08,30.88-35.94,49.24-50.72h0Z"/>
      <path class="cls-124" d="m281.66,71.98c15.59-13.96,38.71-8.61,57.65-15.22,9.68,2.98.14,20,9.77,22.74-1.17-.07-2.32-.07-3.47,0-.43.04-1.3.12-1.73.16-5.3-2.2-10.38-11.6-17.65-8.18-2.64,3.1-5.56-4.37-7-.08-3.12,10.53-16.64,10.73-25.44,8.2-.7-5.82,9.71-5.46,9.06-9.81-11.66-.67-21.44,10.26-33.13,6.72-9.57-11.25-28.01-10.45-39.02-1.92,3.01,5.65-1.6,5.33-4.24,1.38-3.82,2.56-14.01,1.09-9.33,7.77-7.72-2.3-23.08,3.43-14.79,12.73-7.55-3.31-13.61-1.73-8.87,6.68-6.02-3.97-10.96,2.98-13.48,7.79,11.65-4.13-4.17,5.67-6.87,9.3-10.57,13.2-34.23,24.55-27.61,43.54-13.47,1.34-2.24,16.76-16.95,13.92,9.29-.12,12.92,13.42,15.95,19.49,7.17-4.67,9.47-18.48,19.97-16.87,1.6.76,3.21,1.54,4.88,2.21.97.36,1.96.7,2.97,1.02-6.63-.55-14.8,1.14-16.11,8.78-.54,6.11-8.34,1.13-8.52,7.49-.63,6.99-17.2,2.22-11.57,10.88-4.59-2.72-7.34-7.67-10.49-11.77.63-6.7,5.93-15.9-.23-20.58,5.7-12.42,17.46-21.26,20.8-34.93,21.68-21.58,36.29-48.86,64.19-63.89,2.88-6.46,14.92.23,10.54-8.09,12.5.86,22.5-10.82,35.56-8.89,3,1.32,6.04,2.56,9.02,3.93,1.96,6.88,10.45,9.28,16.14,5.5h0Z"/>
      <path class="cls-148" d="m286.73,58.42c5.06,9.52-14.56,10.02-21.21,8.06-2.98-1.37-6.02-2.61-9.02-3.93-.26-.51-.79-1.52-1.05-2.03,8.55,3.96,28.65,11.34,31.28-2.1Z"/>
      <path class="cls-119" d="m411.86,58.65l.85-.24c.37.14,1.1.42,1.46.55-1.82,4.16-2.54,8.73-3.29,13.18l-.17.9c.07-4.82.29-9.65,1.15-14.39h0Z"/>
      <path class="cls-130" d="m369.36,59.41l.79-.31c.57.3,1.71.9,2.28,1.21,10.18,3.67,22.18,6.83,33.04,9.97l.77.16c5.42,2.65-1.35,6.22,1.88,10.03-11.75-8.67-30.21-10.09-38.76-21.06Z"/>
      <path class="cls-188" d="m410.86,72.14c.75-4.45,1.47-9.02,3.29-13.18,22.92,9.63,42.14,26.23,61.54,41.22,9.14,19.23,29.56,29.47,48.96,36.29-2.78,2.76-5.62,5.47-8.15,8.46,4.69-1,17.07,7.88,16.39-.1,14.26,7.85,18.59,32.79,2.93,42.37-1.79.5-9.06,4.63-6.35.24l2.04-1.08c20.41-7.06,13.15-37.68-6.91-38.22-5.05-.43-10.02-.47-15.03-.75-17.89-2.16-34.42-9.06-47.91-21.07-1.82-1.27-3.79-2.3-5.52-3.65-3.4-4.19-.07-6.4,4.08-7.29-3.52-6.43-8.26-12.16-13.74-16.99-1.62-1.41-3.29-2.72-4.95-4.03-9.17-8.77-19.73-15.88-30.67-22.22h0Z"/>
      <path class="cls-133" d="m372.46,60.31c11.46,1.52,22.68,4.78,33.04,9.97-10.86-3.14-22.86-6.3-33.04-9.97h0Z"/>
      <path class="cls-128" d="m189.03,65.67c3.82-.43,7.31-2.04,10.86-3.39,8.65,8.12-6.89,13-13.23,15.04-6.73-4.49,13.21-5.24,9.8-11.71-3.31,1.01-6.58,2.19-9.96,2.99.5-1.18.97-2.89,2.53-2.93h0Z"/>
      <path class="cls-9" d="m200.22,74.59c4.37-2.97,8.93-5.72,14.02-7.27-11.46,9.82-26.23,16.18-35.51,28.52-2.58,2.37-5.27,4.63-8.22,6.52-10.09,5.59-17.96,15.45-24.34,25.07-.24.27-.71.8-.95,1.06-3.96,3.29-8.18,6.29-11.77,10.01,4.09-4.51,2.73-12.41,8.99-14.95,8.34-4.77,5.81-16.78,14.01-21.72,17.56-3.59,29.03-17.87,43.77-27.24h0Z"/>
      <path class="cls-125" d="m230.7,74.59c11.01-8.53,29.45-9.33,39.02,1.92,11.69,3.54,21.47-7.39,33.13-6.72.65,4.35-9.76,3.99-9.06,9.81,8.8,2.53,22.32,2.33,25.44-8.2,1.44-4.29,4.36,3.18,7,.08,7.27-3.42,12.35,5.98,17.65,8.18-6.12,1.6-13.33,3.3-15.9,9.84-15.27,3.85-32.29,4.45-45.03,14.61-12.22,7.81-28.4,6.38-39.51,16.46-16.77,12.5-37.22,22.02-49.66,39.19-5.48,3.03-10.33,7.14-16.13,9.61-1.07.01-2.13.05-3.18.1,2.94-3.34,6.32-10.15,11.49-7.93,7.59,2.23-3.78-11.23,6.93-7.45,5.86,1.75,3.18-9.26,9.59-6.95,8.46-5.71,15.52-14.49,25.64-18.12-1.5-6.08-1.52-10.35,4.48-5.92,8.4-5.56,27.05-8.34,27.58-17.29,7.29,2.6,20.46,1.85,21-8.09,7.65,1.42,13.28-4.5,18.46-9.22-5.48-9.75-19.85,5.92-25.44-3.81-2.33-5.95-10.93-3.98-12.79-10.41-2.44-4.82-4.98,1.5-4.61,4.67-4.82,3.25-5.77-2.9-9.35-3.33-2.5,7.07-15.56,9.65-19.37,18.57-1.94-14.96-12.29,3.36-20.32.61.43,2,1.16,3.93,1.6,5.95-7.7-.81-6.74,12.09-15.02,10.64-7.55-.33-6.66,12.43-15.22,9.38-10.33,1.15-10.16,13.49-10.43,21.22-7.92,2.96-11.13,11.64-17.58,16.65,1.58,4.16,8.08.69,9.42,4.71-4,1.79-8.47,1.65-12.65,2.69-3.05,8.93,12.29,2.4,14.17,10.56.78,1.24,1.58,2.49,2.43,3.72-10.5-1.61-12.8,12.2-19.97,16.87-3.03-6.07-6.66-19.61-15.95-19.49,14.71,2.84,3.48-12.58,16.95-13.92-6.62-18.99,17.04-30.34,27.61-43.54,2.7-3.63,18.52-13.43,6.87-9.3,2.52-4.81,7.46-11.76,13.48-7.79-4.74-8.41,1.32-9.99,8.87-6.68-8.29-9.3,7.07-15.03,14.79-12.73-4.68-6.68,5.51-5.21,9.33-7.77,2.64,3.95,7.25,4.27,4.24-1.38h0Z"/>
      <path class="cls-181" d="m406.26,70.44l.78.16c1.21.79,2.42,1.6,3.64,2.44-.28,2.75-.37,5.67-.54,8.49-.5-.26-1.5-.8-2-1.06-3.23-3.81,3.54-7.38-1.88-10.03h0Z"/>
      <path class="cls-123" d="m256.8,78.95c-.37-3.17,2.17-9.49,4.61-4.67,1.86,6.43,10.46,4.46,12.79,10.41,5.59,9.73,19.96-5.94,25.44,3.81-5.18,4.72-10.81,10.64-18.46,9.22-.54,9.94-13.71,10.69-21,8.09-.53,8.95-19.18,11.73-27.58,17.29-6-4.43-5.98-.16-4.48,5.92-10.12,3.63-17.18,12.41-25.64,18.12-6.41-2.31-3.73,8.7-9.59,6.95-10.71-3.78.66,9.68-6.93,7.45-5.17-2.22-8.55,4.59-11.49,7.93-4.19,2.24-9.52,3.04-12.42,7.13-1.88-8.16-17.22-1.63-14.17-10.56,4.18-1.04,8.65-.9,12.65-2.69-1.34-4.02-7.84-.55-9.42-4.71,6.45-5.01,9.66-13.69,17.58-16.65.27-7.73.1-20.07,10.43-21.22,8.56,3.05,7.67-9.71,15.22-9.38,8.28,1.45,7.32-11.45,15.02-10.64-.44-2.02-1.17-3.95-1.6-5.95,8.03,2.75,18.38-15.57,20.32-.61,3.81-8.92,16.87-11.5,19.37-18.57,3.58.43,4.53,6.58,9.35,3.33h0Z"/>
      <path class="cls-207" d="m410.66,73.04l.17-.9c10.94,6.34,21.5,13.45,30.67,22.22-1.98-1.04-4-1.99-5.99-2.98-6.76-5.75-15.55-10.36-24.59-9.93l-.8.08c.17-2.82.26-5.74.54-8.49h0Z"/>
      <path class="cls-34" d="m160.43,98.22c8.24-13.29,26.69-15.98,39.79-23.63-14.74,9.37-26.21,23.65-43.77,27.24-8.2,4.94-5.67,16.95-14.01,21.72-6.26,2.54-4.9,10.44-8.99,14.95-2.38,3.69-4.27,7.72-5.16,12.05l-.6-.53c.54-6.84,6.11-14.24-4.64-12.68,7.55-10.24,15.12-20.45,22.65-30.7,3.29-4.18,6.67-8.3,9.81-12.59l.5.56c1.36,1.24,2.48,3.36,4.42,3.61h0Z"/>
      <path class="cls-67" d="m150.22,92.25c6.05-7.55,15.94-11.65,24.19-16.69-2.36,2.59-4.64,5.26-6.96,7.89-1.08,1.04-2.16,2.07-3.26,3.08-3.76,1.41-5.91,4.99-8.18,8.08l-.5-.56c1-4.29-2.73-2.55-5.29-1.8h0Z"/>
      <path class="cls-201" d="m343.88,79.66c.43-.04,1.3-.12,1.73-.16-2.07,3.78-1.25,9.34,3.32,10.55-6.94,1.37-14.24,2.05-20.95-.55,2.57-6.54,9.78-8.24,15.9-9.84Z"/>
      <path class="cls-88" d="m345.61,79.5c1.15-.07,2.3-.07,3.47,0,6.24.56,8.63,7.26,2.42,10.19-.64.09-1.93.27-2.57.36-4.57-1.21-5.39-6.77-3.32-10.55h0Z"/>
      <path class="cls-136" d="m408.16,80.47c.5.26,1.5.8,2,1.06,5.41,10.82,22.31,12.98,27.17,24.85-3.93,6.24-15.96-.48-19.12,8.21-2.16-.76-4.33-1.47-6.48-2.2-.33-.45-1-1.37-1.33-1.82s-.98-1.36-1.31-1.81c-4.29-2.07-3.71-13.35-7.88-5.73-15.77-4.97-35.18-13.55-50.43-5.39-5.2,3.23-13.71,1.35-11.79,10.7-3.93,5.87,2.69,10.15,2.62,16.02-3.56,2.08-7.31,3.83-11.23,5.11-6.11,1.32-12.26,3-17.2,7.02-10.91,4.3-20.88,10.69-30.6,17.17-9.18,6.91-22.47,4.19-29.38,13.03-2.5-7.87-7.52-20.16,3.2-24.2,6.45-8.12,21.22-.44,24.85-10.97-7.13-.52-.36-7.97-8.73-6.78,8.72-4.43,17.87-7.85,26.83-11.7.14.38.42,1.13.56,1.5.35,1,.78,1.97,1.3,2.93,6.47,5.57,21.65,3.59,21.15-6.79-1.01-1.57-2.66-2.56-4.32-3.26l-.73-.26c8.26-2.74,24.15,8.5,20.8-7.21,19.63-12.86,45.43-3.33,67.89-7.38,5.61-1.84,4.42-8.08,2.16-12.1m-102.88,50.5c-6.83,4.75-16.47-1.19-22.3,6.14-10.46,9.28-39.91,5.58-29.6,26.32,3.54-7.26,14.6-8.11,22.8-9.68,7.66-.11,7.14-11.33,14.59-12.04,8.91-.23,16.28-5.77,24.54-8.44-.05-4.19-7.61-2.61-10.03-2.3h0Z"/>
      <path class="cls-198" d="m410.96,81.45c9.04-.43,17.83,4.18,24.59,9.93-4.04-1.35-8.16-2.49-12.19-3.82-3.89-2.51-8.09-4.45-12.4-6.11Z"/>
      <path class="cls-168" d="m410.16,81.53l.8-.08c2.4,4.4,8.1,4.47,12.4,6.11,7.72,5.18,21.29,6.2,15.96,18.95,2.04,12.33-12.56,9.27-20.49,9.57-.16-.37-.47-1.12-.62-1.49,3.16-8.69,15.19-1.97,19.12-8.21-4.86-11.87-21.76-14.03-27.17-24.85Z"/>
      <path class="cls-171" d="m410.96,81.45c4.31,1.66,8.51,3.6,12.4,6.11-4.3-1.64-10-1.71-12.4-6.11Z"/>
      <path class="cls-5" d="m167.45,83.45c4.05,1.88-1.06,7.68-3.26,3.08,1.1-1.01,2.18-2.04,3.26-3.08Z"/>
      <path class="cls-109" d="m423.36,87.56c4.03,1.33,8.15,2.47,12.19,3.82,1.99.99,4.01,1.94,5.99,2.98.33,4.19-1.1,8.18-2.22,12.15,5.33-12.75-8.24-13.77-15.96-18.95Z"/>
      <path class="cls-121" d="m282.95,104.11c12.74-10.16,29.76-10.76,45.03-14.61,6.71,2.6,14.01,1.92,20.95.55.64-.09,1.93-.27,2.57-.36-11.31,6.42-27.44-.74-37.41,9.76-20.75-7.06-34.26,18.49-55.45,15.01-16.75,7.42-29.57,21.72-45.69,30.46-2.38.93.09,3.56.31,5.27-7.18-3.8-12.12,6.77-18.05,9.14-.36.11-1.07.33-1.43.43,12.44-17.17,32.89-26.69,49.66-39.19,11.11-10.08,27.29-8.65,39.51-16.46h0Z"/>
      <path class="cls-64" d="m150.22,92.25c2.56-.75,6.29-2.49,5.29,1.8-3.14,4.29-6.52,8.41-9.81,12.59,1.52-7.81-5.6-.62-9.12.06,1.96-2.13,3.53-4.58,4.84-7.15,1.77-3.48,5.64-5.24,8.8-7.3Z"/>
      <path class="cls-134" d="m350.77,97.64c15.25-8.16,34.66.42,50.43,5.39,4.17-7.62,3.59,3.66,7.88,5.73-16.03-8.86-34.76-14.07-53.11-11.67-1.75.15-3.48.31-5.2.55h0Z"/>
      <path class="cls-51" d="m441.56,94.36c1.66,1.31,3.33,2.62,4.95,4.03,2.34,3.56,4.68,7.19,6.57,11.03-3.06.99-7.3,1.67-3.99,5.38l-.64-.38c-3.41-2.17-6.46-4.9-9.11-7.91,1.12-3.97,2.55-7.96,2.22-12.15h0Z"/>
      <path class="cls-164" d="m355.96,97.09c18.35-2.4,37.08,2.81,53.11,11.67.33.45.98,1.36,1.31,1.81-16.97-8.41-35.4-13.23-54.42-13.48h0Z"/>
      <path class="cls-167" d="m338.98,108.34c-1.92-9.35,6.59-7.47,11.79-10.7l-.4.69c-2.14,4.89-6.97,7.48-11.39,10.01h0Z"/>
      <path class="cls-41" d="m350.77,97.64c1.72-.24,3.45-.4,5.2-.55,19.02.25,37.45,5.07,54.42,13.48.33.45,1,1.37,1.33,1.82-.53.16-1.6.49-2.13.65-16.92-10.94-38.83-13.11-59.22-14.71l.4-.69Z"/>
      <path class="cls-13" d="m350.37,98.33c20.39,1.6,42.3,3.77,59.22,14.71-10.09,5.98,3.62,10.79,8.35,4.37,1.5,4.12-12.7,9.75-1.64,9.44,10.55,3.99,6.87-13.29,19.55-9.58-4.19,12.01,10.29,21.22,18.93,26.76,6.36,2.89,9.36,16.77,17.58,10.66,6.03-3.75,1.09,7.92,7.92,5.95,8.94.7,21.55,8.96,28.3-.44,7.46-1.98,19.36-4.39,14.93,8.04,3.24,12.99-11.67,6.68-17.35,13.1-25.64-3.26-53.84-6.13-65.49-30.91-13.91-9.43-28.97-25.03-48.59-21.35-15.34-2.16-27.56,9.9-42.75,8.22-10.16,7.41-25.65,5.17-34.08,14,10.42,3.19,23.66,8.61,33.28,2.31,8.88-1.01,15.66,4.61,21.72,10.16-.34,5.02-9.34,7.61-3.96,12.9-1.07-.69-2.15-1.33-3.13-2.09-1.1-2.95.12-7.63-3.41-8.76-12.16-.41-25.32-5.19-36.24,1.97,3.2-6.49-8.26-3.2-11.53-4.89-11.97.32-24.13-7.68-35.61-2.28,5.67-9.47,22.18-.65,23.74-12.71,11.43-13.65,32.9-11.03,43.62-24.57-1.58-5.01-3.74-9.83-4.75-15,4.42-2.53,9.25-5.12,11.39-10.01m.14,4.09c-1.98.55-3.06,2.42-4.16,3.99-2.82.6-6.11,2.37-4.85,5.78,1.05,3.38,2.6,12,5.99,5.33,9.41-2.29,20.81-1.98,28.91-6.09-5.82-4.52-18.51-16.24-25.89-9.01m112.28,58.52c-12.53-.35-.6,10.28,3.8,6.27,14.76,8.19,36.95,10.92,54.39,6.92-3.55-5.38-20.51-2.04-28.29-7.06-3.54-5.74-7.31,6.31-10.66.84-5.16-4.2-13.12-5.64-19.24-6.97h0Z"/>
      <path class="cls-46" d="m446.46,98.39c5.48,4.83,10.22,10.56,13.74,16.99-4.15.89-7.48,3.1-4.08,7.29-2.74-2.33-3.63-6.33-7.08-7.87-3.31-3.71.93-4.39,3.99-5.38-1.89-3.84-4.23-7.47-6.57-11.03h0Z"/>
      <path class="cls-60" d="m123.01,116.86c5.85-5.91,11.4-13.14,18.41-17.31-1.31,2.57-2.88,5.02-4.84,7.15-4.68,3.18-7.66,9.2-13.57,10.16h0Z"/>
      <path class="cls-2" d="m350.51,102.42c7.38-7.23,20.07,4.49,25.89,9.01-8.1,4.11-19.5,3.8-28.91,6.09,4.44-5.36,13.87-2.07,19.96-5.87-2.27-7.62-10.94-6.68-16.94-9.23h0Z"/>
      <path class="cls-114" d="m146.17,127.43c6.38-9.62,14.25-19.48,24.34-25.07-8.3,8.19-15.23,17.7-24.34,25.07Z"/>
      <path class="cls-96" d="m136.58,106.7c3.52-.68,10.64-7.87,9.12-.06-7.53,10.25-15.1,20.46-22.65,30.7-2.26,2.7-4.45,5.48-6.75,8.14-5.25.3-10.25,1.04-15.54,1.12,5.72-8.22,16.92-13.92,21.09-23.7-5,4.22-8.47,6.52-4.19-.94,1.21-2.15,3.02-4.18,5.35-5.1,5.91-.96,8.89-6.98,13.57-10.16h0Z"/>
      <path class="cls-221" d="m346.35,106.41c1.1-1.57,2.18-3.44,4.16-3.99,6,2.55,14.67,1.61,16.94,9.23-6.09,3.8-15.52.51-19.96,5.87-3.39,6.67-4.94-1.95-5.99-5.33,4.41,4.14,8.37-1.56,13.32-.27.92-4.05-4.92-7.33-8.47-5.51h0Z"/>
      <path class="cls-81" d="m300.48,109.3c3.55-3.31,8.17-4.18,12.91-3.29,1.34.2,2.6.75,3.91,1.15l.73.26c-5.86,2.79-12.43,3.88-18.13,7.12-.14-.37-.42-1.12-.56-1.5.1-.39.31-1.16.42-1.54.18-.55.54-1.65.72-2.2h0Z"/>
      <path class="cls-195" d="m346.35,106.41c3.55-1.82,9.39,1.46,8.47,5.51-4.95-1.29-8.91,4.41-13.32.27-1.26-3.41,2.03-5.18,4.85-5.78h0Z"/>
      <path class="cls-31" d="m439.26,106.51c2.65,3.01,5.7,5.74,9.11,7.91,6.07,5.24-1.79,3.71-6.04,3.06-2.21-.2-4.38-.27-6.53-.21-12.68-3.71-9,13.57-19.55,9.58-11.06.31,3.14-5.32,1.64-9.44.22-.33.66-1,.88-1.33,7.93-.3,22.53,2.76,20.49-9.57h0Z"/>
      <path class="cls-83" d="m318.03,107.42c1.66.7,3.31,1.69,4.32,3.26-7.3,1.37-14.06,4.67-21.15,6.79-.52-.96-.95-1.93-1.3-2.93,5.7-3.24,12.27-4.33,18.13-7.12Z"/>
      <path class="cls-136" d="m294.35,109.3c2.02-.28,4.09-.33,6.13,0-.18.55-.54,1.65-.72,2.2-11.72-1.5-22.14,7.17-33.93,6.95,3.49,9.53-14.63,6.78-17.81,14.77,3.85-.86,7.62-2,11.5-2.79-3.02,6.83-12.6,6.28-16.88,9.02l-.26.73c-1.41,1.04-2.89,2-4.39,2.92-.31.15-.95.46-1.27.62,7.71-5.87,8-17.88,17.67-21.23,6.95-4.4,15.27-5.3,22.9-8.01,5.77-1.4,11.67-2.57,17.06-5.18h0Z"/>
      <path class="cls-165" d="m341.6,124.36c.07-5.87-6.55-10.15-2.62-16.02,1.01,5.17,3.17,9.99,4.75,15-.53.25-1.6.76-2.13,1.02Z"/>
      <path class="cls-158" d="m258.64,114.46c12.22.31,23.7-4.12,35.71-5.16-5.39,2.61-11.29,3.78-17.06,5.18-14.86-.43-31.53,4.78-36.22,20.65-18.97,21.12-47.5,32.94-63.56,57.23-7.22,9.43-9.79-2.2-18.89,1.27,4.33-3.7,10.13-5.32,13.71-10.08,1.38-.66,2.8-1.28,4.18-1.98,2.85-.91,4.57-3.27,4.92-6.19,5.61,4.11,12.82-11.19,19.19-13.6,4.76-2.36,1.35-5.07-2.59-3.83,6.93-1.58,19.19-1.84,18.75-9.18,22.73-.15,22.36-27.86,41.86-34.31h0Z"/>
      <path class="cls-135" d="m265.83,118.45c11.79.22,22.21-8.45,33.93-6.95-.11.38-.32,1.15-.42,1.54-8.96,3.85-18.11,7.27-26.83,11.7,8.37-1.19,1.6,6.26,8.73,6.78-3.63,10.53-18.4,2.85-24.85,10.97-10.72,4.04-5.7,16.33-3.2,24.2,6.91-8.84,20.2-6.12,29.38-13.03l-.43.6c-2.98,2.46-6.36,4.36-9.67,6.32-9.72.08-10.25,12.88-18.7,12.78-9.73-8.41,1.1-29.68-11.13-33.91,4.28-2.74,13.86-2.19,16.88-9.02-3.88.79-7.65,1.93-11.5,2.79,3.18-7.99,21.3-5.24,17.81-14.77h0Z"/>
      <path class="cls-89" d="m301.2,117.47c7.09-2.12,13.85-5.42,21.15-6.79.5,10.38-14.68,12.36-21.15,6.79Z"/>
      <path class="cls-93" d="m411.76,112.39c2.15.73,4.32,1.44,6.48,2.2.15.37.46,1.12.62,1.49-.22.33-.66,1-.88,1.33-4.73,6.42-18.44,1.61-8.35-4.37.53-.16,1.6-.49,2.13-.65Z"/>
      <path class="cls-126" d="m212.95,144.92c16.12-8.74,28.94-23.04,45.69-30.46-19.5,6.45-19.13,34.16-41.86,34.31.44,7.34-11.82,7.6-18.75,9.18-.98.39-1.92.85-2.82,1.38,5.93-2.37,10.87-12.94,18.05-9.14-.22-1.71-2.69-4.34-.31-5.27h0Z"/>
      <path class="cls-141" d="m241.07,135.13c4.69-15.87,21.36-21.08,36.22-20.65-7.63,2.71-15.95,3.61-22.9,8.01-9.67,3.35-9.96,15.36-17.67,21.23-1.13.78-2.23,1.59-3.31,2.44-19.52,13.62-37.91,29.02-54.42,46.16l-1.48.04c16.06-24.29,44.59-36.11,63.56-57.23h0Z"/>
      <path class="cls-212" d="m448.36,114.42l.64.38c3.45,1.54,4.34,5.54,7.08,7.87,1.73,1.35,3.7,2.38,5.52,3.65,2.16,4.09.21,8.43-.13,12.66,6.23,5.09,15.21,13.91,22.31,5.14,8.22,4.35,19.16-.2,27,6.79,2.88,3.24,5.39-1.95,8.67-1.77.43-.03,1.29-.07,1.71-.09,1.93.39,6.28.77,4.54,3.76-3.97,7.24,9.85,9.99,5.9,17.82-.01,4.99-7.2,3.98-7.09,9.08-1.38,5.21,6.77,1.42,6.94,6.65l-2.04,1.08c-.62.05-1.88.14-2.51.18-8.73-5.18-23.1-.13-34.12-3.1-3.19-.47-6.29-1.34-9.3-2.44-11.72,2.59-16.13-5.38-26.43-9.06-10.22-8.18-21.29-15.35-30.75-24.49-2.45-2.51-4.42-5.79-7.99-6.72-1.95-1.07-3.58-2.59-4.96-4.29-4.73-5.78-14.49-3.59-21.05-2.07-16.81,1.18-33.31,4.27-49.46,8.97-1.12-.02-2.24,0-3.33.07-3.11.19-9.98,4.28-5.52,7.1,4.29.52,8.55-1.55,12.93-.99.67,0,2.01.02,2.68.02,13.06-5.79,22.87,15.05,32.69,9.44,2.2,4.21,6.89,5.23,11.28,5.62-3.93,7.51-20.72-.39-17.61,13.25l-.48.63c-.5-2.82-.85-5.83-2.45-8.27-4.22.79-1.13,12.85-6.8,5.38-5.38-5.29,3.62-7.88,3.96-12.9-6.06-5.55-12.84-11.17-21.72-10.16-9.62,6.3-22.86.88-33.28-2.31,8.43-8.83,23.92-6.59,34.08-14,15.19,1.68,27.41-10.38,42.75-8.22,19.62-3.68,34.68,11.92,48.59,21.35,11.65,24.78,39.85,27.65,65.49,30.91-1.2,5.36,10.66,3.52,14.18,1.39,4.46-8.09,10.49-25.52-2.53-27.55-5.94-5-2.18,6.35-8.36,2.13-19.78-7.92-46.6-3.35-59.74-23.22-6.34-2.32-18.88-14.49-7.33-16.61,4.25.65,12.11,2.18,6.04-3.06m-1.82,6.89c.13,3.6,2.55,6.15,6.12,6.45-1.62,4.48,8.95,10.73,6.33,2.46-3.28-3.93-7.22-7.93-12.45-8.91h0Z"/>
      <path class="cls-202" d="m435.86,117.27c2.15-.06,4.32.01,6.53.21-11.55,2.12.99,14.29,7.33,16.61,13.14,19.87,39.96,15.3,59.74,23.22,6.18,4.22,2.42-7.13,8.36-2.13,13.02,2.03,6.99,19.46,2.53,27.55-3.52,2.13-15.38,3.97-14.18-1.39,5.68-6.42,20.59-.11,17.35-13.1,4.43-12.43-7.47-10.02-14.93-8.04-6.75,9.4-19.36,1.14-28.3.44-6.83,1.97-1.89-9.7-7.92-5.95-8.22,6.11-11.22-7.77-17.58-10.66-8.64-5.54-23.12-14.75-18.93-26.76h0Z"/>
      <path class="cls-52" d="m446.56,121.31c5.23.98,9.17,4.98,12.45,8.91,2.62,8.27-7.95,2.02-6.33-2.46-3.57-.3-5.99-2.85-6.12-6.45h0Z"/>
      <path class="cls-104" d="m88.2,150.63c10.25-9.11,19.37-19.39,29.46-28.67-4.28,7.46-.81,5.16,4.19.94-4.17,9.78-15.37,15.48-21.09,23.7,5.29-.08,10.29-.82,15.54-1.12-1.4,2.24-2.56,4.61-3.76,6.96l-.76.07c-3.11-.04-6.23-.32-9.26-.2-4.82-.42-9.59-.79-14.32-1.68h0Z"/>
      <path class="cls-23" d="m341.6,124.36c.53-.26,1.6-.77,2.13-1.02-10.72,13.54-32.19,10.92-43.62,24.57-1.56,12.06-18.07,3.24-23.74,12.71-1.26.25-2.53.45-3.78.69l-.12-.73c3.31-1.96,6.69-3.86,9.67-6.32,10.98-4.69,21.36-10.78,31.03-17.77,5.87-1.97,12.05-3.41,17.2-7.02,3.92-1.28,7.67-3.03,11.23-5.11Z"/>
      <path class="cls-200" d="m461.66,126.32c13.49,12.01,30.02,18.91,47.91,21.07,3.28.64,6.59,1.22,9.94,1.75-3.28-.18-5.79,5.01-8.67,1.77-7.84-6.99-18.78-2.44-27-6.79-7.1,8.77-16.08-.05-22.31-5.14.34-4.23,2.29-8.57.13-12.66h0Z"/>
      <path class="cls-179" d="m133.45,138.5c3.59-3.72,7.81-6.72,11.77-10.01-6,7.91-15.96,15.1-15.86,25.99,9.32.39-5.57,12.67-7.96,15.32,1.47-6.54,6.93-12.07,6.89-19.25.89-4.33,2.78-8.36,5.16-12.05Z"/>
      <path class="cls-168" d="m313.17,136.49c4.94-4.02,11.09-5.7,17.2-7.02-5.15,3.61-11.33,5.05-17.2,7.02Z"/>
      <path class="cls-139" d="m305.27,130.97c2.42-.31,9.98-1.89,10.03,2.3-8.26,2.67-15.63,8.21-24.54,8.44-7.45.71-6.93,11.93-14.59,12.04-8.2,1.57-19.26,2.42-22.8,9.68-10.31-20.74,19.14-17.04,29.6-26.32,5.83-7.33,15.47-1.39,22.3-6.14h0Z"/>
      <path class="cls-27" d="m392.36,135.45c6.56-1.52,16.32-3.71,21.05,2.07-6.46-3.29-14.08-1.73-21.05-2.07Z"/>
      <path class="cls-103" d="m392.36,135.45c6.97.34,14.59-1.22,21.05,2.07,1.38,1.7,3.01,3.22,4.96,4.29-.03.37-.09,1.11-.12,1.48-4.33.77-19.2,7.62-10.22,11.42,6.52,2.75-.05,9.49-2.33,12.61,6.7,4.49-2.13,8.83-6.85,8.49-8.44,8.73-22.99,5.9-32.48,13.91,1.16-1.51,2.44-2.92,3.73-4.33,1.63-1.25,3.21-2.56,4.9-3.73,12.13,1.3,20.45-6.42,31.24-9.38.43-3.54-5.72-2.03-4.33-6.06,1.18-.91,2.44-1.7,3.66-2.57,6.83-4.46.09-11.32-6.11-9.97-5.41-1.37-12.56-7.76-16.59-1.07l-.59.62c-2.83-1.95-6.16-3.11-9.64-2.87-4.63-.41-9.18-.83-13.79-.81-4.85-2.42-13.3.61-15.95-5.13,16.15-4.7,32.65-7.79,49.46-8.97h0Z"/>
      <path class="cls-168" d="m282.57,153.66c9.72-6.48,19.69-12.87,30.6-17.17-9.67,6.99-20.05,13.08-31.03,17.77l.43-.6h0Z"/>
      <path class="cls-156" d="m524.66,136.47c16.28-1.11,28.5,10.38,39.11,21.01,1.79,11.4.73,25.08-6.9,34.52-10.78,8.06-25.11,10.2-38.24,9.16-20.74-5.13-31.98,17.73-45.01,29.55-6.4,5.43-2.52-.98-2.66-5.49l-.46-.63c-7.41-1.54-1.82-14.07-11.22-10.65-8.52,6.43-17.88,9.82-27.95,12.35-18.88,11.51-40.55,18.02-58.83,30.35-.97.34-1.93.68-2.88,1.02-2.86.76-5.72,1.57-8.38,2.87,4.04-4.36,4.2-15.02-4.71-11.22-6.57,8.46-18,5.5-25.93,10.43-7.13,9.67,20.53,8.13,6.88,12.82-5.09.17-10.03,1.26-14.77,3.08-1.74.32-3.46.69-5.18,1.07-6.38-1.03-21.02,5.35-17.45-7.47.07-1.24.2-2.47.38-3.67-.33-5,5.47-15.38-3.09-15.5-5.08-.87-10.13-1.93-15.06-3.43,5.4-7.12,6.98-17.37,2.18-25.22-2.92-4.93,2.24-6.05,6.16-6.83,20.57,2.73,36.81-12.45,56.59-14l.81-.03c8.1,2.85,18.44-1.1,18.33-10.84,9.49-8.01,24.04-5.18,32.48-13.91,4.72.34,13.55-4,6.85-8.49,2.28-3.12,8.85-9.86,2.33-12.61-8.98-3.8,5.89-10.65,10.22-11.42,9.77,12.06,23.5,20.85,36.1,29.57-.57,9.27,5.53,17.64,15.34,13.69,9.01-5.73,18.47,1.56,27.79-.16,2.93.43,5.85.97,8.82,1.22,4.68.41,9.48.99,14.23.63,1.61-.16,4.83-.47,6.43-.62.63-.04,1.89-.13,2.51-.18-2.71,4.39,4.56.26,6.35-.24,15.66-9.58,11.33-34.52-2.93-42.37.68,7.98-11.7-.9-16.39.1,2.53-2.99,5.37-5.7,8.15-8.46m-107.5,69.26c-14.64,7.31,10.24,17.72,16.67,8.02,6.84-10.3-11.65-8.55-16.67-8.02Z"/>
      <path class="cls-7" d="m116.3,145.48c2.3-2.66,4.49-5.44,6.75-8.14,10.75-1.56,5.18,5.84,4.64,12.68-1.83-.52-3.68-.72-4.28,1.49-3.64.26-7.23.77-10.87.93,1.2-2.35,2.36-4.72,3.76-6.96h0Z"/>
      <path class="cls-175" d="m242.64,139.45c12.23,4.23,1.4,25.5,11.13,33.91,8.45.1,8.98-12.7,18.7-12.78l.12.73c-1.73,1.4-3.46,2.8-5.27,4.09-6.16,1.78-4.16,7.21,2.65,5.25,17.78,1.85,35.92,1.81,53.58-.98-16.75,6.15-35.01,3.2-52.35,4.28-3.5,1.46,1.98,2.61,3.29,3.67-2.81-.41-5.61-.8-8.42-.97-5-.77-10.63.5-15.29-1.18-5.64-10.47-1.1-27.61-8.4-35.29l.26-.73h0Z"/>
      <path class="cls-172" d="m237.99,143.1c1.5-.92,2.98-1.88,4.39-2.92-.51,14.38-11.05,23.94-18.8,34.77-1.67,1.76-3.47,3.45-4.67,5.58-5.98,5.18,6.64,6.2,3.99,11.4-5.82,1.94-11.76,3.47-17.8,4.51,12.34-11.05,17.97-27.67,29.78-39.65,3.79-3.82-.87-9.77,3.11-13.69h0Z"/>
      <path class="cls-9" d="m242.38,140.18c7.3,7.68,2.76,24.82,8.4,35.29-.32-.27-.98-.81-1.31-1.08-1.21-2.71-.94-6.96-3.19-8.72-5.39.67-9.61,13.15-15.5,6.53-3.54-4.39-4.08,4.33-7.87,4.96.17-.55.5-1.66.67-2.21,7.75-10.83,18.29-20.39,18.8-34.77Z"/>
      <path class="cls-29" d="m418.36,141.81c3.57.93,5.54,4.21,7.99,6.72-2.71-1.8-5.44-3.47-8.11-5.24.03-.37.09-1.11.12-1.48Z"/>
      <path class="cls-183" d="m236.72,143.72c.32-.16.96-.47,1.27-.62-3.98,3.92.68,9.87-3.11,13.69.67-1.95,2.47-6.84-1.11-6.06-16.23,18.09-37.77,30.47-53.4,48.86-5.45,2.83-4.08-5.1-1.38-7.27,17.97-13.2,32.87-30.45,52.04-42.1,1.47-.98,3.33-2.02,2.38-4.06,1.08-.85,2.18-1.66,3.31-2.44Z"/>
      <path class="cls-155" d="m418.26,143.29c2.67,1.77,5.4,3.44,8.11,5.24,9.46,9.14,20.53,16.31,30.75,24.49.06,1.47.16,4.41.21,5.88.59,4.98,4.25,10.33,8.42,5.17,6.08.33,11.73-3.29,17.8-1.99,3.01,1.1,6.11,1.97,9.3,2.44,1.54.6,3.09,1.21,4.64,1.87-9.32,1.72-18.78-5.57-27.79.16-9.81,3.95-15.91-4.42-15.34-13.69-12.6-8.72-26.33-17.51-36.1-29.57h0Z"/>
      <path class="cls-50" d="m334.05,151.59c-4.46-2.82,2.41-6.91,5.52-7.1-3.23,2.13.87,3.1,2.73,4.13,1.5.75,3.08,1.37,4.68,1.98-4.38-.56-8.64,1.51-12.93.99Z"/>
      <path class="cls-191" d="m339.57,144.49c1.09-.07,2.21-.09,3.33-.07,2.65,5.74,11.1,2.71,15.95,5.13l-.71.61c-1.92.1-3.82.26-5.72.33-2.8-2.47-6.71-1.52-10.12-1.87-1.86-1.03-5.96-2-2.73-4.13h0Z"/>
      <path class="cls-178" d="m178.99,192.28c16.51-17.14,34.9-32.54,54.42-46.16.95,2.04-.91,3.08-2.38,4.06-19.17,11.65-34.07,28.9-52.04,42.1Z"/>
      <path class="cls-49" d="m509.56,147.39c5.01.28,9.98.32,15.03.75-1.14.29-2.26.6-3.38.91-.42.02-1.28.06-1.71.09-3.35-.53-6.66-1.11-9.94-1.75h0Z"/>
      <path class="cls-184" d="m342.3,148.62c3.41.35,7.32-.6,10.12,1.87-.69.04-2.07.1-2.76.13-.67,0-2.01-.02-2.68-.02-1.6-.61-3.18-1.23-4.68-1.98Z"/>
      <path class="cls-197" d="m521.16,149.05c1.12-.31,2.24-.62,3.38-.91,20.06.54,27.32,31.16,6.91,38.22-.17-5.23-8.32-1.44-6.94-6.65-.11-5.1,7.08-4.09,7.09-9.08,3.95-7.83-9.87-10.58-5.9-17.82,1.74-2.99-2.61-3.37-4.54-3.76h0Z"/>
      <path class="cls-230" d="m123.41,151.51c.6-2.21,2.45-2.01,4.28-1.49l.6.53c.04,7.18-5.42,12.71-6.89,19.25-.96.97-1.94,1.92-2.9,2.88-1.59-7.33,13.98-19.01,4.91-21.17h0Z"/>
      <path class="cls-56" d="m358.84,149.55c4.61-.02,9.16.4,13.79.81-4.83,1.26-9.7.6-14.5-.2l.71-.61Z"/>
      <path class="cls-79" d="m382.86,152.61c4.03-6.69,11.18-.3,16.59,1.07-5.23-.48-12.24,2.98-16.59-1.07h0Z"/>
      <path class="cls-92" d="m102.52,152.31c-2.31-.44-21.07,2.22-14.32-1.68,4.73.89,9.5,1.26,14.32,1.68Z"/>
      <path class="cls-142" d="m233.77,150.73c3.58-.78,1.78,4.11,1.11,6.06-11.81,11.98-17.44,28.6-29.78,39.65-.38.09-1.15.28-1.54.37,1.87-4.91,10.21-8.79,8.17-14.7-9.77-.89-20.95,5.62-24.89,14.75-2.91,3.94-11.09,7.6-4.61,12.52-4.53,1.03-6.7,4.87-.87,5.89-9.92-.19-13.65,9.85-20.76,14.41,1.33-10.55-1.15-21.35,13.74-18.77,7.23-.9-2.65-16.56-6.86-9.39-.73.71-1.43,1.45-2.11,2.22-8.83-8.12-9.98,7-17.52,9.11.09-.37.27-1.11.35-1.47,4.63-4.62,7.23-10.7,11.3-15.71,6.17,3.81,15.04,4.98,18.01-3.31l1.48-.04c-2.7,2.17-4.07,10.1,1.38,7.27,15.63-18.39,37.17-30.77,53.4-48.86h0Z"/>
      <path class="cls-229" d="m349.66,150.62c.69-.03,2.07-.09,2.76-.13,1.9-.07,3.8-.23,5.72-.33,4.8.8,9.67,1.46,14.5.2,3.48-.24,6.81.92,9.64,2.87-.03,2.25,0,4.52.07,6.83-9.82,5.61-19.63-15.23-32.69-9.44Z"/>
      <path class="cls-189" d="m112.54,152.44c3.64-.16,7.23-.67,10.87-.93,9.07,2.16-6.5,13.84-4.91,21.17-2.74,2.6-5.51,5.16-8.38,7.63-10.08,6.77,8.43-.23,4.72,7.49-.68,1.33-1.55,2.54-2.36,3.8-5.37,5.07-8.61,11.85-11.65,18.46-.16.33-.48.98-.63,1.31-11.58,6.64-26.49,9.38-33.65,22.29-3.48,3.6-6.84,7.32-9.87,11.31-4.75,3.42-9.69,6.97-12.4,12.34-1.97,2.21-3.98,4.39-5.94,6.61-.12-.62-.35-1.87-.47-2.49-2.8-14.2,1.04-29.63,12.69-38.75,11.65-16.22,36.61-11.86,46.8-30.31,4.77-13.25,6.31-27.8,14.42-39.86l.76-.07h0Z"/>
      <path class="cls-59" d="m382.26,153.23l.59-.62c4.35,4.05,11.36.59,16.59,1.07,6.2-1.35,12.94,5.51,6.11,9.97-3.91,1.02-7.97,1.4-11.94,2.03-4.39-.39-9.08-1.41-11.28-5.62-.07-2.31-.1-4.58-.07-6.83h0Z"/>
      <path class="cls-44" d="m579.66,154.98c17.05,4.83,7.06,33.88-8.17,36.5,5.18-11.55,8.76-23.69,8.17-36.5Z"/>
      <path class="cls-144" d="m198.03,157.95c3.94-1.24,7.35,1.47,2.59,3.83-6.37,2.41-13.58,17.71-19.19,13.6l-.34-.7c2.55-7.11,10.03-9.57,14.12-15.35.9-.53,1.84-.99,2.82-1.38Z"/>
      <path class="cls-205" d="m276.37,160.62c11.48-5.4,23.64,2.6,35.61,2.28,3.27,1.69,14.73-1.6,11.53,4.89-17.56,4.44-35.83.11-53.54,2.86,13.82-5.98,30.69.85,44.56-4.29-13.82-4.87-32.42-6.49-47.21-.96,1.81-1.29,3.54-2.69,5.27-4.09,1.25-.24,2.52-.44,3.78-.69h0Z"/>
      <path class="cls-107" d="m193.78,159.76c.36-.1,1.07-.32,1.43-.43-4.09,5.78-11.57,8.24-14.12,15.35-.93-1.3-1.89-2.56-2.83-3.82-.15-.37-.46-1.12-.61-1.49,5.8-2.47,10.65-6.58,16.13-9.61Z"/>
      <path class="cls-16" d="m462.76,160.94c6.12,1.33,14.08,2.77,19.24,6.97,3.35,5.47,7.12-6.58,10.66-.84,7.78,5.02,24.74,1.68,28.29,7.06-17.44,4-39.63,1.27-54.39-6.92-4.4,4.01-16.33-6.62-3.8-6.27h0Z"/>
      <path class="cls-198" d="m267.32,165.4c14.79-5.53,33.39-3.91,47.21.96-13.87,5.14-30.74-1.69-44.56,4.29-6.81,1.96-8.81-3.47-2.65-5.25Z"/>
      <path class="cls-31" d="m323.51,167.79c10.92-7.16,24.08-2.38,36.24-1.97,3.53,1.13,2.31,5.81,3.41,8.76-.96-1.97-1.8-4.15-2.64-6.07-1.23-2.56-4.05-1.58-6.2-1.18-10.35-1.32-21.37-3.61-30.77,2.34-17.66,2.79-35.8,2.83-53.58.98,17.71-2.75,35.98,1.58,53.54-2.86h0Z"/>
      <path class="cls-217" d="m393.66,165.68c3.97-.63,8.03-1.01,11.94-2.03-1.22.87-2.48,1.66-3.66,2.57-5.52,8.89-20.97,1.02-25.89,12.71-3.11-13.64,13.68-5.74,17.61-13.25h0Z"/>
      <path class="cls-11" d="m230.78,172.2c5.89,6.62,10.11-5.86,15.5-6.53,2.25,1.76,1.98,6.01,3.19,8.72-5.15-5.84-8.85,4.06-1.99,5.05,12.11,2.27,25.93,6.75,38,2.02-6.28-2.68-13.61-.12-19.41-4.81,2.81.17,5.61.56,8.42.97,6.65.81,13.34,1.65,19.97,2.78,13.27,5.12,27.35,6.95,42.24,4.42,1.86-.03,3.75.06,5.63-.07,1.17-.13,2.34-.29,3.51-.48-15.16,4.82-31.71,9.23-46.13,11.26-2.86-1.77-6-3.12-9.39-3.24-6.62.23-15.81-5.16-20.87,1.02-1.13,1.06-2.32,2.06-3.35,3.23-13.21-2.98-24.75,5.9-37.61,6.09-3.86.72-15.06,2.88-7.08,6-7.23.84-21.26-3.54-15.3-10.22,6.44,5.52,18.74,7.37,22.91-1.44,4.17.59,8.47,2.43,11.46-2.01,4.89,7.2,13.1-7.96,2.37-3.1-8,2.97,2.84-3.48.16-7.35-4.72-6.21-18.56,1.09-20.1-7.35,3.79-.63,4.33-9.35,7.87-4.96Z"/>
      <path class="cls-163" d="m323.55,169.67c9.4-5.95,20.42-3.66,30.77-2.34-6.64,3.58-15.41-4.93-20.58,1.7-9.92,4.83-22.94,2.29-31.54,10.19,1.31.87,2.7,1.64,4.12,2.39-3.97-.41-7.93-.73-11.86-1.21-6.63-1.13-13.32-1.97-19.97-2.78-1.31-1.06-6.79-2.21-3.29-3.67,17.34-1.08,35.6,1.87,52.35-4.28h0Z"/>
      <path class="cls-169" d="m333.74,169.03c5.17-6.63,13.94,1.88,20.58-1.7,2.15-.4,4.97-1.38,6.2,1.18-5.06,9.71-22.95-1.98-28.98,7.95,8.16,8.85,23.36-8.72,31.49,1.46,1.74,1.93-1.86,2.63-2.93,3.67-4.18,1.04-4.65-1.49-3.94-4.98-5.82.41-10.57,3.4-13.83,8.14-1.88.13-3.77.04-5.63.07-10.22-.09-20.33-1.54-30.38-3.21-1.42-.75-2.81-1.52-4.12-2.39,8.6-7.9,21.62-5.36,31.54-10.19Z"/>
      <path class="cls-209" d="m375.96,178.93c4.92-11.69,20.37-3.82,25.89-12.71-1.39,4.03,4.76,2.52,4.33,6.06-10.79,2.96-19.11,10.68-31.24,9.38l-.33-.74c.22-.34.66-1.02.87-1.36l.48-.63h0Z"/>
      <path class="cls-167" d="m360.56,168.51c.84,1.92,1.68,4.1,2.64,6.07.98.76,2.06,1.4,3.13,2.09.35,3.73-3.35,4.36-6.19,4.92,1.07-1.04,4.67-1.74,2.93-3.67-8.13-10.18-23.33,7.39-31.49-1.46,6.03-9.93,23.92,1.76,28.98-7.95Z"/>
      <path class="cls-201" d="m162.05,176.6c2.9-4.09,8.23-4.89,12.42-7.13,1.05-.05,2.11-.09,3.18-.1.15.37.46,1.12.61,1.49-4.12,2.18-11.13,6.62-8.9,11.67-1.67-.67-3.28-1.45-4.88-2.21-.85-1.23-1.65-2.48-2.43-3.72h0Z"/>
      <path class="cls-84" d="m169.36,182.48c-2.23-5.05,4.78-9.49,8.9-11.67.94,1.26,1.9,2.52,2.83,3.82l.34.7c-2.63,1.21-4.72,3.14-4.92,6.19-1.38.7-2.8,1.32-4.18,1.98-1.01-.32-2-.66-2.97-1.02h0Z"/>
      <path class="cls-117" d="m366.26,176.67c5.67,7.47,2.58-4.59,6.8-5.38,1.6,2.44,1.95,5.45,2.45,8.27-.21.34-.65,1.02-.87,1.36-4.65,1.62-9.62,1.19-14.45,1.52l-.12-.85c2.84-.56,6.54-1.19,6.19-4.92h0Z"/>
      <path class="cls-115" d="m110.12,180.31c2.87-2.47,5.64-5.03,8.38-7.63-.53,3.31-1.22,6.59-2.12,9.82-2.74.18-8.33,2.59-6.26-2.19Z"/>
      <path class="cls-206" d="m247.48,179.44c-6.86-.99-3.16-10.89,1.99-5.05.33.27.99.81,1.31,1.08,4.66,1.68,10.29.41,15.29,1.18,5.8,4.69,13.13,2.13,19.41,4.81-12.07,4.73-25.89.25-38-2.02h0Z"/>
      <path class="cls-48" d="m457.06,173.02c10.3,3.68,14.71,11.65,26.43,9.06-6.07-1.3-11.72,2.32-17.8,1.99-3.98.87-6.92-1.7-8.42-5.17-.05-1.47-.15-4.41-.21-5.88Z"/>
      <path class="cls-22" d="m218.91,180.53c1.2-2.13,3-3.82,4.67-5.58-.17.55-.5,1.66-.67,2.21-5.46,11.51,14.59,2.72,18.19,9.01-3.6,6.64-3.34,13.34-13.13,8.4-3.73,8.67-14.89,2.82-21.86,3.84-5.96,6.68,8.07,11.06,15.3,10.22,3.47.32,7.04.62,10.56.8-.06.41-.17,1.22-.23,1.62-11.14.18-21.94-5.07-33.13-2.46-13.06,5.26,1.65-7.72,5.44-11.15,9.1-.03,20.13-.71,26.6-7.78,2.44-8.72-12.76-.4-11.74-9.13h0Z"/>
      <path class="cls-86" d="m176.51,181.58c.2-3.05,2.29-4.98,4.92-6.19-.35,2.92-2.07,5.28-4.92,6.19Z"/>
      <path class="cls-182" d="m342.33,184.78c3.26-4.74,8.01-7.73,13.83-8.14-.71,3.49-.24,6.02,3.94,4.98l.12.85c-1.17.02-2.33.07-3.48.15-3.7.11-7.3.92-10.9,1.68-1.17.19-2.34.35-3.51.48h0Z"/>
      <path class="cls-9" d="m241.1,186.18c-3.6-6.29-23.65,2.5-18.19-9.01,1.54,8.44,15.38,1.14,20.1,7.35,2.68,3.87-8.16,10.32-.16,7.35,10.73-4.86,2.52,10.3-2.37,3.1-2.99,4.44-7.29,2.6-11.46,2.01-4.17,8.81-16.47,6.96-22.91,1.44,6.97-1.02,18.13,4.83,21.86-3.84,9.79,4.94,9.53-1.76,13.13-8.4h0Z"/>
      <path class="cls-54" d="m457.36,178.9c1.5,3.47,4.44,6.04,8.42,5.17-4.17,5.16-7.83-.19-8.42-5.17Z"/>
      <path class="cls-24" d="m114.84,187.78c3.71-7.72-14.8-.72-4.72-7.49-2.07,4.78,3.52,2.37,6.26,2.19-.38,1.79-.86,3.58-1.54,5.3h0Z"/>
      <path class="cls-39" d="m222.9,191.88c2.65-5.2-9.97-6.22-3.99-11.4-1.02,8.73,14.18.41,11.74,9.13-6.47,7.07-17.5,7.75-26.6,7.78l-.49-.63c.39-.09,1.16-.28,1.54-.37,6.04-1.04,11.98-2.57,17.8-4.51Z"/>
      <path class="cls-6" d="m294.46,180.4c3.93.48,7.89.8,11.86,1.21,10.05,1.67,20.16,3.12,30.38,3.21-14.89,2.53-28.97.7-42.24-4.42h0Z"/>
      <path class="cls-216" d="m360.16,182.48c4.83-.33,9.8.1,14.45-1.52l.33.74c-1.69,1.17-3.27,2.48-4.9,3.73-3.41-.8-7.23-2.67-10.41-.23-5.2,1.53-10.5,3.3-14.31,7.32-1.67-3.23-5.73-.64-8.41-.21,4.16,4.82-7.08,3.45-1.04,7.77-1.44,4.06-9.02,3.32-12.7.85-9.23,3.75-19.39-.46-28.86,2.91,2.42-1.94,4.34-4.45,5.27-7.44,20.34,1.2,38.44-7.29,57.1-13.77,1.15-.08,2.31-.13,3.48-.15h0Z"/>
      <path class="cls-159" d="m186.84,196.88c3.94-9.13,15.12-15.64,24.89-14.75,2.04,5.91-6.3,9.79-8.17,14.7-4.3,3.99-23.28,10.57-11.15,16.82-3.13.42-6.43.31-9.48,1.41-.39.06-1.17.17-1.57.23-5.83-1.02-3.66-4.86.87-5.89-6.48-4.92,1.7-8.58,4.61-12.52Z"/>
      <path class="cls-204" d="m345.84,184.28c3.6-.76,7.2-1.57,10.9-1.68-18.66,6.48-36.76,14.97-57.1,13.77l.07-.83c14.42-2.03,30.97-6.44,46.13-11.26h0Z"/>
      <path class="cls-157" d="m359.66,185.18c3.18-2.44,7-.57,10.41.23-1.29,1.41-2.57,2.82-3.73,4.33-.22-.31-.66-.95-.88-1.27-1.54-1.7-3.77-2.43-5.8-3.29Z"/>
      <path class="cls-218" d="m492.86,184.48c11.02,2.97,25.39-2.08,34.12,3.1-1.6.15-4.82.46-6.43.62-4.79-.2-9.49-.46-14.23-.63-2.97-.25-5.89-.79-8.82-1.22-1.55-.66-3.1-1.27-4.64-1.87Z"/>
      <path class="cls-72" d="m345.38,192.48c3.81-4.02,9.11-5.79,14.31-7.32,2.03.86,4.26,1.59,5.8,3.29-4.09,6.19-11.73,7.87-17.45,12.11l-.81.03c-1.84-2.36-3.21-5.17-1.85-8.11Z"/>
      <path class="cls-187" d="m506.26,187.58c4.74.17,9.44.43,14.23.63-4.75.36-9.55-.22-14.23-.63Z"/>
      <path class="cls-161" d="m115.12,202.87c-1.66-5.51.58-10.55,4.02-14.67.51,10.96,4.28,24.18-6.89,31.58,1.95,8.44,10.16,12.45,16.18,17.61,10.4-5.67,13.36-16.95,19.77-26.07-.08.36-.26,1.1-.35,1.47-.11.36-.34,1.08-.46,1.44-3.25,7.91-5.66,17.38-13.84,21.59,4.4,7.45-.61,13.65-3.4,20.59-7.61-1.42-16.49.64-20.44,7.77-12.81,6.12-9.33-17.39-19.37-9.92-6.52,3.97-14.25,5.96-21.83,4.72,4.29-4.58,8.43-10.81,14.97-11.91,14.42,1.78,26.28-9.75,41.26-6.82,2.3-7.01-10.4-5.44-11.14-12.09-1.04-6.55-11.8-13.21-3.95-18.86,1.56,11.74,2.01,3.76,5.54-2.28-5.33-.18-6.2-6.18-.07-4.15m14.67,37c-9.37,5.1-20.98,2.1-30.3,6.74-2.35,6.28-.04,17.6,9.56,15.54,4.61-8.63,13.76-10.97,22.1-13.9-2.57-2.95,3.6-9.21-1.36-8.38Z"/>
      <path class="cls-78" d="m348.04,200.57c5.72-4.24,13.36-5.92,17.45-12.11.22.32.66.96.88,1.27.11,9.74-10.23,13.69-18.33,10.84h0Z"/>
      <path class="cls-100" d="m269.45,193.28c5.06-6.18,14.25-.79,20.87-1.02-7.29-.96-13.79,1.83-20.87,1.02Z"/>
      <path class="cls-228" d="m336.97,192.28c2.68-.43,6.74-3.02,8.41.21-1.36,2.94.01,5.75,1.85,8.11-19.78,1.55-36.02,16.73-56.59,14-6.2-.31-14.06,1.32-6.16,6.83,4.8,7.85,3.22,18.1-2.18,25.22,4.93,1.5,9.98,2.56,15.06,3.43,6.89,2.31,3.09,10.15,3.09,15.5-.18,1.2-.31,2.43-.38,3.67-5.43,12.29,7.42,9.32,14.92,8.01,3.49,4.66,20.66-1.82,29.1-3.09-16.33,6.83-41.75,11.46-55.09,1.1.5-.25,1.52-.76,2.03-1.02,7.15,2.15,9.86-7.6,5.72-12.04-7.52-2.8-14.32-8.57-22.91-6.24-6.86-1.83,4.22-5.24,6.4-6.27.97-10.8,6.45-23.48-1.87-33.4.14-1.06.22-2.12.23-3.16-3.77-4.38-21.14-3.27-9.03-10.78,7.88,3.51,16.7,5.11,24.8,1.45,9.47-3.37,19.63.84,28.86-2.91,3.68,2.47,11.26,3.21,12.7-.85-6.04-4.32,5.2-2.95,1.04-7.77h0Z"/>
      <path class="cls-45" d="m100.83,210.07c3.04-6.61,6.28-13.39,11.65-18.46-2.73,5.45-5.68,10.82-9.28,15.76-.79.89-1.6,1.78-2.37,2.7h0Z"/>
      <path class="cls-98" d="m269.45,193.28c7.08.81,13.58-1.98,20.87-1.02,3.39.12,6.53,1.47,9.39,3.24l-.07.83c-.93,2.99-2.85,5.5-5.27,7.44-8.1,3.66-16.92,2.06-24.8-1.45-1.25-1.4-2.47-2.81-3.69-4.21.05-.4.16-1.2.22-1.6,1.03-1.17,2.22-2.17,3.35-3.23h0Z"/>
      <path class="cls-160" d="m158.62,193.68c9.1-3.47,11.67,8.16,18.89-1.27-2.97,8.29-11.84,7.12-18.01,3.31-4.07,5.01-6.67,11.09-11.3,15.71.76-7.11,5.96-12.58,10.42-17.75h0Z"/>
      <path class="cls-82" d="m78.86,193.88c6.87-.83-7.45,8.64-9.04,6.05,1.52-3.33,5.76-4.81,9.04-6.05Z"/>
      <path class="cls-226" d="m228.49,202.67c12.86-.19,24.4-9.07,37.61-6.09-.06.4-.17,1.2-.22,1.6-8.88,1.64-21.09,1.03-26.89,9.03-1.58.47-3.14.99-4.68,1.54-.59.18-1.76.54-2.34.72-3.52-.18-7.09-.48-10.56-.8-7.98-3.12,3.22-5.28,7.08-6h0Z"/>
      <path class="cls-138" d="m192.41,213.67c-12.13-6.25,6.85-12.83,11.15-16.82l.49.63c-3.79,3.43-18.5,16.41-5.44,11.15,10.57,1.07,21.37,1.93,31.61,4.96.94,2.62,1.78,5.29,2.55,7.98-2.81.16-5.59.48-8.36.92-4.29.69-8.55,1.57-12.71,2.75-3.89,1.17-7.61,2.84-11.37,4.31-11.07,6.66-9.92-10.5-17.4-14.47,3.05-1.1,6.35-.99,9.48-1.41h0Z"/>
      <path class="cls-210" d="m238.99,207.17c5.8-8,18.01-7.39,26.89-9.03,1.22,1.4,2.44,2.81,3.69,4.21-12.11,7.51,5.26,6.4,9.03,10.78-10.07-2.18-20.37-2.95-30.65-2.59-.62-.2-1.86-.6-2.49-.8-2.17-.85-4.3-1.76-6.47-2.57h0Z"/>
      <path class="cls-32" d="m167.48,201.47c4.21-7.17,14.09,8.49,6.86,9.39,2.83-4.32-2.33-9.68-6.86-9.39Z"/>
      <path class="cls-177" d="m147.85,212.87c7.54-2.11,8.69-17.23,17.52-9.11-2.65,3.69-7.94-2.87-9.25,3.42-2.09,2.64-3.66,5.79-3.05,9.25-2.46,1.87-4.42,4.23-2.97,7.45.15,1.45.28,2.9.52,4.36l.05.88c-11.24-2.9,3.49-10.9-3.28-14.81.12-.36.35-1.08.46-1.44h0Z"/>
      <path class="cls-208" d="m167.48,201.47c4.53-.29,9.69,5.07,6.86,9.39-1.68-.07-5.04-.21-6.72-.28,1.04-2.64,7.45-1,4.82-4.44-4.1-6.04-10.36,3.46-16.32.97,1.31-6.29,6.6.27,9.25-3.42.68-.77,1.38-1.51,2.11-2.22h0Z"/>
      <path class="cls-224" d="m156.12,207.17c5.96,2.49,12.22-7.01,16.32-.97,2.63,3.44-3.78,1.8-4.82,4.44-2.04.26-4.06.5-6.08.8-.53-4.2-3.25-1.97-5.19,0-1.28,1.55-1.79,3.59-3.28,4.98-.61-3.46.96-6.61,3.05-9.25h0Z"/>
      <path class="cls-77" d="m417.16,205.67c5.02-.53,23.51-2.28,16.67,8.02-6.43,9.7-31.31-.71-16.67-8.02Z"/>
      <path class="cls-173" d="m100.83,210.07c.77-.92,1.58-1.81,2.37-2.7-2.69,6.73,3.9,10.96,5.2,16.99-12.56-3.26-27.33,2.75-34.95,13.22-5.27,8.9-20.24,14.31-20.48,25.35,15.44.91,30.97,1.83,45.94-1.36,2.24,8.93,12.74,7.98,15.89.5,5.64.63,10.34-2.8,15.33-4.82-.86,2.1-1.74,4.2-2.77,6.23-2.44,3.54-5.17,6.84-7.85,10.2-9.92,9.78-17.75-3.83-22.1-10.54-10.89,4.92-23.17,1.25-34.53,4.56-5.35,1.75-14.84-2.53-11.61-9.2,3.23-4.92,6.19-10.01,9.21-15.05,1.97-3.03,3.77-6.14,5.73-9.15,8.33-12,25.7-12.32,33.99-22.92.15-.33.47-.98.63-1.31h0Z"/>
      <path class="cls-174" d="m198.61,208.57c11.19-2.61,21.99,2.64,33.13,2.46-.04.41-.14,1.21-.19,1.62-.33.22-1,.66-1.33.88-10.24-3.03-21.04-3.89-31.61-4.96Z"/>
      <path class="cls-69" d="m234.31,208.67c1.54-.55,3.1-1.07,4.68-1.54,2.17.81,4.3,1.72,6.47,2.57-3.67-.58-8.05,1.62-11.15-1.03h0Z"/>
      <path class="cls-145" d="m156.35,211.47c1.94-1.97,4.66-4.2,5.19,0-.19.37-.58,1.1-.78,1.47-2.22,1.12-4.59,1.89-4.41-1.47Z"/>
      <path class="cls-91" d="m231.97,209.47c.58-.18,1.75-.54,2.34-.72,3.1,2.65,7.48.45,11.15,1.03.63.2,1.87.6,2.49.8l-.44.73c-4.24,3.72-10.73,1.14-15.96,1.4.05-.41.15-1.21.19-1.62.06-.4.17-1.21.23-1.62h0Z"/>
      <path class="cls-118" d="m161.54,211.47c2.02-.3,4.04-.54,6.08-.8,1.68.07,5.04.21,6.72.28-14.89-2.58-12.41,8.22-13.74,18.77,7.11-4.56,10.84-14.6,20.76-14.41.4-.06,1.18-.17,1.57-.23,7.48,3.97,6.33,21.13,17.4,14.47-1.74.98-3.38,2.13-5.03,3.24-4.89-.37-5.79-5.78-7.86-9.26-1.26-2.41-2.8-4.87-5.26-6.19-2.81.71-5.49,1.99-7.76,3.79-1.16.92-2.29,1.87-3.29,2.97-3.99,2.55-6.33,9.88-11.8,9.09.15-5.33.42-10.67.88-15.96.18-1.45.34-2.88.55-4.29.2-.37.59-1.1.78-1.47h0Z"/>
      <path class="cls-12" d="m247.95,210.57c10.28-.36,20.58.41,30.65,2.59-.01,1.04-.09,2.1-.23,3.16-1.43.03-4.31.1-5.75.13,4.48-6.41-19.4-4.36-24.27-5.12l-.84-.03.44-.73Z"/>
      <path class="cls-19" d="m66.55,233.67c7.16-12.91,22.07-15.65,33.65-22.29-8.29,10.6-25.66,10.92-33.99,22.92l.34-.63h0Z"/>
      <path class="cls-219" d="m153.07,216.37c1.49-1.39,2-3.43,3.28-4.98-.18,3.36,2.19,2.59,4.41,1.47-.21,1.41-.37,2.84-.55,4.29,1.43,7.79-7.61,19.24-10.11,6.67-1.45-3.22.51-5.58,2.97-7.45h0Z"/>
      <path class="cls-97" d="m247.51,211.27l.84.03c1.15.97,2.23,2.04,3.3,3.13-.75,1.37-1.48,2.75-2.24,4.13-5.23.96-11.81-.76-15.48,3.99-.29-.25-.87-.76-1.16-1.02-.77-2.69-1.61-5.36-2.55-7.98.33-.22,1-.66,1.33-.88,5.23-.26,11.72,2.32,15.96-1.4h0Z"/>
      <path class="cls-176" d="m248.35,211.27c4.87.76,28.75-1.29,24.27,5.12-5.3.55-10.63,1.04-15.81,2.32-.33-.24-.98-.73-1.31-.97-1.31-1.1-2.62-2.19-3.85-3.34-1.07-1.09-2.15-2.16-3.3-3.13h0Z"/>
      <path class="cls-153" d="m459.26,213.97c9.4-3.42,3.81,9.11,11.22,10.65-2.04.45-4.06.97-6.11,1.37-.24-4.21,1.47-12.13-5.11-12.02Z"/>
      <path class="cls-143" d="m133.55,235.87c8.18-4.21,10.59-13.68,13.84-21.59,6.77,3.91-7.96,11.91,3.28,14.81.11,3.84.45,7.58,1.08,11.42.71,13.04-18.47,4.35-21.62,16.72l.02-.77c2.79-6.94,7.8-13.14,3.4-20.59h0Z"/>
      <path class="cls-80" d="m251.65,214.47c1.23,1.15,2.54,2.24,3.85,3.34-2.04.22-4.06.54-6.09.79.76-1.38,1.49-2.76,2.24-4.13h0Z"/>
      <path class="cls-191" d="m284.48,221.37c-7.9-5.51-.04-7.14,6.16-6.83-3.92.78-9.08,1.9-6.16,6.83Z"/>
      <path class="cls-196" d="m431.36,226.27c10.07-2.53,19.43-5.92,27.95-12.35,6.58-.11,4.87,7.81,5.11,12.02,1.53,1.43,2.92,3.1,2.93,5.34-3.99,12.64-15.25,20.68-26.77,26.25-6.13-4.38-3.34-11.38,2.25-5.43,7.58,3.15-.71-3.29-2.47-5.55,9.58.13,8.8-14.29,18.74-14.62,4.2-7.18-3.93-4.09-8.34-4.99-8.33,9.88-24.01,1.22-32.66,11.27-.38.08-1.14.25-1.52.33,2.56-6.53,11.14-6.61,14.78-12.27h0Z"/>
      <path class="cls-12" d="m256.81,218.77c5.18-1.28,10.51-1.77,15.81-2.32-1.53.92-6.33,2.36-3.15,4.16,9.43,1.33,13.44,16.49,3.92,20.71-4.07,1.66.45,3.62,2.42,4.77-4.46-.78-9.01-1.03-13.51-1.3-5.68-6.99,14.28-2.98,7.44-6.96-16.35,2.02-32.95,3.35-47.64,11.6-5.75,4.25-8.49-1.91-13.8-2.8-4.37-3.54-10.6-2.88-15.77-4.02-5.49,8,5.48,12.39,11.77,11.1,11.95-.99-2.82,5.66-2.84,11.83-.35.42-1.05,1.27-1.4,1.69-11.47-4.34-23.77-5.84-35.82-8.27-4.84-.02-9.46,5.26-14.2,1.84-3.88-3.64-10.26,6.44-3.53,6.6,10.96.51,22.93,9.25,33.28,2.12,4.47-.04,16.46-5.6,16.76,2.83-.7,1.01-1.42,2.02-2.09,3.07-4.39-2.21-15.31-7.28-15.67.89-17.79-6.37-36.52-1.15-54.81-2.67-2.77.76-5.21,2.36-7.62,3.85,1.08-1.24,2.11-2.52,3.15-3.79,2.68-3.36,5.41-6.66,7.85-10.2,3.99-4.82,8.9-9.02,15.03-10.78l.77-.15c-3.02,7.91,5.65,2.38,9.93,4.37,7.43,2.88,5.8-14.96-.8-7.56.11-.4.33-1.2.44-1.59,6.42-8.32.56-11.38-2.11-19.54-.24-1.46-.37-2.91-.52-4.36,2.5,12.57,11.54,1.12,10.11-6.67-.46,5.29-.73,10.63-.88,15.96,5.47.79,7.81-6.54,11.8-9.09-9.99,12.98,4.47,9.73,11.46,5.76,7.33-.67-4.37,4.99.23,6.32,8.13,2.01,6.1-8.21,4.62-12.65,2.07,3.48,2.97,8.89,7.86,9.26-2.67,1-10.6,8.88-4.19,6.56,5.65-6.46,12.84,2.89,19.66.45,15.38-4.32,36.41,8.05,47.53-8.45-3.2-3.26-11.28-.48-15.77-3.43,5.88.19,13.96-2.24,14.28-9.14h0Z"/>
      <path class="cls-211" d="m272.62,216.37c1.44-.03,4.32-.1,5.75-.13,8.32,9.92,2.84,22.6,1.87,33.4-2.18,1.03-13.26,4.44-6.4,6.27,8.59-2.33,15.39,3.44,22.91,6.24,4.14,4.44,1.43,14.19-5.72,12.04.56-1.46,1.11-2.92,1.63-4.38,5.09-6.1-6.09-8.56-10.52-10.03-11.99,2.22-23.38-2.56-35.15-3.75.52-.45,1.57-1.34,2.09-1.79,10.54.76,20.98-1.44,30.54-5.85-.53-1.73-2.4-1.84-3.81-2.38-1.97-1.15-6.49-3.11-2.42-4.77,9.52-4.22,5.51-19.38-3.92-20.71-3.18-1.8,1.62-3.24,3.15-4.16Z"/>
      <path class="cls-222" d="m174.42,221.07c2.27-1.8,4.95-3.08,7.76-3.79,9.2,9.05-1.73,12.48-10.65,12.11-.25-3.2,3.62-5.11,2.89-8.32Z"/>
      <path class="cls-13" d="m182.18,217.27c2.46,1.32,4,3.78,5.26,6.19,1.48,4.44,3.51,14.66-4.62,12.65-4.6-1.33,7.1-6.99-.23-6.32-6.99,3.97-21.45,7.22-11.46-5.76,1-1.1,2.13-2.05,3.29-2.97.73,3.21-3.14,5.12-2.89,8.32,8.92.37,19.85-3.06,10.65-12.11Z"/>
      <path class="cls-95" d="m249.41,218.57c2.03-.25,4.05-.57,6.09-.79.33.24.98.73,1.31.97-.32,6.9-8.4,9.33-14.28,9.14-3.28-1.06-6.07-3.1-8.6-5.33,3.67-4.75,10.25-3.03,15.48-3.99Z"/>
      <path class="cls-220" d="m224.41,222.47c2.77-.44,5.55-.76,8.36-.92.29.26.87.77,1.16,1.02,2.53,2.23,5.32,4.27,8.6,5.33,4.49,2.95,12.57.17,15.77,3.43-11.12,16.5-32.15,4.13-47.53,8.45-6.82,2.44-14.01-6.91-19.66-.45-6.41,2.32,1.52-5.56,4.19-6.56,1.65-1.11,3.29-2.26,5.03-3.24,3.76-1.47,7.48-3.14,11.37-4.31,4.36-.11,9.07.08,12.71-2.75h0Z"/>
      <path class="cls-36" d="m211.7,225.17c4.16-1.18,8.42-2.06,12.71-2.75-3.64,2.83-8.35,2.64-12.71,2.75Z"/>
      <path class="cls-37" d="m464.36,225.97c2.05-.4,4.07-.92,6.11-1.37l.46.63c-1.08,2.1-2.34,4.1-3.64,6.08-.01-2.24-1.4-3.91-2.93-5.34h0Z"/>
      <path class="cls-151" d="m470.96,225.17c.14,4.51-3.74,10.92,2.66,5.49-8.02,21.74-20.51,44.43-42.39,54.62-21.96,12.78-43.86,26.94-68.6,33.66-33.74,1.22-67.43,5.91-101.2,3.39-20.07,1.35-42.35,2.1-60.11-8.85,3.5-1.31,10.46-3.37,7.44-8.31-8.84-2.82-19.84-2.15-26.72-9.67.61-3.47,3.71-2.58,6.29-2.07,33.4,7.3,66.24,18.76,100.63,20.94.34.33,1.03.99,1.37,1.32,9.42,2.99,23.21,3.41,32.01-.35l.36-.88c16.56-1.08,32.68-5.95,47.77-12.7,2.66-1.35,5.23-2.89,7.89-4.25,21.29-11.39,43.83-21.74,61.08-39.06.28-.24.83-.71,1.11-.95,11.52-5.57,22.78-13.61,26.77-26.25,1.3-1.98,2.56-3.98,3.64-6.08h0Z"/>
      <path class="cls-186" d="m372.46,256.67c18.28-12.33,39.95-18.84,58.83-30.35-3.64,5.66-12.22,5.74-14.78,12.27-2.65,1.1-5.34,2.14-8.11,2.87-12.86,2.51-23.48,11.18-35.94,15.21h0Z"/>
      <path class="cls-214" d="m450.76,226.97c4.41.9,12.54-2.19,8.34,4.99-9.94.33-9.16,14.75-18.74,14.62,1.76,2.26,10.05,8.7,2.47,5.55-5.59-5.95-8.38,1.05-2.25,5.43-.28.24-.83.71-1.11.95-4.72,3.13-7.74,4.78-8.82.29-4.67,10.2-20.49,1.15-21.41,13.03-4.39-.53-15.4-2.52-11.09,4.74-3.11,2.21-7.26,3.58-10.66,1.18,2.57,6.9-5.37,2.79-8.75,5.63,2.43,5.85,8.1,10.47-.35,14.19-7.32-3-16.29-2.38-7.89,4.25-6.15,3.08-7.86-3.88-11.77-5.03-2.45,6.96-9.16,12.12-16.72,11.34-1.88-3.58,7.7-3.71,4.89-8.19-10.26-2.36-8.24,15.2-20.11,11.37-5.2-5.04,10.52-2.86,7.18-8.7-13.97,1.67-27.97,2.68-42.03,2.98-4.21-1.15-7.65,6.24-10.76,2.79,2.03-6.98-9.82-6.68-11.23-3.58,4.74,4.39-1.3,4.88-5.42,4.48-3.46-2.48,3.37-7.56-1.15-8.92-19.97-1.21-39.06-9.88-59.4-10.12-3.15-3.47-3.99-12.53-9.26-6.42-7.66,7.17,8.09,5.47,9.6,10.61-5.26-.94-10.56-1.56-15.9-1.77-11.14-.71,10.45-17.3-4.09-13.28-4.66-.67-9.29-.47-13.94-.51-6.45-.37-12.92-.82-19.14,1.31-8.62,1.55-17.32,2.6-25.56,5.67-3.97-10.02-12.44-.86-18.65-.26,3.16-1.56,5.52-4.16,7.67-6.88.42-.31,1.27-.93,1.69-1.24,2.41-1.49,4.85-3.09,7.62-3.85,18.29,1.52,37.02-3.7,54.81,2.67.36-8.17,11.28-3.1,15.67-.89-5.35,5.51,2.47,5.45,6.92,5.01,8.44,6.14,20.45,5.41,29.87,10.18,40.69,7.83,86.26,19.93,125.79.54,25.69-17.45,55.13-27.83,80.97-44.74,4.62-11.96-12.89-7.55-19.95-8.15,8.65-10.05,24.33-1.39,32.66-11.27h0Z"/>
      <path class="cls-38" d="m150.62,228.17c2.67,8.16,8.53,11.22,2.11,19.54-.34-2.45-.67-4.86-.98-7.24-.63-3.84-.97-7.58-1.08-11.42l-.05-.88Z"/>
      <path class="cls-53" d="m56.68,244.97c3.03-3.99,6.39-7.71,9.87-11.31l-.34.63c-1.96,3.01-3.76,6.12-5.73,9.15-1.37.99-2.76,1.94-4.12,2.95.08-.36.24-1.06.32-1.42h0Z"/>
      <path class="cls-40" d="m222.1,249.37c14.69-8.25,31.29-9.58,47.64-11.6,6.84,3.98-13.12-.03-7.44,6.96-6.72-.29-13.53-1-20.16.39-14.87,2.36-30.64,8.24-39.99,20.64l-.69-.28c.02-6.17,14.79-12.82,2.84-11.83,2.41-1.67,4.51-3.92,4-7.08,5.31.89,8.05,7.05,13.8,2.8h0Z"/>
      <path class="cls-17" d="m418.06,238.27c7.06.6,24.57-3.81,19.95,8.15-25.84,16.91-55.28,27.29-80.97,44.74-39.53,19.39-85.1,7.29-125.79-.54-9.42-4.77-21.43-4.04-29.87-10.18.67.06,2.01.16,2.68.22.64.24,1.93.72,2.57.96,12.34-3.1,18.95,5.29,29.23,6.67,6.43-12,19.6-16.59,32.76-15.73.36.19,1.08.56,1.44.75,1.86,1.02,3.73,2.07,5.65,3.02-3.72-.79-2.57,8.16,1.31,5.75,14.66-4.69,29.27,5.32,43.94.81-1.62.96-3.03,2.45-4.95,2.77-4.99,1.83-24.29-4.04-15.89,6-5.79,10.32,13.45,8.04,18.6,3.72,14.16.41,26.75-1.86,39.55-7.99-8.55-9.33,8.52-2.99,6.37-13.67-8.49,4.2-18.05,4.97-27.32,6.04,13.47-7.15,30.59-7.3,42.22-17.45,14.7-3.6,29.47-11.41,38.52-24.04m-128.26,44.74c-8.71-.62-14.73,3.57-11.66,11.86,8.16,9.54,27.52-13.47,11.66-11.86Z"/>
      <path class="cls-227" d="m408.46,241.47c2.77-.73,5.46-1.77,8.11-2.87.38-.08,1.14-.25,1.52-.33-9.05,12.63-23.82,20.44-38.52,24.04-11.63,10.15-28.75,10.3-42.22,17.45-1.45.31-2.9.61-4.34.88-3.27.82-8.04-1.65-10.58,1.43-.36.2-1.08.61-1.44.82-14.67,4.51-29.28-5.5-43.94-.81-3.88,2.41-5.03-6.54-1.31-5.75,4.41,1.29,9.14,1.05,13.29-1.03,13.34,10.36,38.76,5.73,55.09-1.1,13.15-5.43,25.86-11.87,38.3-18.81,9.96-2.66,18.49-5.25,26.04-13.92h0Z"/>
      <path class="cls-126" d="m129.79,239.87c4.96-.83-1.21,5.43,1.36,8.38-8.34,2.93-17.49,5.27-22.1,13.9-9.6,2.06-11.91-9.26-9.56-15.54,9.32-4.64,20.93-1.64,30.3-6.74Z"/>
      <path class="cls-112" d="m151.75,240.47c.31,2.38.64,4.79.98,7.24-3.65,1.2-7.88,1.66-10.34,4.93-6.13,1.76-11.04,5.96-15.03,10.78,1.03-2.03,1.91-4.13,2.77-6.23,3.15-12.37,22.33-3.68,21.62-16.72h0Z"/>
      <path class="cls-30" d="m372.46,256.67c12.46-4.03,23.08-12.7,35.94-15.21-7.55,8.67-16.08,11.26-26.04,13.92-12.44,6.94-25.15,13.38-38.3,18.81-8.44,1.27-25.61,7.75-29.1,3.09.63-.13,1.9-.41,2.53-.54,1.72-.38,3.44-.75,5.18-1.07,5.11.18,10.26-.57,14.77-3.08,8-1.5,14.77-6.79,21.89-10.69,3.97.49,7.83-.96,10.25-4.21.95-.34,1.91-.68,2.88-1.02h0Z"/>
      <path class="cls-101" d="m192.53,242.57c5.17,1.14,11.4.48,15.77,4.02.51,3.16-1.59,5.41-4,7.08-6.29,1.29-17.26-3.1-11.77-11.1Z"/>
      <path class="cls-4" d="m56.36,246.37c1.36-1.01,2.75-1.96,4.12-2.95-3.02,5.04-5.98,10.13-9.21,15.05-6.82,3.41-1.12,6.36,1.21,10.38-4.29-1.05-9.2-1.7-12.62,1.69-.4-1.72-.85-3.42-1.2-5.13,6.72-5.33,13.92-11.13,17.7-19.04Z"/>
      <path class="cls-154" d="m44.28,257.27c2.71-5.37,7.65-8.92,12.4-12.34-.08.36-.24,1.06-.32,1.42-3.82,3.86-7.96,7.39-12.08,10.92h0Z"/>
      <path class="cls-175" d="m242.14,245.17c6.63-1.39,13.44-.68,20.16-.39,4.5.27,9.05.52,13.51,1.3,1.41.54,3.28.65,3.81,2.38-9.56,4.41-20,6.61-30.54,5.85,7.1-1.28,16.49-2.84,21.34-6.92-6.9-4.69-19.56-.57-28.28-2.22Z"/>
      <path class="cls-131" d="m202.15,265.77c9.35-12.4,25.12-18.28,39.99-20.64,8.72,1.65,21.38-2.47,28.28,2.22-4.85,4.08-14.24,5.64-21.34,6.92-2.52-.02-5.01-.04-7.48-.05-.46-.03-1.38-.09-1.84-.11-2.89-1.55-11.03-1.29-8.65,3.86,5.59,15.17-14.34,25.17-27.05,22.63-8.75.52-9.64-4.78-4.63-10.02-2.92,9.72,9.76,1.49,8.48,8.91,9.39-.02,18.97-6.14,22.35-14.82-4.51-3.23-4.46-8.27-3.7-12.69-9.8.13-17.22,9.1-24.3,15.26-.03-.37-.08-1.1-.11-1.47h0Z"/>
      <path class="cls-47" d="m44.28,257.27c4.12-3.53,8.26-7.06,12.08-10.92-3.78,7.91-10.98,13.71-17.7,19.04-.08-.38-.24-1.13-.32-1.51,1.96-2.22,3.97-4.4,5.94-6.61Z"/>
      <path class="cls-40" d="m142.39,252.67c2.46-3.27,6.69-3.73,10.34-4.93-.11.39-.33,1.19-.44,1.59-2.69,1.81-6.04,2.32-9.13,3.19l-.77.15h0Z"/>
      <path class="cls-14" d="m152.29,249.37c6.6-7.4,8.23,10.44.8,7.56-4.28-1.99-12.95,3.54-9.93-4.37,3.09-.87,6.44-1.38,9.13-3.19h0Z"/>
      <path class="cls-76" d="m356.52,249.27c8.91-3.8,8.75,6.86,4.71,11.22-.47.33-1.4,1.01-1.87,1.34-7.12,3.9-13.89,9.19-21.89,10.69,13.65-4.69-14.01-3.15-6.88-12.82,7.93-4.93,19.36-1.97,25.93-10.43h0Z"/>
      <path class="cls-25" d="m297.36,250.07c8.56.12,2.76,10.5,3.09,15.5,0-5.35,3.8-13.19-3.09-15.5Z"/>
      <path class="cls-136" d="m202.26,267.27c7.08-6.16,14.5-15.13,24.3-15.26-.76,4.42-.81,9.46,3.7,12.69-3.38,8.68-12.96,14.8-22.35,14.82,1.28-7.42-11.4.81-8.48-8.91.87-1.17,1.86-2.25,2.83-3.34h0Z"/>
      <path class="cls-39" d="m231.11,257.97c-2.38-5.15,5.76-5.41,8.65-3.86-2.67.68-8.48-.39-6.85,3.82,4.53,14.96-12,27.78-26.28,23.63-.64-.24-1.93-.72-2.57-.96,12.71,2.54,32.64-7.46,27.05-22.63Z"/>
      <path class="cls-15" d="m232.91,257.97c-1.63-4.21,4.18-3.14,6.85-3.82.46.02,1.38.08,1.84.11l-.59.72c-3.72-.16-7.6.17-6.85,4.44,5.94,14.28,24.24,7.07,35.24,4.95-.3,2.68-.49,5.44-.78,8.17-13.16-.86-26.33,3.73-32.76,15.73-10.28-1.38-16.89-9.77-29.23-6.67,14.28,4.15,30.81-8.67,26.28-23.63h0Z"/>
      <path class="cls-35" d="m241.6,254.27c2.47.01,4.96.03,7.48.05-.52.45-1.57,1.34-2.09,1.79,11.77,1.19,23.16,5.97,35.15,3.75,4.43,1.47,15.61,3.93,10.52,10.03-1.02-.9-2.02-1.78-3.09-2.55-5.97-2.92-13.93-7.28-20.17-2.96-11,2.12-29.3,9.33-35.24-4.95,4.66,3.33,13.4.13,6.85-4.44l.59-.72h0Z"/>
      <path class="cls-199" d="m234.16,259.37c-.75-4.27,3.13-4.6,6.85-4.44,6.55,4.57-2.19,7.77-6.85,4.44Z"/>
      <path class="cls-190" d="m361.26,260.47c2.66-1.3,5.52-2.11,8.38-2.87-2.42,3.25-6.28,4.7-10.25,4.21.47-.33,1.4-1.01,1.87-1.34Z"/>
      <path class="cls-43" d="m52.48,268.87c-2.33-4.02-8.03-6.97-1.21-10.38-3.23,6.67,6.26,10.95,11.61,9.2,11.36-3.31,23.64.36,34.53-4.56,1.79,3.11,2.62,6.64,3.22,10.15-14.53-4.41-30.06-6.33-45.03-3.07.82,1.54,1.88,2.96,2.86,4.43-1.42-1.17-3.04-2.04-4.68-2.8-.19-.37-.57-1.1-.77-1.47-.13-.37-.4-1.12-.53-1.5h0Z"/>
      <path class="cls-38" d="m150.04,260.77c4.74,3.42,9.36-1.86,14.2-1.84,12.05,2.43,24.35,3.93,35.82,8.27-1.17,1.7-2.32,3.42-3.51,5.12-.3-8.43-12.29-2.87-16.76-2.83-10.35,7.13-22.32-1.61-33.28-2.12-6.73-.16-.35-10.24,3.53-6.6m11.95,2.11c-5.45-.55-7.56,4.34-1.46,5.46,9.34,7.32,17.87-2.66,27.76-1.83-5.95-4.39-18.26-3.74-26.3-3.63Z"/>
      <path class="cls-197" d="m409.16,271.77c.92-11.88,16.74-2.83,21.41-13.03,1.08,4.49,4.1,2.84,8.82-.29-17.25,17.32-39.79,27.67-61.08,39.06,8.45-3.72,2.78-8.34.35-14.19,3.38-2.84,11.32,1.27,8.75-5.63,3.4,2.4,7.55,1.03,10.66-1.18-4.31-7.26,6.7-5.27,11.09-4.74Z"/>
      <path class="cls-74" d="m37.87,261.47c.12.62.35,1.87.47,2.49.08.38.24,1.13.32,1.51.35,1.71.8,3.41,1.2,5.13.08.4.22,1.19.3,1.59-3.43,1.38-7.17,1.67-10.79,2.17,1.48-4.91,8.34-7.05,8.5-12.89Z"/>
      <path class="cls-116" d="m161.99,262.87c8.04-.11,20.35-.76,26.3,3.63-9.89-.83-18.42,9.15-27.76,1.83-6.1-1.12-3.99-6.01,1.46-5.46Z"/>
      <path class="cls-71" d="m269.4,264.37c6.24-4.32,14.2.04,20.17,2.96-3.54,9.86-12.88,2.51-19.51,5.96-.36-.19-1.08-.56-1.44-.75.29-2.73.48-5.49.78-8.17h0Z"/>
      <path class="cls-180" d="m97.41,263.07c4.35,6.71,12.18,20.32,22.1,10.54-1.04,1.27-2.07,2.55-3.15,3.79-.42.31-1.27.93-1.69,1.24-3.26,2.07-6.29,4.48-9.3,6.91-.63-.05-1.9-.13-2.54-.18-.79-4.07-1.42-8.1-2.2-12.15-.6-3.51-1.43-7.04-3.22-10.15Z"/>
      <path class="cls-166" d="m201.46,265.47l.69.28c.03.37.08,1.1.11,1.47-.97,1.09-1.96,2.17-2.83,3.34-5.01,5.24-4.12,10.54,4.63,10.02-.67-.06-2.01-.16-2.68-.22-4.45.44-12.27.5-6.92-5.01.67-1.05,1.39-2.06,2.09-3.07,1.19-1.7,2.34-3.42,3.51-5.12.35-.42,1.05-1.27,1.4-1.69h0Z"/>
      <path class="cls-8" d="m12.91,267.77c11.02,6.39,8.96,23.28,17.82,32.38,12.9,16.58,33.39,24.87,53.81,26.64-.65.24-1.95.73-2.6.98-24.83-2.98-54.21-6.16-69.08-29.14-1.41-10.24.29-20.58.05-30.86Z"/>
      <path class="cls-20" d="m39.86,270.57c3.42-3.39,8.33-2.74,12.62-1.69.13.38.4,1.13.53,1.5-3.59.7-8.89-1.13-11.43,2.5l-.57.64c-.22-.34-.64-1.02-.85-1.36-.08-.4-.22-1.19-.3-1.59h0Z"/>
      <path class="cls-94" d="m270.06,273.27c6.63-3.45,15.97,3.9,19.51-5.96,1.07.77,2.07,1.65,3.09,2.55-.52,1.46-1.07,2.92-1.63,4.38-.51.26-1.53.77-2.03,1.02-4.15,2.08-8.88,2.32-13.29,1.03-1.92-.95-3.79-2-5.65-3.02h0Z"/>
      <path class="cls-203" d="m55.6,270.17c14.97-3.26,30.5-1.34,45.03,3.07.78,4.05,1.41,8.08,2.2,12.15-6.26-16.5-29.92-2.45-44.37-10.79-.98-1.47-2.04-2.89-2.86-4.43h0Z"/>
      <path class="cls-185" d="m314.99,277.27c-7.5,1.31-20.35,4.28-14.92-8.01-3.57,12.82,11.07,6.44,17.45,7.47-.63.13-1.9.41-2.53.54Z"/>
      <path class="cls-26" d="m41.58,272.87c2.54-3.63,7.84-1.8,11.43-2.5.2.37.58,1.1.77,1.47-4.11-.24-8.21,0-12.2,1.03Z"/>
      <path class="cls-152" d="m41.58,272.87c3.99-1.03,8.09-1.27,12.2-1.03,1.64.76,3.26,1.63,4.68,2.8,16.29,22.7,44.58,11.13,67.19,11.2,8.24-3.07,16.94-4.12,25.56-5.67,4.73-.55,9.77-1.01,14.26,1-6.17,4.9-18.41,6.34-16.99,16.4-21.44,9.3-46.39,5.59-69.31,4.17-16.68-.47-32.97-12.39-38.16-28.23l.57-.64h0Z"/>
      <path class="cls-55" d="m322.7,275.67c4.74-1.82,9.68-2.91,14.77-3.08-4.51,2.51-9.66,3.26-14.77,3.08Z"/>
      <path class="cls-12" d="m337.32,279.67c9.27-1.07,18.83-1.84,27.32-6.04,2.15,10.68-14.92,4.34-6.37,13.67-12.8,6.13-25.39,8.4-39.55,7.99-5.15,4.32-24.39,6.6-18.6-3.72-8.4-10.04,10.9-4.17,15.89-6-2.02,1.09-13.84.55-9.51,4.97,14.79,2.93,31.47,5.03,43.26-7.3-4.37-4.35-11.37-1.73-16.78-2.69,1.44-.27,2.89-.57,4.34-.88h0Z"/>
      <path class="cls-223" d="m58.46,274.67c14.45,8.34,38.11-5.71,44.37,10.79.64.05,1.91.13,2.54.18.41-.01,1.22-.02,1.63-.03,6.21-.6,14.68-9.76,18.65.26-22.61-.07-50.9,11.5-67.19-11.2h0Z"/>
      <path class="cls-225" d="m105.37,285.57c3.01-2.43,6.04-4.84,9.3-6.91-2.15,2.72-4.51,5.32-7.67,6.88-.41.01-1.22.02-1.63.03Z"/>
      <path class="cls-110" d="m151.21,280.17c6.22-2.13,12.69-1.68,19.14-1.31-1.54.88-3.02,2.33-4.88,2.31-4.49-2.01-9.53-1.55-14.26-1Z"/>
      <path class="cls-231" d="m184.29,279.37c14.54-4.02-7.05,12.57,4.09,13.28l-.06.83c-2.58-.51-5.68-1.4-6.29,2.07-8.2-5.29,3.33-9.49,2.26-16.18h0Z"/>
      <path class="cls-40" d="m322.4,282.07c2.54-3.08,7.31-.61,10.58-1.43,5.41.96,12.41-1.66,16.78,2.69-11.79,12.33-28.47,10.23-43.26,7.3-4.33-4.42,7.49-3.88,9.51-4.97,1.92-.32,3.33-1.81,4.95-2.77.36-.21,1.08-.62,1.44-.82-15.7,10.25,13.8,11.72,15.17,2.49-4.49-2.82-10.18-1.71-15.17-2.49h0Z"/>
      <path class="cls-194" d="m194.68,283.77c5.27-6.11,6.11,2.95,9.26,6.42,20.34.24,39.43,8.91,59.4,10.12,4.52,1.36-2.31,6.44,1.15,8.92,4.12.4,10.16-.09,5.42-4.48,1.41-3.1,13.26-3.4,11.23,3.58,3.11,3.45,6.55-3.94,10.76-2.79,14.06-.3,28.06-1.31,42.03-2.98,3.34,5.84-12.38,3.66-7.18,8.7,11.87,3.83,9.85-13.73,20.11-11.37,2.81,4.48-6.77,4.61-4.89,8.19,7.56.78,14.27-4.38,16.72-11.34,3.91,1.15,5.62,8.11,11.77,5.03-15.09,6.75-31.21,11.62-47.77,12.7-11.26.03-22.51-.15-33.74-.09-34.39-2.18-67.23-13.64-100.63-20.94l.06-.83c5.34.21,10.64.83,15.9,1.77-1.51-5.14-17.26-3.44-9.6-10.61h0Z"/>
      <path class="cls-9" d="m289.8,282.97c15.86-1.61-3.5,21.4-11.66,11.86-3.07-8.29,2.95-12.48,11.66-11.86Z"/>
      <path class="cls-116" d="m322.4,282.07c4.99.78,10.68-.33,15.17,2.49-1.37,9.23-30.87,7.76-15.17-2.49Z"/>
      <path class="cls-213" d="m370.46,301.77c-8.4-6.63.57-7.25,7.89-4.25-2.66,1.36-5.23,2.9-7.89,4.25Z"/>
      <path class="cls-122" d="m66.47,311.07c8.65-.83,22.1,1.48,32.64,1.63,9.66.91,19.38.9,29.09.68.36.2,1.09.61,1.45.82-20.23,5.74-43.46,3.93-63.18-3.13h0Z"/>
      <path class="cls-90" d="m99.11,312.77c8.62.93,22.58-2.64,29.09.68-9.71.22-19.43.23-29.09-.68Z"/>
      <path class="cls-222" d="m288.95,314.37c11.23-.06,22.48.12,33.74.09l-.36.88c-10.68-.03-21.35.19-32.01.35-.34-.33-1.03-.99-1.37-1.32Z"/>
      <path class="cls-127" d="m290.32,315.77c10.66-.16,21.33-.38,32.01-.35-8.8,3.76-22.59,3.34-32.01.35Z"/>
      <path class="cls-233" d="m84.53,326.77c13.58-2.12,6.69,5.21-2.6.98.65-.25,1.95-.74,2.6-.98Z"/>
      <path class="cls-233" d="m287.33,341.47c14.01-.07,28.02.03,42.05.03-11.57,1.33-30.62,2.22-42.05-.03Z"/>
    </g>
  </g>
</svg>