<?xml version="1.0" encoding="UTF-8" standalone="no"?>
<svg id="svg4268" xmlns:rdf="http://www.w3.org/1999/02/22-rdf-syntax-ns#" xmlns="http://www.w3.org/2000/svg" height="279.71mm" width="114.63mm" version="1.1" xmlns:cc="http://creativecommons.org/ns#" xmlns:dc="http://purl.org/dc/elements/1.1/" viewBox="0 0 406.17139 991.09947">
<g id="layer1" transform="translate(-190.15 122.24)">
<g id="g4898" transform="matrix(1.4981 0 0 1.4981 -94.718 -432.79)">
<path id="rect3220" style="color:#000000" d="m205.07 812.64c30.203-54.321 220.1-50.57 241.97 0 2.8803 4.8404 3.0754 15.073 0 20.751-48.665 49.332-210.56 41.447-241.97 0-3.642-4.4348-4.095-16.937 0-20.751z" stroke="#ccc" stroke-width="2.718" fill="#ccc"/>
<path id="path3223" stroke-linejoin="round" style="color:#000000" d="m215.87 824.34c38.883 29.471 159.39 36.826 219.68 1.5818" stroke="#fff" stroke-linecap="round" stroke-width="3.3448" fill="none"/>
<g>
<path id="path3165" stroke-linejoin="round" style="color:#000000" d="m255.09 799.36c29.259-9.6378 53.076-29.847 59.727-83.396v-163.59h21.331v163.59c9.2226 40.029 23.438 74.427 60.201 83.396" stroke="#fff" stroke-linecap="round" stroke-width="3.8663" fill="#ccc"/>
<path id="path3980" style="color:#000000" d="m204.74 462.68h245l-10.254 30.396-15.747 22.339-31.861 26.001-26.001 10.62-28.565 5.8594-27.832-2.9297-26.367-6.9581-21.973-8.7891-18.677-13.916-17.944-19.043-10.62-16.48-5.4932-10.62z" stroke="#0f0" stroke-width="1.4726px" fill="#ec5b09"/>
<path id="path3982" style="color:#000000" fill="#f8813e" d="m441.81 462.27a115.34 26.949 0 0 1 -115.09 26.95 115.34 26.949 0 0 1 -115.59 -26.83 115.34 26.949 0 0 1 114.59 -27.07 115.34 26.949 0 0 1 116.09 26.72"/>
</g>
<g stroke-linejoin="round" stroke-linecap="round" fill="none">
<path id="path3949" style="color:#000000" d="m204.51 352.28c-64.417 264.66 316.7 263.64 239.39 0h0.72661" stroke="#fff" stroke-width="11.086"/>
<path id="path3935" style="color:#000000" d="m203.55 352.85c-66.509 271.85 320.98 270.8 241.16 0" stroke="#ccc" stroke-width="11.417"/>
<path id="path3953" style="color:#000000" stroke="#ccc" stroke-width="5.6298" d="m447.7 352.31a122.99 25.698 0 0 1 -122.72 25.69 122.99 25.698 0 0 1 -123.25 -25.58 122.99 25.698 0 0 1 122.18 -25.81 122.99 25.698 0 0 1 123.79 25.47"/>
</g>
<g id="g3966" stroke-linejoin="round" transform="matrix(1.1171 0 0 1.1224 -161.9 70.479)" stroke="#fff" stroke-linecap="round">
<path id="path3957" style="color:#000000" d="m330.04 247.29c27.972-24.004 184.92-23.638 211.3-0.35063" stroke-width="3.151" fill="none"/>
<path id="path3959" style="color:#000000" d="m332.75 244.54c-2.7643 0.28648-4.9212 2.694-4.9212 5.5904 0 3.0896 2.4543 5.5904 5.4819 5.5904 0.31178 0 0.6057-0.047 0.90327-0.098v-11.017c-0.29915-0.0516-0.58983-0.0654-0.90327-0.0654-0.18922 0-0.37635-0.0191-0.56064 0z" stroke-width="1.0211" fill="#fff"/>
<path id="path3964" style="color:#000000" d="m538.5 244.17c2.7577 0.29588 4.9094 2.7824 4.9094 5.7739 0 3.191-2.4484 5.7739-5.4687 5.7739-0.31103 0-0.60424-0.0486-0.90109-0.10125v-11.379c0.29843-0.0533 0.5884-0.0676 0.90109-0.0676 0.18877 0 0.37545-0.0198 0.55929 0z" stroke-width="1.0365" fill="#fff"/>
</g>
<g>
<path id="path3988" style="color:#000000" d="m-504.32 180.94a3.0472 162.08 0 0 1 -3.0406 162.08 3.0472 162.08 0 0 1 -3.0538 -161.38 3.0472 162.08 0 0 1 3.0273 -162.78 3.0472 162.08 0 0 1 3.0669 160.67" transform="matrix(-.92065 -.39039 -.40729 .91330 0 0)" fill="#a40"/>
<path id="path3990" style="color:#000000" d="m-479.86 146.38a22.142 32.142 0 0 1 -22.094 32.142 22.142 32.142 0 0 1 -22.19 -32.002 22.142 32.142 0 0 1 21.998 -32.28 22.142 32.142 0 0 1 22.285 31.862" transform="matrix(-.92296 -.38491 -.38491 .92296 0 0)" fill="#008000"/>
<path id="path4039" style="color:#000000" d="m102.57 431.6a3.0472 162.08 0 0 1 -3.0406 162.08 3.0472 162.08 0 0 1 -3.0538 -161.38 3.0472 162.08 0 0 1 3.0273 -162.78 3.0472 162.08 0 0 1 3.0669 160.67" transform="matrix(.92065 -.39039 .40729 .91330 0 0)" fill="#a40"/>
</g>
<path id="path3986" stroke-linejoin="round" style="color:#000000" d="m234.61 478.33c43.517 16.647 139.79 17.783 182.41 0" stroke="#fff" stroke-linecap="round" stroke-width="1.8263" fill="none"/>
<path id="path4015" style="color:#000000" d="m264.01 271.14c0.30632-0.002 0.60873 0.0123 0.91375 0.0158l0.75875 99.488c-0.30493 0.008-0.60704 0.0275-0.91338 0.0298-26.714 0.20375-48.543-21.913-48.753-49.398l-0.003-0.43395c0.0218-27.317 21.447-49.499 47.997-49.702z" fill="#ff0"/>
<path id="path4891" stroke-linejoin="round" style="color:#000000" d="m225.63 367.48c23.179 6.6205 60.091 10.531 99.35 10.525 39.076-0.0287 75.761-3.9356 98.832-10.525" stroke="#ccc" stroke-linecap="round" stroke-width="5.6298" fill="none"/>
<path id="path4896" style="color:#000000" d="m263.9 280.59c0.24812-0.002 0.49307 0.01 0.74014 0.0128l0.61458 80.585c-0.24699 0.006-0.4917 0.0222-0.73983 0.0241-21.638 0.16503-39.32-17.75-39.49-40.012l-0.003-0.3515c0.0176-22.127 17.372-40.094 38.878-40.258z" fill="#ffff90"/>
</g>
</g>
</svg>
