<?xml version="1.0" encoding="iso-8859-1"?>
<!-- Generator: Adobe Illustrator 18.0.0, SVG Export Plug-In . SVG Version: 6.00 Build 0)  -->
<!DOCTYPE svg PUBLIC "-//W3C//DTD SVG 1.1//EN" "http://www.w3.org/Graphics/SVG/1.1/DTD/svg11.dtd">
<svg version="1.1" id="_x36_" xmlns="http://www.w3.org/2000/svg" xmlns:xlink="http://www.w3.org/1999/xlink" x="0px" y="0px"
	 viewBox="0 0 512 512" style="enable-background:new 0 0 512 512;" xml:space="preserve">
<g>
	<polygon style="fill:#C8E7F1;" points="77.199,512 42.845,169.262 337.796,169.262 303.455,512 	"/>
	<polygon style="fill:#E5F4F7;" points="301.11,168.431 79.537,168.431 85.773,252.251 294.874,252.251 	"/>
	<polygon style="fill:#F29657;" points="85.773,252.251 107.237,466.366 273.409,466.366 294.874,252.251 	"/>
	<path style="fill:#FFFFFF;" d="M223.93,314.494c0,8.243-6.683,14.944-14.938,14.944c-8.249,0-14.932-6.701-14.932-14.944
		c0-8.256,6.683-14.944,14.932-14.944C217.247,299.549,223.93,306.238,223.93,314.494z"/>
	<path style="fill:#FFFFFF;" d="M226.419,401.628c0-4.121,3.338-7.466,7.466-7.466c4.128,0,7.472,3.345,7.472,7.466
		c0,4.122-3.344,7.46-7.472,7.46C229.757,409.089,226.419,405.75,226.419,401.628z"/>
	<path style="fill:#FFFFFF;" d="M196.542,369.263c0,6.87-5.568,12.45-12.437,12.45c-6.888,0-12.456-5.58-12.456-12.45
		c0-6.875,5.568-12.455,12.456-12.455C190.975,356.808,196.542,362.388,196.542,369.263z"/>
	<g>
		<polygon style="fill:#FEFFFF;" points="132.245,168.431 103.899,168.431 111.823,252.251 140.17,252.251 		"/>
		<polygon style="fill:#FFFFFF;" points="120.133,40.397 9.696,0 0,26.508 93.715,60.789 103.899,168.431 132.245,168.431 		"/>
		<polygon style="fill:#F7BB92;" points="111.823,252.251 127.732,420.381 155.819,417.73 140.17,252.251 		"/>
	</g>
</g>
</svg>
