<?xml version="1.0" encoding="UTF-8"?>
<svg id="_レイヤー_2" data-name="レイヤー 2" xmlns="http://www.w3.org/2000/svg" xmlns:xlink="http://www.w3.org/1999/xlink" viewBox="0 0 93.22 113.5">
  <defs>
    <style>
      .cls-1 {
        fill: url(#linear-gradient);
      }

      .cls-1, .cls-2, .cls-3, .cls-4, .cls-5 {
        stroke-width: 0px;
      }

      .cls-2 {
        opacity: .85;
      }

      .cls-2, .cls-3 {
        fill: #edebfd;
      }

      .cls-6 {
        stroke: #f7e4ac;
      }

      .cls-6, .cls-7 {
        fill: none;
        stroke-miterlimit: 10;
      }

      .cls-7 {
        stroke: #8498fb;
        stroke-width: .6px;
      }

      .cls-3 {
        opacity: .56;
      }

      .cls-4 {
        fill: url(#linear-gradient-2);
      }

      .cls-5 {
        fill: url(#linear-gradient-3);
      }
    </style>
    <linearGradient id="linear-gradient" x1=".3" y1="27.86" x2="92.93" y2="27.86" gradientUnits="userSpaceOnUse">
      <stop offset="0" stop-color="#ad9762"/>
      <stop offset="1" stop-color="#ad9562"/>
    </linearGradient>
    <linearGradient id="linear-gradient-2" x1="46.61" y1="26.49" x2="46.61" y2="98.23" gradientUnits="userSpaceOnUse">
      <stop offset="0" stop-color="#724700"/>
      <stop offset="1" stop-color="#720000"/>
    </linearGradient>
    <linearGradient id="linear-gradient-3" x1="46.58" y1="50.23" x2="46.58" y2="98.2" xlink:href="#linear-gradient-2"/>
  </defs>
  <g id="OBJECTS">
    <g>
      <path class="cls-1" d="m92.93,26.04c0,.14-.01.27-.03.41-1.8,14.19-90.65,14.25-92.57.02-.03-.14-.04-.29-.04-.43,0-9.92,92.63-9.92,92.63,0Z"/>
      <g>
        <path class="cls-4" d="m92.81,43.55c-.02,1.06-.05,2.12-.08,3.17-.04,1.35-.09,2.69-.14,4.02-.04,1.01-.08,2.01-.13,3-.03.76-.07,1.52-.11,2.28-.05.97-.1,1.94-.16,2.91-.05.8-.1,1.59-.15,2.38-.06.93-.13,1.86-.19,2.78-.06.78-.12,1.57-.18,2.35-.12,1.52-.26,3.03-.4,4.53-.02.22-.04.44-.06.66-.09.95-.19,1.9-.29,2.85-.01.13-.03.26-.05.39-.1,1-.22,1.99-.34,2.98-.41,3.42-.87,6.79-1.41,10.12.01.48,0,.95-.01,1.42v.04c0,.09,0,.17-.02.26-.03.5-.08,1-.15,1.48-3.95,9.64-83.93,9.39-83.93-.75-.08-.21-.16-.41-.23-.62,0-.14,0-.28,0-.41C1.22,69.25.07,48.15.33,26.51c1.91,13.11,90.73,13.1,92.57-.02.06,5.75.04,11.44-.09,17.06Z"/>
        <path class="cls-5" d="m92.48,53.31c0,.13,0,.27-.02.4-.03.76-.06,1.53-.1,2.28-.06.97-.11,1.94-.17,2.91-.05.8-.1,1.59-.15,2.39l-.19,2.77c-.06.79-.12,1.57-.18,2.36-.13,1.52-.26,3.02-.4,4.52-.03.22-.05.44-.06.67-.1.95-.19,1.9-.3,2.85,0,.13-.03.26-.05.39-.11,1-.22,1.99-.33,2.98-.42,3.42-.88,6.79-1.41,10.11.02.48,0,.95,0,1.42v.05c0,.08,0,.17-.02.25-1.41,11.49-84.31,11.39-84.31-.3-2.25-12.7-3.53-25.78-4.1-39.13,5.27.45,10.5,1.99,15.5,3.8,7.19,2.61,14.21,5.82,21.69,7.39,4.05.85,8.17,1.22,12.3,1.51,5.56.39,11.15.63,16.68-.07,9.12-1.15,17.68-4.82,25.64-9.54Z"/>
      </g>
      <path class="cls-7" d="m92.43,7.52c0,3.99-20.49,7.22-45.78,7.22S.88,11.5.88,7.52,21.37.3,46.65.3s45.78,3.23,45.78,7.22Z"/>
      <path class="cls-2" d="m6.15,35.88l5.78,13.11c.63,1.43,2.16,2.24,3.69,1.97l20.16-3.59c2-.36,3.24-2.38,2.64-4.32l-3.36-11c-.46-1.5-1.89-2.49-3.46-2.39l-22.59,1.48c-2.35.15-3.83,2.59-2.88,4.75Z"/>
      <path class="cls-2" d="m55.6,28.84l-4.19,17.05c-.62,2.51,1.04,5.02,3.59,5.43l15.39,2.5c2.54.41,4.9-1.42,5.13-3.99l1.53-17.3c.2-2.29-1.38-4.36-3.65-4.76l-12.73-2.25c-2.3-.41-4.52,1.04-5.07,3.31Z"/>
      <path class="cls-7" d="m89.09,89.66c-.03.44-.07.89-.13,1.32,0,.06,0,.11-.02.17-.04.23-.07.46-.12.69-.03.2-.07.4-.12.6-.1.5-.23,1-.39,1.48-.06.22-.14.44-.22.67-.16.44-.32.88-.52,1.3-.08.18-.17.36-.25.54-.03.06-.06.12-.09.18-.09.18-.18.36-.28.54-.21.41-.45.8-.71,1.2-.39.59-.8,1.16-1.25,1.72-.15.18-.3.36-.45.55-.31.36-.64.71-.98,1.06-.18.17-.34.34-.52.51-.36.33-.72.67-1.1.99-.57.48-1.16.94-1.78,1.4-.06.04-.1.07-.16.11-19.34,13.69-63.49,10.58-73.27-7.16-.8-1.44-1.38-2.99-1.68-4.62-.18-1.13-.27-2.31-.27-3.52,0,11.69,82.9,11.79,84.31.3Z"/>
      <path class="cls-6" d="m4.77,89.78c0-.14,0-.28,0-.42,0,1.21.09,2.39.27,3.52-.19-1-.29-2.03-.28-3.11Z"/>
      <path class="cls-3" d="m27.06,66.21l8.89,11.58c1.78,2.32,5.01,2.93,7.51,1.42l11.33-6.82c2.99-1.8,3.69-5.82,1.5-8.53l-8.63-10.66c-1.7-2.11-4.65-2.73-7.06-1.5l-11.6,5.9c-3.2,1.63-4.14,5.76-1.95,8.61Z"/>
      <path class="cls-7" d="m92.92,32.5c0,3.7-.04,7.38-.11,11.01-.03,1.06-.06,2.12-.08,3.17-.04,1.35-.08,2.69-.14,4.02-.03.88-.06,1.74-.11,2.61,0,.13,0,.27-.02.4-.03.76-.06,1.53-.1,2.28-.06.97-.11,1.94-.17,2.91-.05.8-.1,1.59-.15,2.39l-.19,2.77c-.06.79-.12,1.57-.18,2.36-.13,1.52-.26,3.02-.4,4.52-.03.22-.05.44-.06.67-.1.95-.19,1.9-.3,2.85,0,.13-.03.26-.05.39-.11,1-.22,1.99-.33,2.98-.42,3.42-.88,6.79-1.41,10.11.02.48,0,.95,0,1.42v.05c0,.08,0,.17-.02.25-.03.5-.08,1-.15,1.49-.8,5.58-4.08,10.09-8.93,13.53-19.33,13.7-63.5,10.59-73.28-7.16-.8-1.44-1.38-2.99-1.68-4.62-.19-1-.29-2.03-.28-3.11,0-.14,0-.28,0-.42-2.25-12.7-3.53-25.78-4.1-39.13-.34-7.83-.43-15.76-.34-23.76v-.43c.08-6.13.27-12.31.55-18.53,0,3.99,20.49,7.22,45.77,7.22s45.77-3.23,45.77-7.22c.24,6.23.4,12.42.47,18.53v.42c.02,2.02.03,4.04.03,6.05Z"/>
    </g>
  </g>
</svg>