<?xml version="1.0" encoding="UTF-8"?>
<svg id="_レイヤー_2" data-name="レイヤー 2" xmlns="http://www.w3.org/2000/svg" xmlns:xlink="http://www.w3.org/1999/xlink" viewBox="0 0 74.52 117.74">
  <defs>
    <style>
      .cls-1 {
        fill: url(#linear-gradient);
      }

      .cls-1, .cls-2, .cls-3, .cls-4, .cls-5, .cls-6 {
        stroke-width: 0px;
      }

      .cls-7 {
        fill: none;
        stroke: #8498fb;
        stroke-miterlimit: 10;
        stroke-width: .6px;
      }

      .cls-2 {
        fill: #ffe094;
        opacity: .54;
      }

      .cls-3 {
        fill: url(#linear-gradient-2);
      }

      .cls-4 {
        fill: #fff;
        opacity: .62;
      }

      .cls-5 {
        fill: #f4d963;
      }

      .cls-6 {
        fill: #ecb443;
      }
    </style>
    <linearGradient id="linear-gradient" x1="14.01" y1="17.48" x2="72.44" y2="118.68" gradientUnits="userSpaceOnUse">
      <stop offset=".22" stop-color="#ffb93d"/>
      <stop offset=".58" stop-color="#f9a718"/>
      <stop offset="1" stop-color="#f49900"/>
    </linearGradient>
    <linearGradient id="linear-gradient-2" x1="41.98" y1="51.77" x2="19.36" y2="120.48" gradientUnits="userSpaceOnUse">
      <stop offset=".22" stop-color="#ffa702"/>
      <stop offset=".99" stop-color="#b95900"/>
    </linearGradient>
  </defs>
  <g id="OBJECTS">
    <g>
      <path class="cls-7" d="m74.22,4.02c0,2.05-16.55,3.72-36.96,3.72S.3,6.07.3,4.02,16.84.3,37.26.3s36.96,1.66,36.96,3.72Z"/>
      <path class="cls-7" d="m69.7,74.35v28.22c0,1.91-.6,3.64-1.69,5.18-10.21,14.46-63.2,12.73-63.2-5.18v-28.22h0c13.21,7.9,51.67,7.9,64.89,0Z"/>
      <path class="cls-7" d="m4.81,98.67c0,12.52,64.89,12.52,64.89,0"/>
      <g>
        <path class="cls-1" d="m72.52,24.91v43.11c0,2.32-1.6,4.29-4.31,5.91v23.19c0,.29-.04.56-.11.83-2.8,11.1-61.79,10.82-61.79-.83v-23.19c-2.71-1.62-4.3-3.59-4.3-5.91V24.41c1.64-.46,3.5-.24,5.19.21,2.21.59,4.35,1.52,6.63,1.66,3.41.22,6.83-1.36,10.18-.68,1.14.23,2.2.71,3.31,1.06,5.68,1.78,11.76-.02,17.69-.59,9.17-.88,18.66,1.2,27.52-1.17Z"/>
        <polygon class="cls-2" points="6.12 6.02 6.12 36.87 13.25 36.87 13.25 6.85 6.12 6.02"/>
        <polygon class="cls-2" points="60.43 6.91 60.43 45.47 64.43 41.47 64.43 6.48 60.43 6.91"/>
        <path class="cls-3" d="m68.1,97.95c-2.8,11.1-61.79,10.82-61.79-.83v-23.19c-2.71-1.62-4.3-3.59-4.3-5.91v-20.37c9.23,2.56,17.13,9.59,20.69,18.5,2.41,6.03,3.34,13.37,8.72,17.02,2.46,1.67,5.47,2.24,8.38,2.82,10.17,2.05,20.73,5,28.3,11.97Z"/>
      </g>
      <path class="cls-4" d="m23.88,60.42l14.01-8.69c3.3-2.05,7.63-1,9.63,2.33l11.19,18.62c2.04,3.4.84,7.81-2.64,9.7l-9.64,5.23c-2.68,1.45-5.99,1-8.18-1.13l-15.57-15.16c-3.24-3.16-2.66-8.52,1.19-10.9Z"/>
      <path class="cls-4" d="m57.34,40.3l-8.12,4.7c-2.42,1.4-3.07,4.6-1.39,6.83l4.41,5.88c1.39,1.85,3.91,2.4,5.95,1.3l8.32-4.5c2.51-1.36,3.22-4.63,1.5-6.91l-4.6-6.08c-1.42-1.88-4.01-2.4-6.05-1.22Z"/>
      <g>
        <path class="cls-5" d="m25.51,21.23l5.28-1.37-3.91-4.3c-1.29,1.38-2.07,3.06-2.09,5.19l.72.48Z"/>
        <path class="cls-6" d="m63.74,32.18c-7.26,8.34-29.26-10.83-22-19.16-.75-.86-7.59,5.11-6.84,5.96-.06,18.97,21.14,25.02,28.85,13.2Z"/>
        <path class="cls-5" d="m55.14,32.37c3.28-2.27-10.11-21.63-13.4-19.36-1.35,1.79-1.83,3.76-1.2,5.95,5.42,1.32,9.4,6.62,12.84,13.41h1.76Z"/>
        <path class="cls-6" d="m26.88,15.55c-9.36,9.67,15.09,33.33,24.45,23.66-9.52,15.38-38.04-6.06-33.15-20.53,3.46-3.07,6.8-5.7,8.7-3.13Z"/>
      </g>
      <path class="cls-4" d="m10.39,52.06l10.04,6.23c2.02,1.25,4.64.96,6.34-.72l10.31-10.22c2.55-2.52,1.8-6.81-1.45-8.32l-11.04-5.15c-1.95-.91-4.25-.51-5.78.99l-9.31,9.14c-2.38,2.34-1.94,6.29.89,8.05Z"/>
      <path class="cls-7" d="m74.22,4.02v64.14c0,2.43-1.67,4.5-4.52,6.2-13.21,7.9-51.67,7.9-64.89,0h0c-2.84-1.7-4.51-3.77-4.51-6.2V4.02c0,2.05,16.54,3.72,36.96,3.72s36.96-1.66,36.96-3.72Z"/>
      <line class="cls-7" x1="72.52" y1="5.13" x2="72.52" y2="32.37"/>
      <line class="cls-7" x1="72.52" y1="34.85" x2="72.52" y2="55.19"/>
      <line class="cls-7" x1="3.57" y1="5.54" x2="3.57" y2="34.85"/>
      <line class="cls-7" x1="3.57" y1="38.23" x2="3.57" y2="56.34"/>
      <line class="cls-7" x1="9.69" y1="76.56" x2="9.69" y2="87.08"/>
      <line class="cls-7" x1="9.69" y1="91.7" x2="9.69" y2="100.97"/>
      <line class="cls-7" x1="14.1" y1="80.28" x2="14.1" y2="98.67"/>
      <line class="cls-7" x1="65.64" y1="78.53" x2="65.64" y2="100.97"/>
      <line class="cls-7" x1="61.38" y1="77.61" x2="61.38" y2="88.46"/>
    </g>
  </g>
</svg>