<?xml version="1.0" encoding="UTF-8"?>
<svg id="_レイヤー_2" data-name="レイヤー 2" xmlns="http://www.w3.org/2000/svg" xmlns:xlink="http://www.w3.org/1999/xlink" viewBox="0 0 91.35 119.25">
  <defs>
    <style>
      .cls-1 {
        fill: url(#linear-gradient);
      }

      .cls-1, .cls-2, .cls-3, .cls-4, .cls-5 {
        stroke-width: 0px;
      }

      .cls-2 {
        opacity: .85;
      }

      .cls-2, .cls-3 {
        fill: #edebfd;
      }

      .cls-3 {
        opacity: .48;
      }

      .cls-6 {
        fill: none;
        stroke: #8498fb;
        stroke-miterlimit: 10;
        stroke-width: .6px;
      }

      .cls-4 {
        fill: url(#linear-gradient-2);
      }

      .cls-5 {
        fill: #f4d8a8;
      }
    </style>
    <linearGradient id="linear-gradient" x1=".3" y1="82.75" x2="104.89" y2="82.75" gradientUnits="userSpaceOnUse">
      <stop offset="0" stop-color="#9d9495"/>
      <stop offset=".22" stop-color="#c5a29c"/>
      <stop offset=".45" stop-color="#c6ab9a"/>
      <stop offset=".72" stop-color="#c5a29c"/>
      <stop offset="1" stop-color="#9d9495"/>
    </linearGradient>
    <linearGradient id="linear-gradient-2" x1="-8.69" y1="71.26" x2="89.86" y2="39.2" gradientUnits="userSpaceOnUse">
      <stop offset="0" stop-color="#d3c2a2"/>
      <stop offset="1" stop-color="#ffc"/>
    </linearGradient>
  </defs>
  <g id="OBJECTS">
    <g>
      <path class="cls-2" d="m30.78,35.6l6.86-21.54c.28-.87,1.4-1.09,1.99-.4l5.83,6.91c.14.16.32.28.53.35,2.35.8,3.74,2.54,4.19,5.24.02.12.06.23.11.34l5.59,10.76c.41.78-.18,1.72-1.06,1.7l-23.93-.59c-1.15-.03-1.56-1.52-.59-2.14h0c.23-.15.4-.37.48-.63Z"/>
      <path class="cls-5" d="m.44,44.08c0-10.77,90.61-10.77,90.61,0,0,10.39-90.61,10.39-90.61,0Z"/>
      <ellipse class="cls-6" cx="45.68" cy="8.42" rx="45.38" ry="8.12"/>
      <path class="cls-6" d="m91.05,8.42v85.13c0,.36-.05.7-.14,1.04-3.86,14.19-86.58,14.19-90.47,0H.44c-.09-.35-.14-.7-.14-1.05V8.42c0,4.48,20.31,8.12,45.38,8.12s45.38-3.64,45.38-8.12Z"/>
      <path class="cls-6" d="m91.05,94.58v8.66c0,20.94-90.61,20.94-90.61,0v-8.65c3.9,14.18,86.62,14.18,90.47,0h.14Z"/>
      <path class="cls-1" d="m91.05,60.27v33.27c0,.36-.05.7-.14,1.04-3.86,14.19-86.58,14.19-90.47,0H.44c-.09-.35-.14-.7-.14-1.05v-33.27c0,11.85,90.75,11.85,90.75,0Z"/>
      <path class="cls-4" d="m.44,44.08c0,9.74,90.61,9.74,90.61,0v16.19c0,11.85-90.75,11.85-90.75,0l.14-16.19Z"/>
      <path class="cls-6" d="m1.03,12.55c3.9,6.57,83.18,8.93,89.11,0"/>
      <path class="cls-2" d="m64.89,45.25l-8.97-5.87c-.71-.47-1.56-.67-2.41-.6-5.42.46-10.23,1.43-13.52,3.66-1.95,1.32-2.24,4.08-.6,5.77l7.08,7.28c1,1.03,2.51,1.4,3.88.96l13.65-4.46c3.01-.98,3.55-5.01.89-6.75Z"/>
      <path class="cls-2" d="m10.81,44.2l1.35-3.89c.36-1.03,1.17-1.83,2.2-2.17l10.57-3.54c1.01-.34,2.12-.2,3.01.38l9.16,5.9c1.09.7,1.7,1.94,1.59,3.23l-.2,2.49c-.15,1.88-1.77,3.3-3.65,3.21l-20.87-.96c-2.34-.11-3.92-2.43-3.15-4.65Z"/>
      <path class="cls-2" d="m62.77,24.67l.95.77c.89.72,2.08.95,3.17.62l2.68-.81c1.17-.35,2.45-.06,3.35.78l6.57,6.11c.38.36.84.62,1.34.77l5.05,1.55c1.78.55,2.81,2.41,2.32,4.21l-1.88,6.89c-.43,1.57-1.9,2.63-3.53,2.54l-20.21-1.16c-1.52-.09-2.8-1.16-3.16-2.63l-2.54-10.46c-.07-.29-.18-.57-.32-.83l-1.11-2.05c-.75-1.38-.47-3.1.68-4.17l2.1-1.97c1.26-1.18,3.19-1.25,4.53-.16Z"/>
      <path class="cls-3" d="m26.35,72.03l-7.02,2.79c-2.83,1.12-4.58,3.97-4.32,7l.46,5.2c.2,2.24,1.48,4.24,3.43,5.36l7.78,4.47c1.93,1.11,4.29,1.22,6.31.28l6.29-2.9c4.04-1.86,5.28-7.01,2.53-10.5l-7.51-9.56c-1.88-2.4-5.12-3.27-7.95-2.14Z"/>
      <path class="cls-3" d="m51.52,74.57l7.73,5.98c.85.65,1.94.88,2.98.62l12.24-3.11c.93-.24,1.72-.85,2.19-1.69l2.7-4.89c1.34-2.44-.58-5.38-3.35-5.14l-22.66,2.03c-3.15.28-4.31,4.27-1.82,6.21Z"/>
      <line class="cls-6" x1="7.97" y1="42.11" x2="7.97" y2="92.29"/>
      <line class="cls-6" x1="88.33" y1="19.98" x2="88.33" y2="49.81"/>
      <line class="cls-6" x1="88.33" y1="52.85" x2="88.33" y2="71.55"/>
      <line class="cls-6" x1="84.42" y1="40.92" x2="84.42" y2="92.29"/>
      <line class="cls-6" x1="84.42" y1="95.7" x2="84.42" y2="106.77"/>
      <line class="cls-6" x1="14.99" y1="5.13" x2="14.99" y2="22.42"/>
      <line class="cls-6" x1="14.99" y1="23.9" x2="14.99" y2="32.89"/>
      <line class="cls-6" x1="9.43" y1="8.42" x2="9.43" y2="36"/>
      <line class="cls-6" x1="76.87" y1="5.13" x2="76.87" y2="14.22"/>
      <line class="cls-6" x1="76.87" y1="19.98" x2="76.87" y2="28.39"/>
      <line class="cls-6" x1="81.01" y1="5.13" x2="81.01" y2="24.19"/>
    </g>
  </g>
</svg>