<?xml version="1.0" encoding="UTF-8"?>
<svg id="_レイヤー_2" data-name="レイヤー 2" xmlns="http://www.w3.org/2000/svg" xmlns:xlink="http://www.w3.org/1999/xlink" viewBox="0 0 88.37 125.35">
  <defs>
    <style>
      .cls-1 {
        fill: url(#linear-gradient);
      }

      .cls-1, .cls-2, .cls-3, .cls-4, .cls-5 {
        stroke-width: 0px;
      }

      .cls-2 {
        fill: url(#linear-gradient-2);
        opacity: .68;
      }

      .cls-6 {
        stroke: #f7f6fe;
      }

      .cls-6, .cls-7 {
        fill: none;
        stroke-miterlimit: 10;
        stroke-width: .6px;
      }

      .cls-7 {
        stroke: #8498fb;
      }

      .cls-3 {
        fill: url(#linear-gradient-3);
      }

      .cls-4 {
        fill: #de7c2b;
      }

      .cls-5 {
        fill: #e5a131;
      }
    </style>
    <linearGradient id="linear-gradient" x1="44.16" y1="31.27" x2="44.16" y2="110.32" gradientUnits="userSpaceOnUse">
      <stop offset=".22" stop-color="#961e13"/>
      <stop offset=".58" stop-color="#ba6128"/>
      <stop offset="1" stop-color="#d7691d"/>
    </linearGradient>
    <linearGradient id="linear-gradient-2" x1="44.53" y1="53.61" x2="44.53" y2="91.97" gradientUnits="userSpaceOnUse">
      <stop offset=".22" stop-color="#7a1e13"/>
      <stop offset="1" stop-color="#961e13"/>
    </linearGradient>
    <linearGradient id="linear-gradient-3" x1="1.07" y1="32.72" x2="87.25" y2="32.72" gradientUnits="userSpaceOnUse">
      <stop offset=".58" stop-color="#ba6128"/>
      <stop offset="1" stop-color="#d7691d"/>
    </linearGradient>
  </defs>
  <g id="OBJECTS">
    <g>
      <path class="cls-1" d="m1.07,31.27c0,3.86,86.19,3.86,86.19,0l-3.25,35.41-1.86,7.17-4.49,29.15c-2.63,4.58-10.47,6.78-19.58,7.31h-28.93c-8.04-1.6-17.76-2.72-18.71-8.17l-3.23-27.21-2.83-8.25L1.07,31.27Z"/>
      <path class="cls-2" d="m85.22,53.61l-1.22,13.07-1.86,7.17c-.08.8-.16,1.61-.25,2.43-11.9,5.49-24.34,9.76-36.75,14-1.98.68-3.98,1.36-6.06,1.58-1.48.16-2.97.09-4.46.02-6.12-.3-12.45-.65-17.94-3.39-2.65-1.33-5.02-3.16-7.36-4.99-.77-.6-1.54-1.2-2.31-1.8-.27-2.64-.53-5.27-.79-7.85l-1.86-7.17-.53-5.7c17.75,1.67,35.61,2.08,53.41,1.22,3.54-.17,7.09-.39,10.55-1.13,6.21-1.33,11.9-4.27,17.42-7.47Z"/>
      <path class="cls-7" d="m88.07,23.09l-2.85,30.52-1.22,13.07-1.86,7.17c-.08.8-.16,1.61-.25,2.43-2.01,19.92-4.24,41.99-4.49,44.47l-19.36,4.3h-27.72l-19.36-4.3c-.22-2.25-2.09-20.73-3.94-39.04-.27-2.64-.53-5.27-.79-7.85l-1.86-7.17-.53-5.7L.3,23.09c0,2.14,19.64,3.87,43.88,3.87s43.88-1.73,43.88-3.87Z"/>
      <line class="cls-7" x1="29.14" y1="61.49" x2="29.14" y2="54.17"/>
      <line class="cls-7" x1="58.07" y1="110.32" x2="58.07" y2="80.42"/>
      <line class="cls-7" x1="17.31" y1="107.74" x2="15.8" y2="79.34"/>
      <line class="cls-7" x1="15.8" y1="76.12" x2="15.27" y2="63.75"/>
      <line class="cls-7" x1="58.07" y1="114.3" x2="58.07" y2="123.01"/>
      <line class="cls-7" x1="29.32" y1="114.3" x2="29.32" y2="119.46"/>
      <path class="cls-3" d="m1.07,31.27c0,3.86,86.19,3.86,86.19,0H1.07Z"/>
      <g>
        <circle class="cls-6" cx="22.26" cy="57.88" r="1.45"/>
        <path class="cls-6" d="m27.48,60.84c0,.48-.39.86-.86.86s-.86-.39-.86-.86.39-.86.86-.86.86.39.86.86Z"/>
        <path class="cls-6" d="m64.8,60.3c0,.53-.43.97-.97.97s-.97-.43-.97-.97.43-.97.97-.97.97.43.97.97Z"/>
        <path class="cls-6" d="m67.06,55.3c0,.62-.51,1.13-1.13,1.13s-1.13-.51-1.13-1.13.51-1.13,1.13-1.13,1.13.51,1.13,1.13Z"/>
        <path class="cls-6" d="m71.68,57.51c0,.59-.48,1.08-1.08,1.08s-1.08-.48-1.08-1.08.48-1.08,1.08-1.08,1.08.48,1.08,1.08Z"/>
        <path class="cls-6" d="m76.63,47.08c0,1.37-1.11,2.47-2.47,2.47s-2.47-1.11-2.47-2.47,1.11-2.47,2.47-2.47,2.47,1.11,2.47,2.47Z"/>
        <path class="cls-6" d="m68.24,46.61c0,.48-.39.86-.86.86s-.86-.39-.86-.86.39-.86.86-.86.86.39.86.86Z"/>
        <path class="cls-6" d="m69.64,40.41c0,.71-.58,1.29-1.29,1.29s-1.29-.58-1.29-1.29.58-1.29,1.29-1.29,1.29.58,1.29,1.29Z"/>
        <path class="cls-6" d="m74.16,36.59c0,.45-.36.81-.81.81s-.81-.36-.81-.81.36-.81.81-.81.81.36.81.81Z"/>
        <circle class="cls-6" cx="74.08" cy="34.89" r=".73"/>
        <path class="cls-6" d="m85.22,36.71c0,1.01-.81,1.82-1.82,1.82s-1.82-.81-1.82-1.82.81-1.82,1.82-1.82,1.82.81,1.82,1.82Z"/>
        <path class="cls-6" d="m86.1,34.61c0,.24-.2.44-.44.44s-.44-.2-.44-.44.2-.44.44-.44.44.2.44.44Z"/>
        <path class="cls-6" d="m80.95,34.34c0,.39-.32.71-.71.71s-.71-.32-.71-.71.32-.71.71-.71.71.32.71.71Z"/>
        <circle class="cls-6" cx="82.17" cy="52.71" r="1.22"/>
        <circle class="cls-6" cx="39.04" cy="94.88" r="1.34"/>
        <path class="cls-6" d="m40.38,90.77c0,.37-.3.67-.67.67s-.67-.3-.67-.67.3-.67.67-.67.67.3.67.67Z"/>
        <path class="cls-6" d="m44.36,91.44c0,.74-.6,1.34-1.34,1.34s-1.34-.6-1.34-1.34.6-1.34,1.34-1.34,1.34.6,1.34,1.34Z"/>
        <path class="cls-6" d="m43.02,87.27c0,.52-.42.94-.94.94s-.94-.42-.94-.94.42-.94.94-.94.94.42.94.94Z"/>
        <circle class="cls-6" cx="25.92" cy="88.59" r="1.56"/>
        <path class="cls-6" d="m28.34,85.04c0,.48-.39.86-.86.86s-.86-.39-.86-.86.39-.86.86-.86.86.39.86.86Z"/>
        <path class="cls-6" d="m25.76,84.88c0,.39-.31.7-.7.7s-.7-.31-.7-.7.31-.7.7-.7.7.31.7.7Z"/>
        <path class="cls-6" d="m13.06,80.9c0,.86-.7,1.56-1.56,1.56s-1.56-.7-1.56-1.56.7-1.56,1.56-1.56,1.56.7,1.56,1.56Z"/>
        <path class="cls-6" d="m13.93,84.88c0,.39-.31.7-.7.7s-.7-.31-.7-.7.31-.7.7-.7.7.31.7.7Z"/>
        <path class="cls-6" d="m9.95,78.86c0,.5-.41.91-.91.91s-.91-.41-.91-.91.41-.91.91-.91.91.41.91.91Z"/>
        <circle class="cls-6" cx="5.13" cy="37.37" r="1.75"/>
        <circle class="cls-6" cx="4.74" cy="40.99" r=".9"/>
        <circle class="cls-6" cx="8.71" cy="41.64" r="1.24"/>
        <path class="cls-6" d="m6.42,44.91c0,.47-.38.84-.84.84s-.84-.38-.84-.84.38-.84.84-.84.84.38.84.84Z"/>
      </g>
      <path class="cls-4" d="m58.61,35.03c-2.04,7.56-8.33,10.22-15.64,11.41h0C11.61,46.32-2.08,30.37.3,0l4.64,3.87c4.7,21.77,17.3,33.43,37.92,37.12.04,0,5.79.06,8.17-1.39,2.37-1.45,4-2.61,4.78-5.43l2.8.86Z"/>
      <path class="cls-5" d="m4.94,3.87l50.87,30.29c-.76,2.76-2.3,4.9-4.68,6.37-2.44,1.51-5.39,1.93-8.2,1.37C20.88,37.52,8.86,24.26,4.94,3.87Z"/>
      <path class="cls-7" d="m80.8,20.96c4.59.61,7.26,1.35,7.26,2.13,0,2.14-19.65,3.87-43.88,3.87S.3,25.23.3,23.09c0-.38.62-.75,1.79-1.1"/>
      <path class="cls-7" d="m30.97,19.37c.21,0,1.34-.01,1.56-.02,3.71-.09,7.62-.14,11.65-.14,10.6,0,20.33.33,27.91.88"/>
      <line class="cls-7" x1="29.14" y1="110.32" x2="29.14" y2="63.75"/>
      <line class="cls-7" x1="58.07" y1="74.61" x2="58.07" y2="59.98"/>
      <polyline class="cls-7" points="9.95 114.3 26.89 117.53 55.24 117.53"/>
      <line class="cls-7" x1="78.21" y1="112.79" x2="62.86" y2="116.88"/>
    </g>
  </g>
</svg>