<?xml version="1.0" encoding="UTF-8"?>
<svg xmlns="http://www.w3.org/2000/svg" xmlns:xlink="http://www.w3.org/1999/xlink" viewBox="0 0 97.58 114.88">
  <defs>
    <style>
      .cls-1 {
        fill: url(#linear-gradient);
      }

      .cls-1, .cls-2, .cls-3, .cls-4, .cls-5, .cls-6, .cls-7, .cls-8 {
        stroke-width: 0px;
      }

      .cls-2 {
        fill: url(#radial-gradient);
      }

      .cls-3 {
        fill: #d2dbfd;
      }

      .cls-3, .cls-4, .cls-9 {
        opacity: .85;
      }

      .cls-4, .cls-5 {
        fill: #edebfd;
      }

      .cls-5 {
        mix-blend-mode: soft-light;
      }

      .cls-10 {
        fill: none;
        stroke: #8498fb;
        stroke-miterlimit: 10;
        stroke-width: .6px;
      }

      .cls-6 {
        fill: url(#linear-gradient-2);
      }

      .cls-11 {
        isolation: isolate;
      }

      .cls-7 {
        fill: #cb6b42;
      }

      .cls-8 {
        fill: #ab6039;
      }
    </style>
    <linearGradient id="linear-gradient" x1="48.13" y1="101.47" x2="48.13" y2="46.25" gradientUnits="userSpaceOnUse">
      <stop offset="0" stop-color="#ffe694"/>
      <stop offset=".97" stop-color="#df9926"/>
    </linearGradient>
    <linearGradient id="linear-gradient-2" x1="44.41" y1="57.7" x2="44.41" y2="94.89" gradientUnits="userSpaceOnUse">
      <stop offset="0" stop-color="#ffab4a"/>
      <stop offset=".88" stop-color="#b88726"/>
    </linearGradient>
    <radialGradient id="radial-gradient" cx="48.13" cy="36.46" fx="48.13" fy="36.46" r="71.25" gradientUnits="userSpaceOnUse">
      <stop offset="0" stop-color="#ffe694"/>
      <stop offset=".97" stop-color="#df9926"/>
    </radialGradient>
  </defs>
  <g class="cls-11">
    <g id="_レイヤー_2" data-name="レイヤー 2">
      <g id="OBJECTS">
        <g>
          <g>
            <path class="cls-1" d="m90.39,41.29l-.66,2.23-10.97,36.82-.57,1.92c-4.23,17.59-58.42,16-62.34.25-.02-.08-.04-.17-.06-.25l-5.71-24.56-3.71-15.97-.48-2.05c3.51,7.58,23.2,12.06,42.76,12.55,5.77.15,11.52-.05,16.85-.63,12.39-1.33,22.45-4.67,24.9-10.3Z"/>
            <path class="cls-6" d="m78.75,80.34l-.57,1.92c-4.23,17.59-58.42,16-62.34.25-.02-.08-.04-.17-.06-.25l-5.71-24.56c3.72.14,7.16,2.41,9.89,5.02,2.51,2.4,4.74,5.21,7.78,6.89,4.19,2.32,9.3,2.16,14.03,1.43,4.73-.72,9.47-1.95,14.24-1.53,4.82.41,9.34,2.48,13.5,4.94,3.14,1.86,6.13,3.97,9.24,5.88Z"/>
            <path class="cls-2" d="m90.39,41.29c-2.45,5.64-12.51,8.97-24.9,10.3-5.32.51-11.07.72-16.85.63-19.56-.49-39.25-4.97-42.76-12.55.5-26.38,85.01-24.76,84.51,1.62Z"/>
          </g>
          <path class="cls-10" d="m6.35,41.73c-.33-.65-.49-1.34-.48-2.05l.48,2.05Z"/>
          <path class="cls-4" d="m30.85,22.44l-3.29-12.53,38.41,1.4c3.88.14,7.4,2.31,9.27,5.7l.64,1.17c2.66,4.83,3.29,10.52,1.76,15.82l-5.22,17.98c-.9,3.08-3.92,5.05-7.1,4.61l-41.73-5.75,7.26-28.4Z"/>
          <path class="cls-3" d="m20.21,35.2l7.36-25.28,3.29,12.53-7.26,28.4-3.3-10.13c-.58-1.79-.61-3.71-.09-5.52Z"/>
          <path class="cls-10" d="m78.18,82.26l-1.36,19.21c-.41,18.36-61.39,17-60.98-1.36v-17.6c3.92,15.75,58.12,17.33,62.34-.25Z"/>
          <path class="cls-10" d="m96.51,20.74l-5.64,18.93-.48,1.62-12.21,40.97c-4.23,17.59-58.42,16-62.34.25-.02-.08-.04-.17-.06-.25L5.88,39.67,1.43,20.55c2.02,3.23,6.73,6.07,13.9,8.33,9.04,2.84,20.87,4.41,33.33,4.41,19.67,0,43.22-2.25,47.84-12.55Z"/>
          <g class="cls-9">
            <circle class="cls-5" cx="55.18" cy="67.58" r="1.28"/>
            <circle class="cls-5" cx="53.1" cy="62.44" r=".89"/>
            <path class="cls-5" d="m49.4,58.19c0,.85-.69,1.53-1.53,1.53s-1.53-.69-1.53-1.53.69-1.53,1.53-1.53,1.53.69,1.53,1.53Z"/>
            <path class="cls-5" d="m51.52,60.31c0,.33-.27.6-.6.6s-.6-.27-.6-.6.27-.6.6-.6.6.27.6.6Z"/>
            <path class="cls-5" d="m61.13,57.15c0,1.29-1.05,2.34-2.34,2.34s-2.34-1.05-2.34-2.34,1.05-2.34,2.34-2.34,2.34,1.05,2.34,2.34Z"/>
            <path class="cls-5" d="m77.46,51.94c0,.28-.23.51-.51.51s-.51-.23-.51-.51.23-.51.51-.51.51.23.51.51Z"/>
            <path class="cls-5" d="m86.43,49.03c0,.69-.56,1.26-1.26,1.26s-1.26-.56-1.26-1.26.56-1.26,1.26-1.26,1.26.56,1.26,1.26Z"/>
            <circle class="cls-5" cx="65.08" cy="53.68" r=".38"/>
            <circle class="cls-5" cx="36.99" cy="54.23" r=".94"/>
            <path class="cls-5" d="m27.11,53.38c0,.8-.64,1.44-1.44,1.44s-1.44-.64-1.44-1.44.64-1.44,1.44-1.44,1.44.64,1.44,1.44Z"/>
          </g>
          <path class="cls-10" d="m41.62,105.47c9.76.81,19.4-.67,28.9-4.63"/>
          <path class="cls-10" d="m29.27,103.26c2.27.62,4.53,1.12,6.78,1.5"/>
          <path class="cls-10" d="m21.87,100.84c1.62.62,3.24,1.18,4.85,1.68"/>
          <g>
            <path class="cls-7" d="m28.78,32.25c0-6.15-3.43-12.76-11.14-11.14-8.29-1.69-11.14,4.99-11.14,11.14,0,14.85,22.28,14.85,22.28,0Z"/>
            <path class="cls-8" d="m28.47,34.83c-.57,4.84-5.72,8.86-10.98,8.86-6.59,0-10.99-5.3-10.99-11.44,0-2.59.16-5.36,1.64-7.26-.2.82.43,2.07.43,2.95,0,6.15,4.99,11.14,11.14,11.14,3.56,0,6.72-1.66,8.76-4.25Z"/>
          </g>
          <path class="cls-10" d="m97.2,18.42l-.69,2.32c-4.62,10.3-28.17,12.55-47.84,12.55-12.46,0-24.3-1.57-33.33-4.41-7.17-2.26-11.88-5.09-13.9-8.33-.75-1.2-1.13-2.46-1.13-3.76,0-.29.02-.57.06-.86C.94,11.49,6.09,7.62,15.33,4.71,24.37,1.87,36.21.3,48.67.3c20.52,0,40.56,5.35,46.63,12.45,1.57,1.84,2.21,3.74,1.9,5.67Z"/>
          <path class="cls-10" d="m95.52,18.15c-1.53,9.69-21.55,13.43-46.85,13.43S2,24.96,2,16.79,23.36,2,48.67,2s48.13,8.08,46.85,16.15Z"/>
        </g>
      </g>
    </g>
  </g>
</svg>